<?xml version="1.0" standalone="no"?>
<!DOCTYPE svg PUBLIC "-//W3C//DTD SVG 1.1//EN" "http://www.w3.org/Graphics/SVG/1.1/DTD/svg11.dtd">
<svg xmlns="http://www.w3.org/2000/svg">
<defs >
<font id="Neuton" horiz-adv-x="696" ><font-face
    font-family="Neuton"
    units-per-em="2048"
    panose-1="2 0 5 3 0 0 0 0 0 0"
    ascent="1927"
    descent="-418"
    alphabetic="0" />
<glyph unicode=" " glyph-name="space" horiz-adv-x="397" />
<glyph unicode="!" glyph-name="exclam" horiz-adv-x="438" d="M251 213Q296 213 324 182T353 106Q353 46 314 7T216 -33Q176 -33 143 1T110 73Q110 133 150 173T251 213ZM318 357L232 377V380Q287 1067 317 1252L318 1256Q325 1273 369 1284T457 1295Q481 1295
498 1287T515 1261V1256Q484 1053 318 364V357Z" />
<glyph unicode="&quot;" glyph-name="quotedbl" horiz-adv-x="513" d="M468 1305L650 1289L553 905L457 893L468 1305ZM260 1305L442 1289L344 905L248 893L260 1305Z" />
<glyph unicode="#" glyph-name="numbersign" horiz-adv-x="961" d="M372 364L348 179L242 170L268 364H99L125 465H287L318 677H156L179 778H335L365 953L467 963L438 778H643L671 953L774 961L745 778H914L890 677H728L697 465H858L834 364H678L656 179L550 170L576
364H372ZM390 465H593L625 677H420L390 465Z" />
<glyph unicode="$" glyph-name="dollar" horiz-adv-x="868" d="M553 506L486 85Q563 102 620 153T691 289Q693 304 694 317Q694 374 658 418T553 506ZM512 790L575 1188Q508 1176 461 1130T401 1002Q399 985 399 969Q399 869 512 790ZM864 892L766 903L770 1096Q762
1121 730 1148T657 1186L586 743Q598 736 628 719T672 694T713 669T753 641T790 612T824 579T850 544T872 503T885 458T891 407Q891 386 887 356Q865 216 753 117T491 -13L467 -165L333 -181L357 -24Q260 -19 182 22T65 123L120 392L221 377L229 188Q249 146 293
115T396 79L471 555Q421 584 394 602T326 652T265 712T227 783T211 871Q211 893 215 921Q226 990 259 1051T341 1154T447 1226T568 1268L590 1403L718 1419L695 1276Q836 1266 931 1176L864 892Z" />
<glyph unicode="%" glyph-name="percent" horiz-adv-x="1173" d="M888 48Q947 48 986 106T1026 243Q1026 317 1008 349T939 382Q879 382 840 326T801 197Q801 115 819 82T888 48ZM997 4Q932 -35 874 -35Q777 -35 725 22T672 185Q672 248 716 314T826 422Q892 463
952 463Q1149 463 1149 237Q1149 173 1106 109T997 4ZM391 559Q450 559 490 617T530 754Q530 828 512 860T443 893Q383 893 344 838T305 711Q305 628 323 594T391 559ZM500 515Q435 476 378 476Q283 476 230 534T176 700Q176 763 220 827T330 934Q395 974 456 974Q653
974 653 748Q653 684 609 620T500 515ZM1015 978L1126 969L310 -38L191 -28L1015 978Z" />
<glyph unicode="&amp;" glyph-name="ampersand" horiz-adv-x="1335" d="M1246 725L978 354Q1064 240 1160 151Q1224 92 1262 79L1294 69L1269 0Q1207 -20 1145 -20Q1074 -20 1002 39T837 218Q804 179 778 154T711 96Q665 59 621 36T516 -3Q454 -20 390 -20Q230
-20 151 69Q78 150 78 268Q78 390 162 496Q195 537 244 579T342 652T432 703Q329 802 329 950Q329 1024 383 1099T523 1225Q609 1274 691 1274Q829 1274 901 1217T974 1036Q974 942 873 851Q784 773 683 718L682 706L918 423L1135 721L973 763L994 839H1444L1423
763L1246 725ZM485 630L468 632Q389 582 333 510T276 364Q276 258 316 187Q361 106 470 106Q520 106 575 127T672 181Q750 242 778 283L485 630ZM625 774Q799 880 799 1016Q799 1103 766 1146T658 1189Q594 1189 545 1133T495 1009Q494 897 625 774Z" />
<glyph unicode="&apos;" glyph-name="quotesingle" horiz-adv-x="305" d="M260 1305L442 1289L344 905L248 893L260 1305Z" />
<glyph unicode="(" glyph-name="parenleft" horiz-adv-x="483" d="M332 -376Q329 -373 321 -364T310 -352T301 -342T291 -330T281 -317T268 -299T254 -278T237 -251Q199 -190 177 -128T135 36Q115 138 115 251Q115 506 196 720Q262 894 374 1039Q412 1089 462
1140T543 1218Q575 1244 595 1257L634 1191Q589 1141 552 1091T468 955Q413 857 377 754T314 509Q287 361 287 202Q287 -49 409 -318L332 -376Z" />
<glyph unicode=")" glyph-name="parenright" horiz-adv-x="485" d="M-24 -318Q53 -216 102 -134Q332 251 344 687Q345 703 345 735Q345 999 229 1191L289 1257L296 1250Q335 1212 367 1171Q411 1115 450 1029Q489 940 508 806Q517 732 517 658Q517 536 494 413T433
190Q399 101 349 11T250 -144Q209 -199 159 -254T81 -335Q75 -341 36 -376L-24 -318Z" />
<glyph unicode="*" glyph-name="asterisk" horiz-adv-x="850" d="M804 693L684 624L536 872L587 923L804 693ZM376 594L274 687L464 905L529 872L376 594ZM156 966L209 1093L476 979L464 908L156 966ZM441 1295L577 1282L551 994L481 983L441 1295ZM840 1125L869
991L586 926L553 991L840 1125Z" />
<glyph unicode="+" glyph-name="plus" horiz-adv-x="689" d="M466 410L429 174L320 185L356 410H135L161 511H371L408 743L514 731L481 511H701L674 410H466Z" />
<glyph unicode="," glyph-name="comma" horiz-adv-x="447" d="M25 -245Q118 -221 176 -168T235 -61Q235 -16 209 10T134 36Q129 36 104 30Q97 61 98 84Q98 138 145 178T240 218Q298 218 340 183Q389 140 389 31Q389 -38 343 -111Q287 -202 178 -261Q113 -295 36
-314L25 -245Z" />
<glyph unicode="-" glyph-name="hyphen" horiz-adv-x="604" d="M176 500L585 518L573 417L165 399L176 500Z" />
<glyph unicode="." glyph-name="period" horiz-adv-x="404" d="M240 213Q285 213 313 182T342 106Q342 46 303 7T205 -33Q165 -33 132 1T99 73Q99 133 139 173T240 213Z" />
<glyph unicode="/" glyph-name="slash" horiz-adv-x="516" d="M494 1237L626 1246L160 -356L31 -364L494 1237Z" />
<glyph unicode="0" glyph-name="zero" horiz-adv-x="1012" d="M341 412Q341 73 534 73Q676 73 756 207Q798 276 827 410Q853 550 854 735Q854 899 808 988T673 1077Q601 1077 546 1044Q443 979 395 832Q355 709 344 543Q341 500 341 412ZM1016 700Q1016 532 971
393T850 157Q780 68 691 21T519 -26Q450 -26 384 5T276 91Q226 153 203 240Q175 330 175 448Q175 602 219 740T337 974Q411 1071 501 1123T683 1175Q757 1175 821 1141Q945 1068 993 898Q1016 807 1016 700Z" />
<glyph unicode="1" glyph-name="one" horiz-adv-x="786" d="M538 111L799 81L779 0H68L86 73L369 117L495 1007H230L246 1084L658 1158H685L538 111Z" />
<glyph unicode="2" glyph-name="two" horiz-adv-x="945" d="M74 0L83 103L344 303L490 419Q644 542 723 693Q761 770 761 859Q761 942 723 994Q678 1050 587 1050Q537 1050 491 1027Q446 1002 412 968Q340 889 296 801L220 830Q243 892 288 957T389 1069Q454 1122
518 1151Q592 1182 665 1183Q801 1183 872 1112T943 908Q943 707 726 500Q643 419 536 341L362 208L277 136H731L849 306L916 297L821 0H74Z" />
<glyph unicode="3" glyph-name="three" horiz-adv-x="854" d="M212 208Q212 168 258 117Q281 91 311 74Q337 56 376 56Q531 56 601 157Q644 223 644 311Q644 349 625 391T574 467Q495 541 379 541H362V605Q364 607 371 608Q375 609 384 613Q391 616 400 619Q461
643 538 690Q620 745 660 824Q682 869 682 915Q682 975 648 1012Q607 1057 534 1057Q460 1057 409 1019T318 908L248 933Q256 967 292 1013T377 1098Q494 1186 612 1186Q656 1186 710 1170Q804 1134 844 1054Q864 1014 864 966Q864 851 778 759Q701 682 588 644L587
632Q703 613 766 539Q826 470 825 377Q825 298 784 220Q695 65 510 2Q409 -29 313 -30Q261 -30 207 -18Q116 8 88 53Q73 75 73 99Q73 137 109 169Q147 201 212 208Z" />
<glyph unicode="4" glyph-name="four" horiz-adv-x="942" d="M566 349H89L78 422L787 1168L847 1150Q847 1149 829 1050L811 933L791 802Q774 675 773 668L744 468H991L958 346H726L682 15L513 -12L566 349ZM639 890L250 468H579L639 890Z" />
<glyph unicode="5" glyph-name="five" horiz-adv-x="775" d="M109 41Q334 61 458 146Q584 230 584 359Q584 617 170 645L366 1144L804 1171L759 1017L397 999L314 786Q531 772 657 672Q713 626 743 561T773 423Q773 338 732 258T614 114Q535 50 409 5Q284 -38
114 -48L109 41Z" />
<glyph unicode="6" glyph-name="six" horiz-adv-x="905" d="M377 596Q414 633 486 663Q509 671 559 685Q598 693 637 693Q697 693 749 668T837 599Q870 558 892 501Q910 446 910 387Q910 305 872 230Q790 77 629 12Q550 -21 463 -22Q375 -22 316 7Q253 38 217
84Q143 173 142 334Q142 502 250 693Q299 777 369 858T514 999Q674 1129 854 1188L882 1132Q786 1090 695 1026Q619 970 549 894T437 744Q392 667 367 596H377ZM483 60Q617 60 682 159Q728 240 728 362Q728 449 685 519Q636 592 553 592Q537 592 495 586Q429 568
385 543Q363 528 354 516Q347 490 337 435T326 336Q326 224 366 144Q384 107 415 83Q443 60 483 60Z" />
<glyph unicode="7" glyph-name="seven" horiz-adv-x="846" d="M306 1007L237 873L170 887L232 1156H988L983 1105L402 -33L314 -3L809 1007H306Z" />
<glyph unicode="8" glyph-name="eight" horiz-adv-x="913" d="M469 543L406 493Q341 438 313 369Q298 329 299 275Q299 196 352 129Q376 100 408 83Q437 65 477 65Q603 65 659 121Q715 180 715 273Q715 309 695 344Q673 379 638 414Q603 446 558 478L469 543ZM132
237Q132 335 202 417T418 577L419 586Q395 600 368 625Q303 678 275 753Q260 793 261 837Q261 902 292 961Q352 1082 497 1145Q566 1175 643 1175Q763 1175 840 1103Q872 1072 892 1029Q910 983 911 936Q911 889 892 840Q870 790 843 753Q813 710 770 680Q728 648
682 632L679 622Q879 477 879 328Q879 260 847 196T756 81T611 2Q526 -26 421 -26Q290 -26 216 43Q175 79 155 126Q132 176 132 237ZM621 662Q660 684 684 705Q710 727 730 756Q747 787 757 822Q765 861 765 908Q765 992 720 1047Q675 1100 608 1100Q527 1100 466
1039Q418 986 418 915Q418 839 474 778Q530 718 621 662Z" />
<glyph unicode="9" glyph-name="nine" horiz-adv-x="904" d="M703 562Q683 540 649 518T584 485Q518 457 445 457Q321 457 246 539Q177 618 177 741Q177 917 323 1052Q392 1116 470 1150T620 1184Q776 1184 862 1075Q898 1029 918 959Q936 890 936 821Q936 671
885 530T738 273Q642 156 510 78T223 -26L210 46Q440 110 569 250Q677 367 720 562H703ZM602 1105Q470 1105 407 1012Q346 929 346 789Q346 742 357 703Q369 660 392 632Q440 563 531 562Q557 562 586 569Q636 576 695 612Q717 626 733 648Q747 693 751 711T760
762T764 839Q764 878 753 938Q743 979 720 1024Q698 1060 668 1082Q638 1105 602 1105Z" />
<glyph unicode=":" glyph-name="colon" horiz-adv-x="468" d="M367 857Q410 857 436 827T463 756Q463 700 426 663T334 625Q297 625 266 657T235 725Q235 781 273 819T367 857ZM271 230Q314 230 341 200T369 127Q369 71 332 34T240 -3Q203 -3 171 29T139 98Q139
154 177 192T271 230Z" />
<glyph unicode=";" glyph-name="semicolon" horiz-adv-x="493" d="M50 -233Q138 -209 192 -161T246 -61Q246 -18 223 6T152 31Q149 31 124 25Q117 53 117 76Q117 126 161 164T251 202Q305 202 345 168Q390 129 390 26Q390 -39 347 -108Q296 -192 193 -247Q135
-278 60 -298L50 -233ZM392 857Q435 857 461 827T488 756Q488 700 451 663T359 625Q322 625 291 657T260 725Q260 781 298 819T392 857Z" />
<glyph unicode="&lt;" glyph-name="less" horiz-adv-x="741" d="M120 428L127 457L749 974L793 903L360 455L669 -13L595 -83L120 428Z" />
<glyph unicode="=" glyph-name="equal" horiz-adv-x="878" d="M202 425H817L789 319H174L202 425ZM243 665H859L830 559H215L243 665Z" />
<glyph unicode="&gt;" glyph-name="greater" horiz-adv-x="743" d="M759 428L122 -83L71 -13L526 455L235 903L303 974L763 457L759 428Z" />
<glyph unicode="?" glyph-name="question" horiz-adv-x="684" d="M331 213Q376 213 404 182T433 106Q433 46 394 7T296 -33Q256 -33 223 1T190 73Q190 133 230 173T331 213ZM245 1145Q245 1191 295 1237Q321 1261 366 1275T465 1290Q584 1290 666 1187T748 930Q748
802 677 734Q623 683 532 637Q486 614 458 596T412 550Q392 521 392 483Q392 437 399 384L323 367Q278 451 278 543Q278 651 351 707Q398 744 499 789Q591 830 622 880Q642 913 642 958Q642 1023 600 1069T506 1115Q381 1115 303 1044Q277 1055 261 1082T245 1145Z"
/>
<glyph unicode="@" glyph-name="at" horiz-adv-x="1391" d="M881 693Q833 705 793 705Q740 705 693 650T620 510Q595 429 595 351Q595 278 604 239Q613 203 627 192T671 180Q745 180 813 255L881 693ZM1317 306T1251 232T1092 114T901 69Q859 69 833 95T806 169Q806
174 807 178T808 187H800Q763 132 711 96T608 60Q524 60 480 122T436 308Q436 409 475 502T580 658Q643 719 714 755T849 791Q939 791 1015 774L1018 773L1035 753L982 385Q962 244 962 218Q962 168 985 169Q1059 169 1122 223T1223 368Q1259 458 1260 559Q1260
748 1149 852T849 956Q732 956 626 905T444 767Q370 680 329 569T287 341Q287 114 417 -11T788 -136Q875 -136 976 -102T1134 -28L1144 -20L1179 -83L1170 -88Q1086 -143 1008 -177Q896 -228 749 -228Q550 -228 400 -154Q316 -113 259 -52T167 100Q131 192 132
311Q132 457 189 592T348 829Q449 930 591 988T889 1046Q1031 1046 1145 992T1328 835Q1396 732 1395 599Q1395 500 1356 403Z" />
<glyph unicode="A" glyph-name="A" horiz-adv-x="1159" d="M874 1270L1063 124L1187 81L1169 0H684L704 74L876 129L820 433H419L266 124L436 81L414 0H-32L-14 74L135 129L727 1239L874 1270ZM471 534H806L727 1036L471 534Z" />
<glyph unicode="B" glyph-name="B" horiz-adv-x="1140" d="M518 605L428 96H622Q700 96 763 121T867 191Q945 276 945 390Q945 483 888 544T731 605H518ZM882 673Q1002 666 1069 596T1136 422Q1136 297 1041 191Q934 73 747 26Q645 0 521 0H65L83 74L251 121L422
1107L263 1136L283 1213Q592 1259 766 1259Q958 1259 1051 1179Q1135 1105 1135 1004Q1135 918 1081 830Q1021 731 883 682L882 673ZM534 690H733Q829 690 887 762T946 956Q946 1044 894 1105Q835 1173 693 1173Q655 1173 617 1166L534 690Z" />
<glyph unicode="C" glyph-name="C" horiz-adv-x="1148" d="M489 211Q592 106 744 106Q927 106 1091 258L1129 203Q1031 87 907 31T648 -25Q449 -25 311 105Q243 168 206 266T168 483Q168 629 227 780Q292 948 406 1063Q538 1197 706 1246Q800 1272 901 1272Q1118
1272 1228 1171L1146 839L1065 852L1061 1072Q1033 1121 973 1148T828 1176Q741 1176 660 1130T516 1002Q452 918 416 798T380 539Q380 432 408 348T489 211Z" />
<glyph unicode="D" glyph-name="D" horiz-adv-x="1349" d="M441 104H581Q708 104 820 152T1008 285Q1083 369 1125 477T1167 703Q1167 897 1060 1023Q1006 1087 920 1122T724 1158Q664 1158 606 1151L441 104ZM1189 1163Q1256 1119 1300 1056T1364 919Q1382 850
1382 766Q1382 528 1229 330Q1069 124 813 43Q678 0 525 0H72L92 74L264 129L418 1105L257 1135L277 1211Q582 1261 777 1261Q1040 1261 1189 1163Z" />
<glyph unicode="E" glyph-name="E" horiz-adv-x="1135" d="M271 1246H1226L1146 926L1065 940L1060 1155H609L534 678H812L873 797L964 811L872 422L787 409L782 584H519L442 96H916L1047 326L1125 314L1046 0H83L98 74L263 121L422 1128L255 1170L271 1246Z" />
<glyph unicode="F" glyph-name="F" horiz-adv-x="1052" d="M273 1246H1224L1135 925L1054 938V1155H609L533 672H807L868 792L955 806L868 414L781 399L779 579H518L445 122L667 84L647 0H83L98 74L263 121L422 1128L255 1170L273 1246Z" />
<glyph unicode="G" glyph-name="G" horiz-adv-x="1285" d="M1227 842L1146 857L1142 1049Q1112 1099 1037 1131T848 1163Q702 1163 588 1075Q461 977 412 780Q385 672 385 539Q385 311 482 194T772 76Q897 76 950 122L1000 435L780 473L800 556H1331L1313 481L1189
440L1134 88Q1049 31 922 0T639 -31Q522 -31 430 8T281 118Q169 259 170 467Q170 611 212 740T329 966Q481 1160 699 1229Q803 1262 912 1262Q1178 1262 1304 1165L1227 842Z" />
<glyph unicode="H" glyph-name="H" horiz-adv-x="1406" d="M581 0H89L104 74L261 121L420 1128L261 1170L278 1246H773L756 1170L597 1132L529 693H1098L1166 1128L1006 1170L1024 1246H1519L1502 1170L1343 1132L1183 114L1345 81L1327 0H834L852 74L1007 121L1082
592L511 591L437 114L602 81L581 0Z" />
<glyph unicode="I" glyph-name="I" horiz-adv-x="670" d="M596 0H83L98 74L263 121L422 1128L255 1170L271 1246H791L774 1170L605 1132L445 114L615 81L596 0Z" />
<glyph unicode="J" glyph-name="J" horiz-adv-x="635" d="M476 385Q442 172 392 60Q363 -6 331 -54T248 -149Q199 -195 146 -234T7 -326Q-19 -287 -31 -238Q103 -122 172 -20T261 197L409 1128L244 1170L259 1246H778L765 1170L596 1132L476 385Z" />
<glyph unicode="K" glyph-name="K" horiz-adv-x="1210" d="M620 510Q575 584 553 605L558 630Q637 690 679 738L1022 1123L874 1170L889 1246H1364L1346 1170L1169 1123L732 650L906 380Q1002 233 1060 173T1200 84L1233 73L1212 0Q1149 -22 1086 -22Q971 -22
886 61Q814 130 747 261L620 510ZM451 124L624 81L606 0H79L93 74L267 129L423 1120L251 1170L270 1246H795L778 1170L606 1123L451 124Z" />
<glyph unicode="L" glyph-name="L" horiz-adv-x="1076" d="M793 1246L777 1170L605 1123L443 96H864L1028 344L1109 331L1022 0H84L97 74L264 121L421 1120L249 1170L269 1246H793Z" />
<glyph unicode="M" glyph-name="M" horiz-adv-x="1647" d="M725 31L543 968L348 114L522 81L500 0H42L60 74L226 121L454 1128L285 1170L304 1246H686L729 1052L861 309L1280 1085L1366 1246H1743L1726 1170L1559 1132L1450 114L1619 81L1601 0H1091L1109 74L1273
121L1359 1006L845 51L725 31Z" />
<glyph unicode="N" glyph-name="N" horiz-adv-x="1359" d="M993 -30L517 963L383 114L555 81L537 0H84L98 74L264 121L421 1120L256 1170L272 1246H606L1066 273L1200 1128L1030 1170L1048 1246H1501L1483 1170L1318 1132L1139 0L993 -30Z" />
<glyph unicode="O" glyph-name="O" horiz-adv-x="1341" d="M1079 1031Q1043 1100 982 1139T844 1178Q765 1178 697 1155T581 1092Q492 1017 446 885Q407 773 398 640Q394 580 394 528Q394 344 464 217Q500 152 560 116T698 79Q857 79 959 165Q1048 239 1096 370Q1135
480 1146 608Q1150 668 1150 715Q1149 895 1079 1031ZM1247 1115Q1364 961 1363 730Q1363 481 1236 291Q1102 90 882 14Q766 -27 634 -26Q497 -26 391 43T230 235Q175 356 175 506Q175 668 228 810T377 1056Q474 1159 611 1217T905 1275Q1013 1275 1101 1233T1247
1115Z" />
<glyph unicode="P" glyph-name="P" horiz-adv-x="1071" d="M1167 958Q1167 859 1127 771T1016 621Q947 560 857 526T672 491Q622 491 565 500L558 582H610Q785 582 873 668T962 918Q962 1036 898 1105T711 1175L608 1170L443 122L664 84L643 0H77L93 74L261 121L414
1107L257 1136L279 1213Q562 1258 742 1257Q1167 1257 1167 958Z" />
<glyph unicode="Q" glyph-name="Q" horiz-adv-x="1354" d="M1119 960Q1060 1092 963 1143Q908 1169 847 1170Q629 1170 503 1008T377 561Q377 416 428 300Q486 164 605 106Q670 73 756 68Q904 105 999 192Q1081 266 1124 377Q1159 466 1168 583Q1171 624 1171
682Q1171 838 1119 960ZM695 -63Q695 -41 696 -22Q684 -27 635 -26Q498 -26 392 43T229 235Q174 354 174 506Q174 666 229 809T385 1055T624 1217T918 1275Q1025 1275 1113 1234T1260 1118Q1378 967 1378 738Q1378 563 1309 409T1110 145Q979 34 811 -7Q824 -63
846 -101T908 -174Q989 -243 1180 -276Q1173 -324 1158 -351Q1085 -386 984 -385Q856 -385 776 -298T695 -63Z" />
<glyph unicode="R" glyph-name="R" horiz-adv-x="1167" d="M1098 1138Q1154 1073 1155 979Q1155 862 1068 759Q979 656 824 601V599L956 349Q991 284 1021 232Q1044 191 1080 151Q1103 123 1150 98Q1174 85 1194 78L1223 68L1198 0Q1135 -22 1079 -22Q978 -22
907 47T784 253L675 538H510L445 126L619 83L600 0H78L94 74L262 121L417 1103L256 1133L280 1209Q567 1255 723 1256Q994 1255 1098 1138ZM523 629H682Q786 629 867 716T948 926Q948 1033 888 1102T726 1171Q700 1171 624 1168L609 1166L523 629Z" />
<glyph unicode="S" glyph-name="S" horiz-adv-x="913" d="M875 888L781 900L786 1092Q779 1123 735 1154T640 1186Q551 1186 492 1122T433 953Q433 860 526 783Q571 746 616 717Q757 624 806 579Q898 495 898 384Q898 295 857 216T744 84Q595 -25 409 -25Q309
-25 225 17T111 122L167 390L261 376L266 187Q287 136 333 107T448 78Q521 78 588 108Q662 142 693 212Q710 252 710 297Q710 374 639 438Q575 494 483 553Q393 610 328 680Q257 755 256 855Q256 1005 348 1113Q436 1216 562 1254Q622 1272 687 1272Q765 1272 832
1248T940 1171L875 888Z" />
<glyph unicode="T" glyph-name="T" horiz-adv-x="1112" d="M228 1246H1289L1204 908L1115 923V1155H825L660 114L830 81L811 0H294L311 74L478 121L642 1155H361L271 912L185 925L228 1246Z" />
<glyph unicode="U" glyph-name="U" horiz-adv-x="1358" d="M471 495Q461 433 461 384Q461 238 533 166T740 93Q857 93 935 142Q1003 184 1046 263Q1079 325 1099 410Q1105 436 1113 481L1215 1128L1050 1170L1065 1246H1521L1505 1170L1337 1132L1233 500Q1144
-26 659 -26Q544 -26 456 15Q400 41 363 81T301 187Q275 254 275 344Q275 400 285 470L390 1128L219 1170L237 1246H754L739 1170L570 1132L471 495Z" />
<glyph unicode="V" glyph-name="V" horiz-adv-x="1165" d="M510 -25L288 1128L157 1170L174 1246H680L665 1170L496 1132L657 251L1098 1128L931 1170L946 1246H1381L1366 1170L1236 1132L650 5L510 -25Z" />
<glyph unicode="W" glyph-name="W" horiz-adv-x="1692" d="M1095 -25L1006 953L576 5L425 -25L291 1128L167 1170L182 1246H667L647 1170L480 1132L577 273L999 1196L1165 1221L1246 288L1626 1128L1462 1170L1479 1246H1907L1891 1170L1767 1132L1241 5L1095 -25Z" />
<glyph unicode="X" glyph-name="X" horiz-adv-x="1147" d="M774 652L1016 114L1145 81L1123 0H640L660 74L825 121L637 523L291 114L462 81L443 0H12L31 74L152 121L581 609L334 1120L217 1170L235 1246H731L713 1170L548 1123L718 744L1037 1128L865 1170L883
1246H1315L1300 1170L1173 1132L774 652Z" />
<glyph unicode="Y" glyph-name="Y" horiz-adv-x="1057" d="M706 529L640 114L794 81L776 0H291L308 74L458 121L519 506L278 1128L156 1170L175 1246H653L635 1170L478 1132L670 639L998 1128L832 1170L847 1246H1270L1256 1170L1130 1132L706 529Z" />
<glyph unicode="Z" glyph-name="Z" horiz-adv-x="1095" d="M291 1246H1208L1196 1170L298 101H832L974 351L1065 336L983 0H86L93 104L969 1151H432L341 905L253 923L291 1246Z" />
<glyph unicode="[" glyph-name="bracketleft" horiz-adv-x="441" d="M350 -376L72 -377L333 1257H605L601 1168L457 1148L236 -260L375 -280L350 -376Z" />
<glyph unicode="\" glyph-name="backslash" horiz-adv-x="711" d="M382 1237L592 -364L463 -356L251 1246L382 1237Z" />
<glyph unicode="]" glyph-name="bracketright" horiz-adv-x="443" d="M-24 -376L-19 -280L127 -260L348 1148L211 1168L237 1257H509L251 -377L-24 -376Z" />
<glyph unicode="^" glyph-name="asciicircum" horiz-adv-x="751" d="M597 1252L827 825L764 789L536 1075H526L232 794L187 827L541 1239L597 1252Z" />
<glyph unicode="_" glyph-name="underscore" horiz-adv-x="842" d="M7 -26H838L810 -132H-21L7 -26Z" />
<glyph unicode="`" glyph-name="grave" horiz-adv-x="634" d="M164 1663L280 1701L412 1366L354 1332L164 1663Z" />
<glyph unicode="a" glyph-name="a" horiz-adv-x="855" d="M846 84L826 15Q757 -15 686 -15Q633 -15 600 10T567 83V94L570 132H558Q520 64 456 21T322 -22Q229 -22 175 57T120 275Q120 387 151 487T237 661Q345 808 493 862Q564 887 631 887Q761 887 816 852L833
834L762 379Q736 204 735 162Q735 128 744 114T778 96L846 84ZM661 748Q624 783 542 782Q468 782 406 713T313 535Q282 432 282 321Q282 106 403 106Q453 106 491 129T575 202L661 748Z" />
<glyph unicode="b" glyph-name="b" horiz-adv-x="866" d="M304 1145L170 1168L176 1244L452 1269L471 1246L408 844L381 723H393Q434 793 508 842T649 892Q714 892 768 842T851 710Q879 631 879 536Q879 384 812 256T625 52Q505 -23 360 -23Q297 -23 231 -3T128
50L304 1145ZM586 142Q661 207 693 338Q710 412 711 506Q711 632 648 709Q615 750 570 749Q514 749 474 730T385 667L299 154Q319 124 362 107T459 89Q524 89 586 142Z" />
<glyph unicode="c" glyph-name="c" horiz-adv-x="666" d="M447 93Q500 93 539 107T630 156L653 106Q605 46 531 8T385 -30Q261 -30 192 58T122 308Q122 411 152 507T232 676Q280 745 340 797T460 876Q520 902 572 902Q651 902 696 863T741 758Q741 710 702 679T602
644Q597 706 582 750Q564 807 523 807Q486 807 447 773T372 679Q337 618 316 526T294 331Q294 219 332 156T447 93Z" />
<glyph unicode="d" glyph-name="d" horiz-adv-x="854" d="M840 86L821 15Q735 -15 682 -15Q624 -15 594 9T562 74Q562 97 567 132H554Q516 64 452 21T318 -22Q119 -22 119 271Q119 374 149 473T231 646Q339 802 479 859Q548 887 614 887Q661 887 683 880H690L728
1158L586 1184L599 1257L875 1282L895 1259L758 380Q732 195 731 160Q731 127 740 115T774 98L840 86ZM657 746Q614 782 539 782Q465 782 404 714T312 540Q281 440 281 331Q281 214 311 160T405 106Q455 106 489 127T569 202L657 746Z" />
<glyph unicode="e" glyph-name="e" horiz-adv-x="733" d="M576 534Q598 579 597 653Q593 799 501 799Q443 799 389 729Q334 659 304 513L576 534ZM701 458L293 440Q286 397 285 349Q285 219 345 160Q402 103 491 103Q527 103 594 129T680 177L706 132Q665 69 577
20T397 -30Q323 -30 268 -2T182 76Q126 169 126 306Q126 462 182 596T339 811T561 892Q655 892 702 831T749 655Q749 548 701 458Z" />
<glyph unicode="f" glyph-name="f" horiz-adv-x="588" d="M854 1175Q854 1142 828 1114T752 1072Q741 1104 699 1132T615 1161Q556 1161 526 1093Q503 1041 489 958L476 875H663L638 786H462L355 109L563 79L545 0H50L67 76L191 109L297 786H178L194 854L313 890Q335
996 393 1088T531 1235Q610 1289 687 1289Q768 1289 811 1261T854 1175Z" />
<glyph unicode="g" glyph-name="g" horiz-adv-x="830" d="M347 553Q347 479 378 430T455 380Q524 380 569 458T615 662Q615 738 591 781T523 824Q449 824 398 746T347 553ZM534 151Q780 151 781 0Q781 -65 751 -126T666 -235Q554 -334 418 -369Q351 -387 289 -387Q119
-387 39 -308Q-5 -264 -5 -202Q-5 -68 189 18V26Q147 48 130 74T111 146Q111 187 176 244T308 328L309 336Q264 348 223 413T182 550Q182 638 238 720T385 851Q470 898 556 898Q656 898 713 835L925 850L941 827L887 716H870L751 756L749 739Q764 689 764 632Q764
548 710 470T572 347Q491 303 417 303Q377 303 347 313L329 294Q312 277 309 272Q303 264 301 261Q295 253 293 246Q293 245 291 240T287 232Q281 217 281 199Q281 168 316 159Q348 151 447 151H534ZM253 3Q251 1 246 -2Q226 -17 207 -48Q182 -89 182 -149Q182
-280 352 -280Q463 -280 532 -225T602 -76Q602 -33 554 -15Q507 3 392 3H253Z" />
<glyph unicode="h" glyph-name="h" horiz-adv-x="899" d="M768 101L892 73L871 0H600L684 526Q692 581 692 619Q692 746 605 746Q564 746 525 733T463 702T418 663L328 103L451 71L433 0H27L49 74L170 108L335 1145L201 1168L211 1244L486 1269L507 1246L444 847L416
723H428Q484 797 559 846T712 895Q859 895 859 715Q859 660 851 614L768 101Z" />
<glyph unicode="i" glyph-name="i" horiz-adv-x="497" d="M566 1198Q566 1148 530 1112T444 1075T359 1111T324 1199Q324 1245 359 1278T443 1311Q493 1311 529 1278T566 1198ZM202 106L303 748L172 769L182 845L457 870L476 847L361 103L486 71L470 0H61L79 73L202 106Z" />
<glyph unicode="j" glyph-name="j" horiz-adv-x="441" d="M420 1313Q472 1313 510 1278T549 1193Q549 1142 511 1104T420 1065Q370 1065 334 1104T298 1196Q298 1243 335 1278T420 1313ZM-84 -308Q138 -146 174 99L277 749L144 771L154 847L428 872L450 849L329
86Q317 10 285 -63T213 -189Q177 -235 129 -277T40 -346Q0 -371 -35 -387L-84 -308Z" />
<glyph unicode="k" glyph-name="k" horiz-adv-x="861" d="M405 435L409 452L672 771L549 804L564 875H945L923 799L791 766L551 488L601 384Q608 368 625 331L668 238Q683 206 709 165Q725 140 754 112Q776 92 811 81Q825 75 847 73L882 68L860 0Q841 -6 797 -13T726
-20Q660 -20 611 23Q570 59 519 169Q498 212 467 288L405 435ZM170 108L336 1145L203 1166L215 1242L486 1267L510 1244L329 104L455 73L438 0H30L46 74L170 108Z" />
<glyph unicode="l" glyph-name="l" horiz-adv-x="466" d="M170 108L335 1145L203 1166L214 1242L486 1267L507 1244L328 104L456 73L438 0H29L47 74L170 108Z" />
<glyph unicode="m" glyph-name="m" horiz-adv-x="1367" d="M1242 101L1366 73L1345 0H1082L1070 13L1150 526Q1158 584 1158 622Q1158 748 1082 748Q974 748 890 663Q878 578 867 510L842 352L802 103L926 74L905 0H642L630 15L713 526Q723 583 723 630Q723 747
645 748Q544 748 457 663L369 104L491 73L473 0H63L84 76L205 109L301 743L170 764L184 847L465 872L486 849L455 723H467Q493 768 566 825Q604 856 653 875T751 895Q817 895 855 857T893 744V731H905Q1029 895 1183 895Q1257 895 1291 852T1325 718Q1325 674 1317
614L1242 101Z" />
<glyph unicode="n" glyph-name="n" horiz-adv-x="927" d="M799 104L923 76L902 3H635L624 15L706 526Q718 610 718 639Q718 697 698 720T635 744Q534 744 452 665L362 106L485 74L467 0H63L84 74L205 108L301 743L170 764L184 847L462 872L483 849L448 723H460Q512
792 594 843T748 895T853 855T888 723Q888 678 878 614L799 104Z" />
<glyph unicode="o" glyph-name="o" horiz-adv-x="842" d="M655 310Q685 424 685 550Q685 675 649 746T548 817Q489 817 442 776T365 663Q306 517 306 323Q306 168 366 89Q397 48 438 48Q507 48 565 120T655 310ZM728 151Q668 70 583 22T405 -26Q316 -26 251 20T154
148Q123 228 122 329Q122 432 157 535T255 718Q317 799 405 847T591 895Q723 895 788 803T854 536Q854 433 821 332T728 151Z" />
<glyph unicode="p" glyph-name="p" horiz-adv-x="905" d="M129 -261L275 746L142 768L154 844L432 872L452 849L420 721H432Q466 786 540 839T678 892Q777 892 846 788T915 533Q915 409 875 303T767 126Q700 57 615 20T440 -18Q375 -18 347 -7L369 108Q383 101
411 95T457 89Q511 89 557 103Q588 112 612 127T661 172Q711 231 730 346Q741 407 741 486Q741 603 703 675T609 748Q553 748 515 730T422 662L283 -263L438 -294L420 -366L-12 -369L8 -294L129 -261Z" />
<glyph unicode="q" glyph-name="q" horiz-adv-x="828" d="M512 -258L659 746Q600 781 545 781Q485 781 434 739T350 626Q285 485 285 331Q285 231 316 167T401 103Q487 103 542 147L550 96Q505 37 450 8T312 -22Q221 -22 169 57T117 265Q117 362 144 456T223 628Q328
791 471 854Q545 885 616 885Q680 885 720 865L820 880L836 873L668 -263L803 -294L785 -366H338L358 -291L512 -258Z" />
<glyph unicode="r" glyph-name="r" horiz-adv-x="621" d="M203 108L303 743L170 764L182 847L457 872L478 849L432 658H447Q526 893 635 893Q667 893 690 869T713 811Q713 771 697 732T658 682Q638 694 623 696T571 698Q541 698 502 659T437 569L357 106L531 74L513
0H63L84 74L203 108Z" />
<glyph unicode="s" glyph-name="s" horiz-adv-x="650" d="M680 764Q680 698 647 660T551 615L548 639Q533 828 448 827Q393 827 360 794T326 698Q326 604 433 513Q439 508 458 492T485 469T509 448T535 424T556 401T579 375T598 348Q629 298 629 245Q629 145 553
71Q479 2 390 -22Q345 -34 306 -35Q204 -35 143 10T81 122Q81 172 114 207T203 248Q250 54 346 55Q401 55 443 90T485 182Q485 242 377 325Q296 389 266 420Q234 455 212 494Q181 550 180 615Q180 668 205 720T273 815Q316 856 376 879T500 903Q583 903 631 867T680
764Z" />
<glyph unicode="t" glyph-name="t" horiz-adv-x="564" d="M476 1082L442 873H657L637 778H422L354 347Q341 259 341 233Q341 183 356 152T404 121Q480 121 559 154L572 103Q524 50 457 14T326 -22Q254 -22 216 22T177 152Q177 205 187 260L270 778H159L169 825Q233
870 287 929T412 1082H476Z" />
<glyph unicode="u" glyph-name="u" horiz-adv-x="906" d="M893 84L875 15Q806 -15 735 -15Q675 -15 645 13T615 99Q615 116 617 131H607Q576 75 502 28T344 -20Q190 -20 190 164Q190 205 199 265L271 748L141 771L151 845L433 870L453 847L374 376Q358 279 358
223T376 142T438 117Q536 117 619 200L701 748L567 771L577 845L864 870L883 847L807 371Q784 221 784 170Q784 131 793 116T827 96L893 84Z" />
<glyph unicode="v" glyph-name="v" horiz-adv-x="768" d="M323 -28L216 773L120 804L138 875H517L499 806L376 768L446 215L686 771L563 804L580 875H912L892 801L793 766L428 -10L323 -28Z" />
<glyph unicode="w" glyph-name="w" horiz-adv-x="1168" d="M659 811L793 829L853 347L858 215L1088 773L967 804L983 875H1309L1290 801L1194 768L856 -12L750 -30L671 604L411 -12L295 -30L219 773L122 804L140 875H494L476 801L355 768L404 362L413 227L659 811Z" />
<glyph unicode="x" glyph-name="x" horiz-adv-x="856" d="M750 104L845 69L826 0H431L451 69L573 104L459 352L259 106L386 71L366 0H19L39 69L133 104L421 435L267 773L171 802L189 873H570L550 804L433 773L545 536L732 769L628 802L646 873H959L937 802L838
766L578 465L750 104Z" />
<glyph unicode="y" glyph-name="y" horiz-adv-x="832" d="M467 225L748 771L625 804L645 875H979L959 801L864 769L435 -53Q339 -237 259 -308T74 -380Q9 -380 -23 -350T-56 -268Q-56 -197 15 -141Q83 -196 157 -195Q206 -195 243 -166T326 -50L344 -15L217 773L122
804L139 875H524L506 806L382 766L467 225Z" />
<glyph unicode="z" glyph-name="z" horiz-adv-x="746" d="M179 634L227 875H806L796 807L245 88H548L663 251L726 243L647 0H68L76 79L619 791H333L245 622L179 634Z" />
<glyph unicode="{" glyph-name="braceleft" horiz-adv-x="528" d="M432 -278L423 -379H362Q262 -379 218 -325T174 -165Q174 -103 192 24T210 208Q210 287 187 330T109 382L60 390L74 490L124 498Q182 508 222 554T283 672Q304 746 316 818Q353 1023 395 1116Q425
1182 481 1219T620 1257H678L653 1158L614 1151Q548 1140 521 1013Q509 955 499 888Q474 716 436 618Q411 554 366 508T258 445L256 438Q323 418 351 362T380 213Q380 144 361 11Q341 -121 341 -169Q341 -265 399 -273L432 -278Z" />
<glyph unicode="|" glyph-name="bar" horiz-adv-x="381" d="M191 -364L77 -351L332 1257L446 1246L191 -364Z" />
<glyph unicode="}" glyph-name="braceright" horiz-adv-x="527" d="M9 -278L42 -273Q114 -262 143 -134Q154 -89 167 -8Q192 157 232 265Q256 329 301 375T409 438L411 445Q289 481 289 658Q289 723 310 861T332 1046Q332 1096 321 1121T280 1151L241 1158L249
1257H309Q419 1257 458 1194Q494 1135 494 1039Q494 979 476 849Q459 719 459 665Q459 591 483 550T562 498L608 490L593 390L540 382Q449 368 407 268Q375 193 349 45Q321 -120 293 -192Q246 -314 162 -354Q111 -379 45 -379H-16L9 -278Z" />
<glyph unicode="~" glyph-name="asciitilde" horiz-adv-x="948" d="M164 414Q164 415 170 435Q192 500 223 543Q244 572 275 592T341 612H354L801 567H806Q822 567 841 581T875 614L887 629L951 627Q950 625 948 618T945 605Q939 587 923 553T889 495Q867 465
835 444T768 423Q764 423 761 424T753 425L306 470H301Q284 470 264 454T230 418L218 400L164 414Z" />
<glyph unicode="&#xa0;" glyph-name="nbspace" horiz-adv-x="397" />
<glyph unicode="&#xa1;" glyph-name="exclamdown" horiz-adv-x="412" d="M317 685Q272 685 243 717T214 792Q214 852 253 891T352 931Q392 931 424 898T457 825Q457 765 417 725T317 685ZM249 541L335 521V518Q280 -169 251 -354L249 -357Q242 -374 198 -385T110
-397Q86 -397 69 -389T52 -362V-357Q83 -154 249 534V541Z" />
<glyph unicode="&#xa2;" glyph-name="cent" horiz-adv-x="845" d="M742 1037L701 897Q790 888 828 855T866 761Q866 716 826 682T724 642Q722 679 706 718T659 781L464 104Q504 86 565 86Q622 86 671 103T783 156Q791 141 797 99Q723 32 641 1T456 -30Q438 -30
424 -28L400 -114L277 -134L317 0Q219 50 178 146Q142 233 141 334Q141 423 167 508T241 660Q332 791 462 855Q522 885 583 895L620 1016L742 1037ZM567 804Q486 783 417 663T347 407Q347 323 355 280T391 184L567 804Z" />
<glyph unicode="&#xa3;" glyph-name="sterling" horiz-adv-x="1148" d="M1035 897L952 910L944 1123Q905 1146 863 1146Q766 1146 711 1089Q661 1036 623 880Q605 806 586 705L578 657L801 670L773 569L562 556L553 516Q500 217 426 99L888 96L1058 349L1141 331L1051
0H60L80 74L254 121Q285 187 303 255T348 462L363 549L183 539L211 640L383 650L408 787Q453 1026 587 1141Q715 1252 889 1252Q1028 1252 1117 1213L1035 897Z" />
<glyph unicode="&#xa4;" glyph-name="currency" horiz-adv-x="815" d="M510 672Q437 672 382 614T327 475Q327 391 357 353T456 314Q530 314 588 371T646 506Q646 591 614 631T510 672ZM145 255L241 333Q224 368 219 387T214 443Q214 475 237 538T282 629L206
715L304 797L366 710Q403 737 448 753T530 769Q572 769 612 756T679 720L770 799L833 711L736 637Q748 610 751 594T754 536Q754 481 734 429T682 342L763 256L663 174L598 265Q510 217 434 217Q370 217 307 258L216 169L145 255Z" />
<glyph unicode="&#xa5;" glyph-name="yen" horiz-adv-x="1137" d="M543 473H235L263 579H528L374 1128L242 1170L268 1246H736L711 1170L574 1132L706 642L1002 1128L850 1170L873 1246H1270L1247 1170L1118 1132L776 579H1080L1052 473H736L716 346H1041L1011
240H698L678 114L837 81L816 0H308L329 74L486 121L505 240H194L223 346H523L543 473Z" />
<glyph unicode="&#xa6;" glyph-name="brokenbar" horiz-adv-x="377" d="M78 -351L202 432L311 420L187 -364L78 -351ZM218 541L333 1257L442 1246L323 529L218 541Z" />
<glyph unicode="&#xa7;" glyph-name="section" horiz-adv-x="801" d="M864 892L766 903L770 1096Q759 1128 715 1159T615 1191Q534 1191 475 1143T401 1002Q399 986 399 970Q399 920 426 879T496 806T592 745T696 683T792 614T863 524T891 408Q891 379 887 356Q882
325 874 302L502 530Q385 599 347 629Q223 723 212 845Q211 857 211 869Q211 898 215 921Q232 1030 302 1113T467 1236T663 1277Q826 1277 931 1176L864 892ZM493 408Q515 395 556 371T624 331T686 291T744 243T789 190T821 124T831 47Q831 18 827 -5Q814 -89 765
-161T646 -282T491 -358T320 -385Q217 -385 132 -343T5 -237L60 31L161 17L170 -173Q192 -219 242 -251T360 -283Q402 -283 444 -271T526 -234T595 -168T632 -72Q634 -58 634 -45Q634 -5 614 30T559 91T482 145T393 198T304 255T227 322T172 404T151 509Q151 538
156 561Q159 584 167 610L493 408Z" />
<glyph unicode="&#xa8;" glyph-name="dieresis" horiz-adv-x="687" d="M564 1467Q564 1432 538 1409T476 1386Q441 1386 417 1409T392 1467T417 1523T476 1545Q512 1545 538 1523T564 1467ZM294 1467Q294 1432 269 1409T208 1386Q173 1386 149 1409T124 1467T149
1523T208 1545Q244 1545 269 1523T294 1467Z" />
<glyph unicode="&#xa9;" glyph-name="copyright" horiz-adv-x="1404" d="M1261 1001Q1189 1123 1052 1168Q978 1193 887 1193Q693 1193 541 1079Q376 956 313 749Q279 636 280 510Q280 360 342 252Q409 134 545 91Q615 68 706 68Q904 68 1060 181Q1227 302 1291
508Q1325 620 1325 744Q1326 892 1261 1001ZM1254 1176Q1378 1076 1420 919Q1439 845 1439 766Q1439 617 1398 488T1284 263Q1212 170 1116 104T910 6Q799 -26 683 -26Q578 -26 491 2T342 81Q222 179 183 338Q164 412 164 493Q164 730 272 913Q376 1090 544 1187Q713
1284 900 1284Q1008 1284 1099 1255T1254 1176ZM773 362Q853 362 923 415L943 372Q905 324 844 293T723 261Q621 261 564 335T506 539Q506 623 530 702T596 842Q678 960 784 1006Q834 1028 877 1027Q942 1027 979 995T1016 908Q1016 869 983 845T900 816Q896 890
872 926Q857 949 835 950Q765 950 706 835T646 557Q646 465 678 414T773 362Z" />
<glyph unicode="&#xaa;" glyph-name="ordfeminine" horiz-adv-x="541" d="M167 346H506L490 288H151L167 346ZM400 577Q330 567 302 547T273 490Q273 450 311 450Q352 450 387 493L400 577ZM500 417Q499 417 496 416T489 415T483 414Q462 409 445 409Q419 409
404 421T389 453Q389 455 389 458T390 463V468H385Q372 444 338 426T266 407Q235 407 218 423T200 467Q200 520 248 553T404 605L409 632Q412 655 412 670Q412 738 359 738Q340 738 326 725Q319 719 309 688Q306 676 301 660Q251 660 251 693Q251 725 300 751T399
778Q442 778 461 758T481 695Q481 680 478 653L455 508Q453 496 453 488Q453 472 461 465T491 455L511 452L500 417Z" />
<glyph unicode="&#xab;" glyph-name="guillemotleft" horiz-adv-x="652" d="M342 470L667 822L703 763L490 462L607 141L544 78L342 450V470ZM94 470L419 822L455 763L242 462L359 141L296 78L94 450V470Z" />
<glyph unicode="&#xac;" glyph-name="logicalnot" horiz-adv-x="969" d="M216 665H962L914 351L805 333L841 559H188L216 665Z" />
<glyph unicode="&#xad;" glyph-name="softhyphen" horiz-adv-x="641" d="M199 523L608 582L600 467L191 407L199 523Z" />
<glyph unicode="&#xae;" glyph-name="registered" horiz-adv-x="598" d="M696 1118Q696 993 616 916T421 839Q332 839 284 889T236 1019Q236 1106 274 1174T373 1277Q431 1310 500 1310Q593 1310 644 1256T696 1118ZM495 1279Q404 1279 341 1210T277 1029Q277
960 316 916T429 872Q557 872 624 982Q658 1038 658 1115Q658 1187 615 1233T495 1279ZM434 1087H469Q486 1087 499 1105T512 1148Q512 1188 464 1188L449 1186L434 1087ZM563 1155Q563 1134 546 1114T497 1082L529 1027Q551 986 578 974L585 973L577 955Q568 952
552 951Q510 951 486 1006L461 1062H429L418 983L451 973L446 955H330L335 973L371 981L403 1180L368 1186L373 1204Q443 1211 462 1211Q518 1211 540 1199T563 1155Z" />
<glyph unicode="&#xaf;" glyph-name="overscore" horiz-adv-x="702" d="M137 1481H579L566 1381H124L137 1481Z" />
<glyph unicode="&#xb0;" glyph-name="degree" horiz-adv-x="435" d="M409 1239Q365 1239 334 1198T303 1102Q303 1055 322 1027T380 998Q426 998 456 1036T486 1145Q486 1183 467 1211T409 1239ZM428 1287Q501 1287 530 1259T559 1160Q559 1086 496 1018T361 950Q298
950 263 986T228 1079Q228 1164 289 1225T428 1287Z" />
<glyph unicode="&#xb1;" glyph-name="plusminus" horiz-adv-x="799" d="M141 117L755 124L722 20L108 13L141 117ZM502 476L466 240L356 251L393 476H171L198 577H408L444 809L550 797L517 577H737L711 476H502Z" />
<glyph unicode="&#xb2;" glyph-name="twosuperior" horiz-adv-x="320" d="M304 1198Q282 1200 275 1206T268 1227Q268 1254 303 1279T372 1304Q403 1304 420 1286T438 1236Q438 1198 415 1169T329 1090L285 1055H417L402 1012H225L228 1044L329 1130Q382 1173
382 1227Q382 1270 347 1270Q316 1271 304 1198Z" />
<glyph unicode="&#xb3;" glyph-name="threesuperior" horiz-adv-x="320" d="M276 1133Q277 1133 285 1136Q305 1141 319 1146Q336 1153 358 1172Q378 1189 382 1219Q382 1222 383 1224T384 1231Q384 1248 374 1259T346 1270T315 1253T296 1201Q260 1203 260 1226V1231Q265
1261 301 1282T369 1304Q398 1304 416 1287T435 1244Q435 1241 434 1239T433 1232Q430 1204 410 1178T361 1136V1132Q390 1124 406 1104T422 1057Q422 1053 421 1050T420 1042Q413 1001 379 971T301 940Q259 940 240 954T220 989V996Q222 1010 236 1019T265 1031Q265
993 275 979Q283 969 301 969Q327 969 344 987T366 1034Q366 1038 366 1040T367 1047Q367 1072 352 1089T313 1107Q304 1107 295 1106T276 1105V1122V1132V1133Z" />
<glyph unicode="&#xb4;" glyph-name="acute" horiz-adv-x="619" d="M465 1669L281 1352L230 1383L352 1709L465 1669Z" />
<glyph unicode="&#xb5;" glyph-name="micro" horiz-adv-x="911" d="M612 131Q582 76 511 28T366 -20Q273 -20 245 23H237Q237 -24 228 -101L202 -389L78 -362Q78 -361 79 -354T84 -329T92 -293L164 73Q209 299 240 495L278 738L146 773L156 849L433 870L455 845L369
316Q361 261 361 228Q361 170 381 144T443 117Q541 117 624 200L706 748L572 771L582 845L868 870L888 847L812 371Q789 221 789 170Q789 131 798 116T832 96L898 84L880 15Q811 -15 739 -15Q679 -15 650 13T620 99Q620 116 622 131H612Z" />
<glyph unicode="&#xb6;" glyph-name="paragraph" horiz-adv-x="1325" d="M1059 1136L1036 1132L873 114L895 111L935 121L1095 1128L1059 1136ZM1446 1246L1423 1170L1247 1132L1085 114L1262 81L1241 0H514L534 74L708 121L766 486Q701 481 635 481Q427 481 315
543Q188 612 189 787Q189 886 233 975T353 1123Q427 1182 518 1214T700 1247L1446 1246ZM781 581L872 1155Q817 1157 766 1156Q595 1156 498 1070T400 821Q400 742 432 686Q468 621 557 594Q606 579 668 579L776 586L781 581Z" />
<glyph unicode="&#xb7;" glyph-name="middot" horiz-adv-x="430" d="M313 619Q360 619 387 588T414 507T371 420T275 382Q176 382 175 486Q175 543 216 581T313 619Z" />
<glyph unicode="&#xb8;" glyph-name="cedilla" horiz-adv-x="384" d="M213 -76Q302 -154 303 -227Q303 -330 103 -390L83 -331Q124 -317 146 -295T169 -248Q169 -207 96 -137L194 3H268L213 -76Z" />
<glyph unicode="&#xb9;" glyph-name="onesuperior" horiz-adv-x="270" d="M364 1292L326 1046L379 1036L371 1011H217L223 1034L276 1047L308 1246H261L266 1269L356 1292H364Z" />
<glyph unicode="&#xba;" glyph-name="ordmasculine" horiz-adv-x="551" d="M172 346H511L495 288H156L172 346ZM285 550Q285 501 302 472T356 442Q399 442 428 490T458 619Q458 733 387 733Q342 733 314 686T285 550ZM490 743Q510 717 514 654Q516 623 516 592Q516
511 464 457T339 402Q208 402 208 546Q208 615 239 669T318 749Q363 774 409 774Q465 774 490 743Z" />
<glyph unicode="&#xbb;" glyph-name="guillemotright" horiz-adv-x="652" d="M457 470L453 450L132 78L89 141L309 462L192 763L245 822L457 470ZM705 470L701 450L380 78L337 141L557 462L440 763L493 822L705 470Z" />
<glyph unicode="&#xbc;" glyph-name="onequarter" horiz-adv-x="1050" d="M786 -5L804 144H608L602 174L888 481L914 473Q902 404 886 275L876 193H979L966 142H870L853 6L786 -5ZM808 193L830 366L672 193H808ZM395 981L342 551L451 538L443 505H151L157 534L274
553L318 919H210L216 950L385 981H395ZM971 965L1053 974L240 -22L155 -30L971 965Z" />
<glyph unicode="&#xbd;" glyph-name="onehalf" horiz-adv-x="1052" d="M950 0H637L640 41L748 123Q793 159 822 185T879 252T912 330Q914 340 913 358Q913 432 843 432Q777 432 723 329L691 342Q711 397 763 441T873 486Q989 486 989 376Q989 368 988 348Q984
316 967 285T922 224T871 174T811 126T762 86L720 56H914L960 126L988 122L950 0ZM415 981L362 551L471 538L462 505H170L177 534L294 553L338 919H230L236 950L404 981H415ZM971 965L1053 974L240 -22L155 -30L971 965Z" />
<glyph unicode="&#xbe;" glyph-name="threequarters" horiz-adv-x="1050" d="M216 587Q216 571 237 548T284 525Q379 525 392 621Q392 623 392 626T393 630Q393 666 363 695T282 725H275V751Q292 756 314 767T368 806T403 867Q404 871 404 878Q404 904 389 920T342
936Q287 936 254 875L226 886Q237 922 280 955T373 989Q417 989 447 964T478 900Q478 893 477 888Q472 843 441 813T367 766V762Q413 755 440 726T467 658Q467 650 466 645Q458 580 398 535T258 490Q211 490 186 505T160 543Q160 560 175 572T216 587ZM786 -5L804
144H608L602 174L888 481L914 473Q902 404 886 275L876 193H979L966 142H870L853 6L786 -5ZM808 193L830 366L672 193H808ZM971 965L1053 974L240 -22L155 -30L971 965Z" />
<glyph unicode="&#xbf;" glyph-name="questiondown" horiz-adv-x="672" d="M486 690Q441 690 413 722T384 797Q384 857 423 896T521 936Q561 936 594 902T627 830Q627 770 587 730T486 690ZM572 -242Q572 -288 522 -334Q496 -358 451 -372T352 -387Q233 -387 151
-284T69 -26Q69 102 140 170Q195 223 285 267Q316 283 334 292T373 318T406 353Q425 382 425 420Q425 466 419 519L495 536Q540 453 539 361Q539 253 467 197Q419 159 318 114Q273 94 244 74T196 23Q175 -10 175 -55Q175 -120 217 -166T311 -213Q436 -213 514 -141Q540
-152 556 -179T572 -242Z" />
<glyph unicode="&#xc0;" glyph-name="Agrave" horiz-adv-x="1159" d="M874 1270L1063 124L1187 81L1169 0H684L704 74L876 129L820 433H419L266 124L436 81L414 0H-32L-14 74L135 129L727 1239L874 1270ZM471 534H806L727 1036L471 534ZM611 1663L727 1701L859
1366L801 1332L611 1663Z" />
<glyph unicode="&#xc1;" glyph-name="Aacute" horiz-adv-x="1159" d="M874 1270L1063 124L1187 81L1169 0H684L704 74L876 129L820 433H419L266 124L436 81L414 0H-32L-14 74L135 129L727 1239L874 1270ZM471 534H806L727 1036L471 534ZM1035 1669L851 1352L800
1383L922 1709L1035 1669Z" />
<glyph unicode="&#xc2;" glyph-name="Acircumflex" horiz-adv-x="1159" d="M874 1270L1063 124L1187 81L1169 0H684L704 74L876 129L820 433H419L266 124L436 81L414 0H-32L-14 74L135 129L727 1239L874 1270ZM471 534H806L727 1036L471 534ZM831 1583L1010 1397L960
1361L797 1471H787L646 1360L608 1390L777 1570L831 1583Z" />
<glyph unicode="&#xc3;" glyph-name="Atilde" horiz-adv-x="1159" d="M874 1270L1063 124L1187 81L1169 0H684L704 74L876 129L820 433H419L266 124L436 81L414 0H-32L-14 74L135 129L727 1239L874 1270ZM471 534H806L727 1036L471 534ZM577 1381Q579 1386 579
1390Q584 1410 597 1438Q614 1474 636 1497Q664 1525 699 1525Q703 1525 705 1525T712 1524L935 1494H939Q950 1494 964 1504T987 1525L995 1535L1043 1534Q1042 1532 1041 1526T1039 1518Q1026 1477 999 1440Q962 1390 912 1390H901L677 1421H674Q662 1421 647
1410T623 1385L615 1373L577 1381Z" />
<glyph unicode="&#xc4;" glyph-name="Adieresis" horiz-adv-x="1159" d="M874 1270L1063 124L1187 81L1169 0H684L704 74L876 129L820 433H419L266 124L436 81L414 0H-32L-14 74L135 129L727 1239L874 1270ZM471 534H806L727 1036L471 534ZM1030 1467Q1030 1432
1004 1409T942 1386Q907 1386 883 1409T858 1467T883 1523T942 1545Q978 1545 1004 1523T1030 1467ZM760 1467Q760 1432 735 1409T674 1386Q639 1386 615 1409T590 1467T615 1523T674 1545Q710 1545 735 1523T760 1467Z" />
<glyph unicode="&#xc5;" glyph-name="Aring" horiz-adv-x="1159" d="M874 1270L1063 124L1187 81L1169 0H684L704 74L876 129L820 433H419L266 124L436 81L414 0H-32L-14 74L135 129L727 1239L874 1270ZM471 534H806L727 1036L471 534ZM719 1542Q719 1489 745
1451T815 1413Q856 1413 878 1442T901 1527Q901 1581 875 1617T805 1654Q764 1654 742 1623T719 1542ZM972 1613T972 1540T924 1416T803 1365Q733 1365 691 1409T648 1530Q648 1600 697 1651T816 1702Q887 1702 929 1658Z" />
<glyph unicode="&#xc6;" glyph-name="AE" horiz-adv-x="1617" d="M936 1060L566 567H857L936 1060ZM844 473H501L241 126L412 83L390 0H-45L-26 76L111 131L968 1246H1707L1628 930L1548 943L1543 1155H1127L1050 682H1297L1357 804L1449 811L1357 425L1270 410L1267
587H1036L958 96H1401L1532 329L1606 314L1529 0H1074H652H602L622 74L784 119L789 121L844 473Z" />
<glyph unicode="&#xc7;" glyph-name="Ccedilla" horiz-adv-x="1149" d="M682 -76Q771 -155 771 -227Q771 -330 571 -390L551 -331Q592 -317 614 -295T637 -248Q637 -207 564 -137L642 -25Q444 -21 310 108Q244 171 207 268T169 483Q169 629 228 780Q293 948 407
1063Q539 1197 706 1246Q800 1272 902 1272Q1119 1272 1229 1171L1146 839L1065 852L1062 1072Q1034 1121 974 1148T829 1176Q742 1176 661 1130T517 1002Q453 918 417 798T380 539Q380 432 409 348T490 211Q593 106 744 106Q927 106 1092 258L1130 203Q962 6 720
-22L682 -76Z" />
<glyph unicode="&#xc8;" glyph-name="Egrave" horiz-adv-x="1135" d="M271 1246H1226L1146 926L1065 940L1060 1155H609L534 678H812L873 797L964 811L872 422L787 409L782 584H519L442 96H916L1047 326L1125 314L1046 0H83L98 74L263 121L422 1128L255 1170L271
1246ZM677 1663L792 1701L925 1366L867 1332L677 1663Z" />
<glyph unicode="&#xc9;" glyph-name="Eacute" horiz-adv-x="1135" d="M271 1246H1226L1146 926L1065 940L1060 1155H609L534 678H812L873 797L964 811L872 422L787 409L782 584H519L442 96H916L1047 326L1125 314L1046 0H83L98 74L263 121L422 1128L255 1170L271
1246ZM1026 1669L842 1352L791 1383L913 1709L1026 1669Z" />
<glyph unicode="&#xca;" glyph-name="Ecircumflex" horiz-adv-x="1135" d="M271 1246H1226L1146 926L1065 940L1060 1155H609L534 678H812L873 797L964 811L872 422L787 409L782 584H519L442 96H916L1047 326L1125 314L1046 0H83L98 74L263 121L422 1128L255 1170L271
1246ZM822 1583L1001 1397L951 1361L787 1471H778L637 1360L599 1390L768 1570L822 1583Z" />
<glyph unicode="&#xcb;" glyph-name="Edieresis" horiz-adv-x="1135" d="M271 1246H1226L1146 926L1065 940L1060 1155H609L534 678H812L873 797L964 811L872 422L787 409L782 584H519L442 96H916L1047 326L1125 314L1046 0H83L98 74L263 121L422 1128L255 1170L271
1246ZM1020 1467Q1020 1432 995 1409T933 1386Q898 1386 874 1409T849 1467T874 1523T933 1545Q969 1545 994 1523T1020 1467ZM751 1467Q751 1432 726 1409T665 1386Q630 1386 606 1409T581 1467T606 1523T665 1545Q701 1545 726 1523T751 1467Z" />
<glyph unicode="&#xcc;" glyph-name="Igrave" horiz-adv-x="670" d="M596 0H83L98 74L263 121L422 1128L255 1170L271 1246H791L774 1170L605 1132L445 114L615 81L596 0ZM341 1663L457 1701L589 1366L531 1332L341 1663Z" />
<glyph unicode="&#xcd;" glyph-name="Iacute" horiz-adv-x="670" d="M596 0H83L98 74L263 121L422 1128L255 1170L271 1246H791L774 1170L605 1132L445 114L615 81L596 0ZM756 1669L572 1352L521 1383L644 1709L756 1669Z" />
<glyph unicode="&#xce;" glyph-name="Icircumflex" horiz-adv-x="670" d="M596 0H83L98 74L263 121L422 1128L255 1170L271 1246H791L774 1170L605 1132L445 114L615 81L596 0ZM569 1583L748 1397L698 1361L534 1471H524L384 1360L346 1390L514 1570L569 1583Z" />
<glyph unicode="&#xcf;" glyph-name="Idieresis" horiz-adv-x="670" d="M596 0H83L98 74L263 121L422 1128L255 1170L271 1246H791L774 1170L605 1132L445 114L615 81L596 0ZM768 1467Q768 1432 742 1409T680 1386T621 1409T596 1467T621 1523T680 1545Q716 1545
742 1523T768 1467ZM498 1467Q498 1432 473 1409T412 1386T353 1409T328 1467T353 1523T412 1545Q448 1545 473 1523T498 1467Z" />
<glyph unicode="&#xd0;" glyph-name="Eth" horiz-adv-x="1350" d="M514 562L442 104H582Q709 104 821 153T1009 286Q1084 370 1126 478T1168 705Q1168 903 1061 1026Q1007 1089 921 1123T725 1158Q665 1158 607 1151L529 662L817 675L789 574L514 562ZM1189 1163Q1255
1119 1300 1056T1365 921Q1383 852 1383 769Q1383 528 1230 331Q1070 124 814 43Q679 0 526 0H73L93 74L265 129L333 554L180 548L207 648L347 655L419 1105L258 1135L278 1211Q583 1261 778 1261Q1040 1261 1189 1163Z" />
<glyph unicode="&#xd1;" glyph-name="Ntilde" horiz-adv-x="1359" d="M993 -30L517 963L383 114L555 81L537 0H84L98 74L264 121L421 1120L256 1170L272 1246H606L1066 273L1200 1128L1030 1170L1048 1246H1501L1483 1170L1318 1132L1139 0L993 -30ZM651 1381Q653
1386 653 1390Q658 1410 672 1438Q689 1474 711 1497Q739 1525 773 1525Q777 1525 779 1525T787 1524L1010 1494H1013Q1024 1494 1038 1504T1061 1525L1069 1535L1117 1534Q1116 1532 1115 1526T1113 1518Q1100 1477 1074 1440Q1037 1390 987 1390H975L752 1421H749Q737
1421 722 1410T697 1385L689 1373L651 1381Z" />
<glyph unicode="&#xd2;" glyph-name="Ograve" horiz-adv-x="1341" d="M1079 1031Q1043 1100 982 1139T844 1178Q765 1178 697 1155T581 1092Q537 1055 502 1000T446 886Q407 776 398 642Q394 582 394 529Q394 379 438 270Q488 148 583 104Q633 79 698 79Q857 79
959 165Q1048 239 1096 370Q1135 480 1146 608Q1150 668 1150 715Q1149 895 1079 1031ZM1247 1115Q1364 961 1363 730Q1363 481 1236 291Q1102 90 882 14Q766 -27 634 -26Q497 -26 391 43T230 235Q175 356 175 506Q175 668 228 810T377 1056Q474 1159 611 1217T905
1275Q1013 1275 1101 1233T1247 1115ZM791 1666L907 1704L1039 1370L981 1335L791 1666Z" />
<glyph unicode="&#xd3;" glyph-name="Oacute" horiz-adv-x="1341" d="M1079 1031Q1043 1100 982 1139T844 1178Q765 1178 697 1155T581 1092Q537 1055 502 1000T446 886Q407 776 398 642Q394 582 394 529Q394 379 438 270Q488 148 583 104Q633 79 698 79Q857 79
959 165Q1048 239 1096 370Q1135 480 1146 608Q1150 668 1150 715Q1149 895 1079 1031ZM1247 1115Q1364 961 1363 730Q1363 481 1236 291Q1102 90 882 14Q766 -27 634 -26Q497 -26 391 43T230 235Q175 356 175 506Q175 668 228 810T377 1056Q474 1159 611 1217T905
1275Q1013 1275 1101 1233T1247 1115ZM1173 1672L989 1355L938 1386L1060 1712L1173 1672Z" />
<glyph unicode="&#xd4;" glyph-name="Ocircumflex" horiz-adv-x="1341" d="M1079 1031Q1043 1100 982 1139T844 1178Q765 1178 697 1155T581 1092Q537 1055 502 1000T446 886Q407 776 398 642Q394 582 394 529Q394 379 438 270Q488 148 583 104Q633 79 698 79Q857
79 959 165Q1048 239 1096 370Q1135 480 1146 608Q1150 668 1150 715Q1149 895 1079 1031ZM1247 1115Q1364 961 1363 730Q1363 481 1236 291Q1102 90 882 14Q766 -27 634 -26Q497 -26 391 43T230 235Q175 356 175 506Q175 668 228 810T377 1056Q474 1159 611 1217T905
1275Q1013 1275 1101 1233T1247 1115ZM936 1586L1115 1401L1065 1365L902 1474H892L751 1363L713 1393L882 1573L936 1586Z" />
<glyph unicode="&#xd5;" glyph-name="Otilde" horiz-adv-x="1341" d="M1079 1031Q1043 1100 982 1139T844 1178Q765 1178 697 1155T581 1092Q537 1055 502 1000T446 886Q407 776 398 642Q394 582 394 529Q394 379 438 270Q488 148 583 104Q633 79 698 79Q857 79
959 165Q1048 239 1096 370Q1135 480 1146 608Q1150 668 1150 715Q1149 895 1079 1031ZM1247 1115Q1364 961 1363 730Q1363 481 1236 291Q1102 90 882 14Q766 -27 634 -26Q497 -26 391 43T230 235Q175 356 175 506Q175 668 228 810T377 1056Q474 1159 611 1217T905
1275Q1013 1275 1101 1233T1247 1115ZM682 1385Q684 1390 684 1393Q689 1413 702 1442Q719 1478 741 1500Q769 1528 804 1529Q808 1529 810 1528T817 1527L1041 1497H1044Q1055 1497 1069 1507T1092 1529L1100 1538L1148 1537Q1147 1535 1146 1530T1144 1521Q1131
1480 1104 1443Q1067 1393 1017 1393H1006L782 1424H779Q767 1424 752 1413T728 1388L720 1376L682 1385Z" />
<glyph unicode="&#xd6;" glyph-name="Odieresis" horiz-adv-x="1341" d="M1079 1031Q1043 1100 982 1139T844 1178Q765 1178 697 1155T581 1092Q537 1055 502 1000T446 886Q407 776 398 642Q394 582 394 529Q394 379 438 270Q488 148 583 104Q633 79 698 79Q857
79 959 165Q1048 239 1096 370Q1135 480 1146 608Q1150 668 1150 715Q1149 895 1079 1031ZM1247 1115Q1364 961 1363 730Q1363 481 1236 291Q1102 90 882 14Q766 -27 634 -26Q497 -26 391 43T230 235Q175 356 175 506Q175 668 228 810T377 1056Q474 1159 611 1217T905
1275Q1013 1275 1101 1233T1247 1115ZM1135 1471Q1135 1436 1109 1413T1047 1390Q1012 1390 988 1413T963 1471Q963 1505 988 1526T1047 1548Q1083 1548 1109 1526T1135 1471ZM865 1471Q865 1436 840 1413T779 1390Q744 1390 720 1413T695 1471Q695 1505 720 1526T779
1548Q815 1548 840 1527T865 1471Z" />
<glyph unicode="&#xd7;" glyph-name="multiply" horiz-adv-x="655" d="M385 389L195 228L142 311L321 463L192 620L285 687L414 533L605 693L657 609L476 458L610 298L516 232L385 389Z" />
<glyph unicode="&#xd8;" glyph-name="Oslash" horiz-adv-x="1341" d="M471 204L1047 1080Q968 1178 844 1178Q765 1178 697 1155T581 1092Q492 1017 446 885Q407 773 398 640Q394 580 394 528Q394 344 464 217L471 204ZM1086 1019L513 151Q516 148 516 146Q516
135 473 124T388 104T345 91Q345 79 698 79Q857 79 959 165Q1048 239 1096 370Q1135 480 1146 608Q1150 668 1150 715Q1150 887 1086 1019ZM1247 1115Q1364 961 1363 730Q1363 481 1236 291Q1102 90 882 14Q766 -27 634 -26Q531 -26 446 12L389 -74L257 -83L356
68Q275 133 230 235Q175 356 175 506Q175 668 228 810T377 1056Q474 1159 611 1217T905 1275Q1022 1275 1117 1224L1160 1289L1294 1297L1205 1161Q1228 1140 1247 1115Z" />
<glyph unicode="&#xd9;" glyph-name="Ugrave" horiz-adv-x="1358" d="M471 495Q461 433 461 384Q461 238 533 166T740 93Q857 93 935 142Q1003 184 1046 263Q1079 325 1099 410Q1105 436 1113 481L1215 1128L1050 1170L1065 1246H1521L1505 1170L1337 1132L1233
500Q1144 -26 659 -26Q544 -26 456 15Q400 41 363 81T301 187Q275 254 275 344Q275 400 285 470L390 1128L219 1170L237 1246H754L739 1170L570 1132L471 495ZM801 1663L917 1701L1050 1366L992 1332L801 1663Z" />
<glyph unicode="&#xda;" glyph-name="Uacute" horiz-adv-x="1358" d="M471 495Q461 433 461 384Q461 238 533 166T740 93Q857 93 935 142Q1003 184 1046 263Q1079 325 1099 410Q1105 436 1113 481L1215 1128L1050 1170L1065 1246H1521L1505 1170L1337 1132L1233
500Q1144 -26 659 -26Q544 -26 456 15Q400 41 363 81T301 187Q275 254 275 344Q275 400 285 470L390 1128L219 1170L237 1246H754L739 1170L570 1132L471 495ZM1117 1661L934 1343L883 1375L1005 1701L1117 1661Z" />
<glyph unicode="&#xdb;" glyph-name="Ucircumflex" horiz-adv-x="1358" d="M471 495Q461 433 461 384Q461 238 533 166T740 93Q857 93 935 142Q1003 184 1046 263Q1079 325 1099 410Q1105 436 1113 481L1215 1128L1050 1170L1065 1246H1521L1505 1170L1337 1132L1233
500Q1144 -26 659 -26Q544 -26 456 15Q400 41 363 81T301 187Q275 254 275 344Q275 400 285 470L390 1128L219 1170L237 1246H754L739 1170L570 1132L471 495ZM947 1583L1126 1397L1076 1361L912 1471H902L762 1360L724 1390L892 1570L947 1583Z" />
<glyph unicode="&#xdc;" glyph-name="Udieresis" horiz-adv-x="1358" d="M471 495Q461 433 461 384Q461 238 533 166T740 93Q857 93 935 142Q1003 184 1046 263Q1079 325 1099 410Q1105 436 1113 481L1215 1128L1050 1170L1065 1246H1521L1505 1170L1337 1132L1233
500Q1144 -26 659 -26Q544 -26 456 15Q400 41 363 81T301 187Q275 254 275 344Q275 400 285 470L390 1128L219 1170L237 1246H754L739 1170L570 1132L471 495ZM1146 1467Q1146 1432 1120 1409T1058 1386T999 1409T974 1467T999 1523T1058 1545Q1094 1545 1120 1523T1146
1467ZM876 1467Q876 1432 851 1409T790 1386T731 1409T706 1467T731 1523T790 1545Q826 1545 851 1523T876 1467Z" />
<glyph unicode="&#xdd;" glyph-name="Yacute" horiz-adv-x="1057" d="M706 529L640 114L794 81L776 0H291L308 74L458 121L519 506L278 1128L156 1170L175 1246H653L635 1170L478 1132L670 639L998 1128L832 1170L847 1246H1270L1256 1170L1130 1132L706 529ZM991
1669L807 1352L756 1383L878 1709L991 1669Z" />
<glyph unicode="&#xde;" glyph-name="Thorn" horiz-adv-x="1084" d="M605 1132L591 1037Q656 1042 718 1042Q864 1042 964 1004Q1077 961 1120 864Q1143 812 1143 743Q1143 644 1103 556T992 406Q923 345 833 311T648 276Q598 276 541 285L534 367H586Q761 367
849 452T938 703Q938 821 874 890T687 959L584 955L577 951L445 114L615 81L596 0H83L98 74L263 121L422 1128L255 1170L271 1246H791L774 1170L605 1132Z" />
<glyph unicode="&#xdf;" glyph-name="germandbls" horiz-adv-x="980" d="M892 949Q871 923 795 848Q733 789 714 745Q701 715 701 682Q701 590 806 503Q813 496 834 479T864 455T891 431T920 404T943 377T966 347Q997 299 997 245Q997 185 966 130T883 40Q778
-34 672 -35Q570 -35 509 10T447 122Q447 172 480 207T570 248Q617 54 712 55Q767 55 809 90T851 182Q851 242 744 325Q663 389 632 420Q600 455 578 494Q547 550 547 615Q547 700 628 806L696 893Q777 995 777 1067Q777 1125 751 1152T663 1180Q586 1180 544 1129T484
958L335 0H50L67 76L191 109L297 786H178L194 854L313 890Q335 993 399 1086T548 1235Q632 1289 711 1289Q836 1289 891 1221Q939 1161 939 1084Q939 1009 892 949Z" />
<glyph unicode="&#xe0;" glyph-name="agrave" horiz-adv-x="855" d="M846 84L826 15Q757 -15 686 -15Q633 -15 600 10T567 83V94L570 132H558Q520 64 456 21T322 -22Q229 -22 175 57T120 275Q120 387 151 487T237 661Q345 808 493 862Q564 887 631 887Q761 887
816 852L833 834L762 379Q736 204 735 162Q735 128 744 114T778 96L846 84ZM661 748Q624 783 542 782Q468 782 406 713T313 535Q282 432 282 321Q282 106 403 106Q453 106 491 129T575 202L661 748ZM527 1309L643 1347L775 1012L717 978L527 1309Z" />
<glyph unicode="&#xe1;" glyph-name="aacute" horiz-adv-x="855" d="M846 84L826 15Q757 -15 686 -15Q633 -15 600 10T567 83V94L570 132H558Q520 64 456 21T322 -22Q229 -22 175 57T120 275Q120 387 151 487T237 661Q345 808 493 862Q564 887 631 887Q761 887
816 852L833 834L762 379Q736 204 735 162Q735 128 744 114T778 96L846 84ZM661 748Q624 783 542 782Q468 782 406 713T313 535Q282 432 282 321Q282 106 403 106Q453 106 491 129T575 202L661 748ZM892 1315L709 998L658 1029L780 1355L892 1315Z" />
<glyph unicode="&#xe2;" glyph-name="acircumflex" horiz-adv-x="855" d="M846 84L826 15Q757 -15 686 -15Q633 -15 600 10T567 83V94L570 132H558Q520 64 456 21T322 -22Q229 -22 175 57T120 275Q120 387 151 487T237 661Q345 808 493 862Q564 887 631 887Q761
887 816 852L833 834L762 379Q736 204 735 162Q735 128 744 114T778 96L846 84ZM661 748Q624 783 542 782Q468 782 406 713T313 535Q282 432 282 321Q282 106 403 106Q453 106 491 129T575 202L661 748ZM706 1229L884 1044L835 1007L671 1117H661L520 1006L482
1036L651 1216L706 1229Z" />
<glyph unicode="&#xe3;" glyph-name="atilde" horiz-adv-x="855" d="M846 84L826 15Q757 -15 686 -15Q633 -15 600 10T567 83V94L570 132H558Q520 64 456 21T322 -22Q229 -22 175 57T120 275Q120 387 151 487T237 661Q345 808 493 862Q564 887 631 887Q761 887
816 852L833 834L762 379Q736 204 735 162Q735 128 744 114T778 96L846 84ZM661 748Q624 783 542 782Q468 782 406 713T313 535Q282 432 282 321Q282 106 403 106Q453 106 491 129T575 202L661 748ZM451 1027Q453 1032 453 1036Q458 1056 471 1084Q488 1120 510
1143Q538 1171 573 1171Q577 1171 579 1171T586 1170L810 1140H813Q824 1140 838 1150T861 1171L869 1181L917 1180Q916 1178 915 1172T913 1164Q900 1123 873 1086Q836 1036 787 1036H775L552 1067H548Q536 1067 521 1056T497 1031L489 1019L451 1027Z" />
<glyph unicode="&#xe4;" glyph-name="adieresis" horiz-adv-x="855" d="M846 84L826 15Q757 -15 686 -15Q633 -15 600 10T567 83V94L570 132H558Q520 64 456 21T322 -22Q229 -22 175 57T120 275Q120 387 151 487T237 661Q345 808 493 862Q564 887 631 887Q761
887 816 852L833 834L762 379Q736 204 735 162Q735 128 744 114T778 96L846 84ZM661 748Q624 783 542 782Q468 782 406 713T313 535Q282 432 282 321Q282 106 403 106Q453 106 491 129T575 202L661 748ZM904 1113Q904 1078 878 1055T816 1032Q781 1032 757 1055T732
1113T757 1169T816 1191Q852 1191 878 1169T904 1113ZM634 1113Q634 1078 609 1055T548 1032Q513 1032 489 1055T464 1113T489 1169T548 1191Q584 1191 609 1169T634 1113Z" />
<glyph unicode="&#xe5;" glyph-name="aring" horiz-adv-x="855" d="M846 84L826 15Q757 -15 686 -15Q633 -15 600 10T567 83V94L570 132H558Q520 64 456 21T322 -22Q229 -22 175 57T120 275Q120 387 151 487T237 661Q345 808 493 862Q564 887 631 887Q761 887
816 852L833 834L762 379Q736 204 735 162Q735 128 744 114T778 96L846 84ZM661 748Q624 783 542 782Q468 782 406 713T313 535Q282 432 282 321Q282 106 403 106Q453 106 491 129T575 202L661 748ZM593 1188Q593 1135 619 1098T689 1060Q730 1060 752 1089T775
1173Q775 1227 749 1263T679 1300Q638 1300 616 1269T593 1188ZM846 1259T846 1186T798 1062T677 1011Q607 1011 565 1055T522 1176Q522 1246 571 1297T691 1348Q762 1348 804 1304Z" />
<glyph unicode="&#xe6;" glyph-name="ae" horiz-adv-x="1212" d="M1055 534Q1077 579 1076 653Q1072 799 980 799Q921 799 867 729Q812 659 782 513L1055 534ZM661 748Q624 783 542 782Q468 782 406 713T313 535Q282 432 282 321Q282 106 403 106Q453 106 491
129T575 202L661 748ZM1040 892Q1229 892 1228 662Q1228 545 1181 458L772 440Q765 397 764 349Q764 219 824 160Q881 103 970 103Q1006 103 1072 129T1159 177L1185 132Q1144 69 1056 20T876 -30Q678 -30 623 157Q603 132 568 96Q456 -21 322 -22Q229 -22 175
57T120 275Q120 387 151 487T237 661Q345 808 493 862Q564 887 631 887Q687 887 736 864T803 797Q912 892 1040 892Z" />
<glyph unicode="&#xe7;" glyph-name="ccedilla" horiz-adv-x="669" d="M422 -76Q511 -154 511 -227Q511 -330 311 -390L291 -331Q332 -317 354 -295T377 -248Q377 -207 304 -137L379 -30Q259 -28 192 61T124 308Q124 411 154 507T233 676Q281 745 341 797T462
876Q522 902 574 902Q653 902 698 863T743 758Q743 710 704 679T604 644Q599 706 584 750Q566 807 524 807Q487 807 448 773T374 679Q339 618 318 526T296 331Q296 219 334 156T448 93Q501 93 541 107T632 156L655 106Q620 62 569 29T462 -20L422 -76Z" />
<glyph unicode="&#xe8;" glyph-name="egrave" horiz-adv-x="733" d="M576 534Q598 579 597 653Q593 799 501 799Q443 799 389 729Q334 659 304 513L576 534ZM701 458L293 440Q286 397 285 349Q285 219 345 160Q402 103 491 103Q527 103 594 129T680 177L706 132Q665
69 577 20T397 -30Q270 -30 198 55T126 306Q126 462 182 596T339 811T561 892Q750 892 749 655Q749 548 701 458ZM378 1309L494 1347L626 1012L568 978L378 1309Z" />
<glyph unicode="&#xe9;" glyph-name="eacute" horiz-adv-x="733" d="M576 534Q598 579 597 653Q593 799 501 799Q443 799 389 729Q334 659 304 513L576 534ZM701 458L293 440Q286 397 285 349Q285 219 345 160Q402 103 491 103Q527 103 594 129T680 177L706 132Q665
69 577 20T397 -30Q270 -30 198 55T126 306Q126 462 182 596T339 811T561 892Q750 892 749 655Q749 548 701 458ZM801 1307L618 989L567 1021L689 1347L801 1307Z" />
<glyph unicode="&#xea;" glyph-name="ecircumflex" horiz-adv-x="733" d="M576 534Q598 579 597 653Q593 799 501 799Q443 799 389 729Q334 659 304 513L576 534ZM701 458L293 440Q286 397 285 349Q285 219 345 160Q402 103 491 103Q527 103 594 129T680 177L706
132Q665 69 577 20T397 -30Q270 -30 198 55T126 306Q126 462 182 596T339 811T561 892Q750 892 749 655Q749 548 701 458ZM590 1236L768 1050L719 1014L555 1123H545L404 1012L367 1042L536 1222L590 1236Z" />
<glyph unicode="&#xeb;" glyph-name="edieresis" horiz-adv-x="733" d="M576 534Q598 579 597 653Q593 799 501 799Q443 799 389 729Q334 659 304 513L576 534ZM701 458L293 440Q286 397 285 349Q285 219 345 160Q402 103 491 103Q527 103 594 129T680 177L706
132Q665 69 577 20T397 -30Q270 -30 198 55T126 306Q126 462 182 596T339 811T561 892Q750 892 749 655Q749 548 701 458ZM810 1113Q810 1078 784 1055T722 1032Q687 1032 663 1055T638 1113T663 1169T722 1191Q758 1191 784 1169T810 1113ZM541 1113Q541 1078
516 1055T455 1032T396 1055T371 1113T396 1169T455 1191Q491 1191 516 1169T541 1113Z" />
<glyph unicode="&#xec;" glyph-name="igrave" horiz-adv-x="497" d="M201 106L302 748L171 769L181 845L456 870L476 847L360 103L486 71L469 0H60L79 73L201 106ZM187 1309L303 1347L434 1012L377 978L187 1309Z" />
<glyph unicode="&#xed;" glyph-name="iacute" horiz-adv-x="497" d="M202 106L303 748L172 769L182 845L457 870L476 847L361 103L486 71L470 0H61L79 73L202 106ZM620 1315L436 998L385 1029L507 1355L620 1315Z" />
<glyph unicode="&#xee;" glyph-name="icircumflex" horiz-adv-x="497" d="M202 106L303 748L172 769L182 845L457 870L476 847L361 103L486 71L470 0H61L79 73L202 106ZM467 1229L645 1044L596 1007L432 1117H422L281 1006L243 1036L412 1216L467 1229Z" />
<glyph unicode="&#xef;" glyph-name="idieresis" horiz-adv-x="497" d="M202 106L303 748L172 769L182 845L457 870L476 847L361 103L486 71L470 0H61L79 73L202 106ZM665 1113Q665 1078 639 1055T577 1032Q542 1032 518 1055T493 1113T518 1169T577 1191Q613
1191 639 1169T665 1113ZM395 1113Q395 1078 370 1055T309 1032Q274 1032 250 1055T225 1113T250 1169T309 1191Q345 1191 370 1169T395 1113Z" />
<glyph unicode="&#xf0;" glyph-name="eth" horiz-adv-x="895" d="M797 1108Q852 1007 875 903T899 659T871 399T795 199Q749 124 687 72T561 -4Q498 -26 434 -26Q292 -26 210 65T128 331Q128 444 156 541T233 705Q279 768 341 813T467 880Q530 900 591 900Q627
900 667 883Q715 862 725 809H732Q718 906 656 1072L444 1031L467 1108L631 1141Q589 1229 525 1305H636Q705 1244 760 1171L906 1203L883 1125L797 1108ZM414 747Q345 680 318 537Q304 457 304 361Q304 222 345 147T471 71Q585 71 653 197T722 546Q722 664 682
735T567 807Q477 807 414 747Z" />
<glyph unicode="&#xf1;" glyph-name="ntilde" horiz-adv-x="927" d="M799 104L923 76L902 3H635L624 15L706 526Q718 610 718 639Q718 697 698 720T635 744Q534 744 452 665L362 106L485 74L467 0H63L84 74L205 108L301 743L170 764L184 847L462 872L483 849L448
723H460Q512 792 594 843T748 895T853 855T888 723Q888 678 878 614L799 104ZM392 1027Q394 1032 395 1036Q400 1056 413 1084Q430 1120 452 1143Q480 1171 514 1171Q518 1171 521 1171T528 1170L751 1140H754Q765 1140 779 1150T802 1171L811 1181L859 1180Q858
1178 857 1172T854 1164Q841 1123 815 1086Q778 1036 728 1036H716L493 1067H490Q478 1067 463 1056T438 1031L430 1019L392 1027Z" />
<glyph unicode="&#xf2;" glyph-name="ograve" horiz-adv-x="842" d="M655 310Q685 424 685 550Q685 675 649 746T548 817Q489 817 442 776T365 663Q306 517 306 323Q306 168 366 89Q397 48 438 48Q507 48 565 120T655 310ZM728 151Q668 70 583 22T405 -26Q316
-26 251 20T154 148Q123 228 122 329Q122 432 157 535T255 718Q317 799 405 847T591 895Q723 895 788 803T854 536Q854 433 821 332T728 151ZM458 1309L574 1347L706 1012L648 978L458 1309Z" />
<glyph unicode="&#xf3;" glyph-name="oacute" horiz-adv-x="842" d="M655 310Q685 424 685 550Q685 675 649 746T548 817Q489 817 442 776T365 663Q306 517 306 323Q306 168 366 89Q397 48 438 48Q507 48 565 120T655 310ZM728 151Q668 70 583 22T405 -26Q316
-26 251 20T154 148Q123 228 122 329Q122 432 157 535T255 718Q317 799 405 847T591 895Q723 895 788 803T854 536Q854 433 821 332T728 151ZM840 1315L657 998L605 1029L728 1355L840 1315Z" />
<glyph unicode="&#xf4;" glyph-name="ocircumflex" horiz-adv-x="842" d="M655 310Q685 424 685 550Q685 675 649 746T548 817Q489 817 442 776T365 663Q306 517 306 323Q306 168 366 89Q397 48 438 48Q507 48 565 120T655 310ZM728 151Q668 70 583 22T405 -26Q316
-26 251 20T154 148Q123 228 122 329Q122 432 157 535T255 718Q317 799 405 847T591 895Q723 895 788 803T854 536Q854 433 821 332T728 151ZM604 1229L782 1044L733 1007L569 1117H559L419 1006L380 1036L549 1216L604 1229Z" />
<glyph unicode="&#xf5;" glyph-name="otilde" horiz-adv-x="842" d="M655 310Q685 424 685 550Q685 675 649 746T548 817Q489 817 442 776T365 663Q306 517 306 323Q306 168 366 89Q397 48 438 48Q507 48 565 120T655 310ZM728 151Q668 70 583 22T405 -26Q316
-26 251 20T154 148Q123 228 122 329Q122 432 157 535T255 718Q317 799 405 847T591 895Q723 895 788 803T854 536Q854 433 821 332T728 151ZM349 1027Q351 1032 352 1036Q357 1056 370 1084Q387 1120 409 1143Q437 1171 471 1171Q475 1171 478 1171T485 1170L708
1140H711Q722 1140 736 1150T759 1171L768 1181L816 1180Q815 1178 814 1172T811 1164Q798 1123 772 1086Q735 1036 685 1036H673L450 1067H447Q435 1067 420 1056T395 1031L387 1019L349 1027Z" />
<glyph unicode="&#xf6;" glyph-name="odieresis" horiz-adv-x="842" d="M655 310Q685 424 685 550Q685 675 649 746T548 817Q489 817 442 776T365 663Q306 517 306 323Q306 168 366 89Q397 48 438 48Q507 48 565 120T655 310ZM728 151Q668 70 583 22T405 -26Q316
-26 251 20T154 148Q123 228 122 329Q122 432 157 535T255 718Q317 799 405 847T591 895Q723 895 788 803T854 536Q854 433 821 332T728 151ZM802 1113Q802 1078 776 1055T715 1032T655 1055T630 1113T655 1169T715 1191Q751 1191 776 1169T802 1113ZM533 1113Q533
1078 508 1055T447 1032T387 1055T362 1113T387 1169T447 1191Q483 1191 508 1169T533 1113Z" />
<glyph unicode="&#xf7;" glyph-name="divide" horiz-adv-x="976" d="M616 903Q659 903 687 873T715 801Q715 743 677 705T583 667Q544 667 513 698T481 768Q481 825 520 864T616 903ZM532 341Q575 341 602 311T629 238Q629 180 591 142T497 104Q458 104 427 135T396
205Q396 262 435 301T532 341ZM175 561H988L960 455H146L175 561Z" />
<glyph unicode="&#xf8;" glyph-name="oslash" horiz-adv-x="842" d="M313 223L653 738Q617 817 548 817Q489 817 442 776T365 663Q306 517 306 323Q306 270 313 223ZM655 310Q685 424 685 550Q685 618 676 663L334 147Q346 114 366 89Q397 48 438 48Q507 48 565
120T655 310ZM728 151Q668 70 583 22T405 -26Q329 -26 268 10L213 -74L88 -83L193 78Q169 109 154 148Q123 228 122 329Q122 432 157 535T255 718Q317 799 405 847T591 895Q661 895 713 868L761 940L889 949L791 799Q854 708 854 536Q854 433 821 332T728 151Z"
/>
<glyph unicode="&#xf9;" glyph-name="ugrave" horiz-adv-x="906" d="M893 84L875 15Q806 -15 735 -15Q675 -15 645 13T615 99Q615 116 617 131H607Q576 75 502 28T344 -20Q190 -20 190 164Q190 205 199 265L271 748L141 771L151 845L433 870L453 847L374 376Q358
279 358 223T376 142T438 117Q536 117 619 200L701 748L567 771L577 845L864 870L883 847L807 371Q784 221 784 170Q784 131 793 116T827 96L893 84ZM428 1309L544 1347L677 1012L619 978L428 1309Z" />
<glyph unicode="&#xfa;" glyph-name="uacute" horiz-adv-x="906" d="M893 84L875 15Q806 -15 735 -15Q675 -15 645 13T615 99Q615 116 617 131H607Q576 75 502 28T344 -20Q190 -20 190 164Q190 205 199 265L271 748L141 771L151 845L433 870L453 847L374 376Q358
279 358 223T376 142T438 117Q536 117 619 200L701 748L567 771L577 845L864 870L883 847L807 371Q784 221 784 170Q784 131 793 116T827 96L893 84ZM811 1315L627 998L576 1029L698 1355L811 1315Z" />
<glyph unicode="&#xfb;" glyph-name="ucircumflex" horiz-adv-x="906" d="M893 84L875 15Q806 -15 735 -15Q675 -15 645 13T615 99Q615 116 617 131H607Q576 75 502 28T344 -20Q190 -20 190 164Q190 205 199 265L271 748L141 771L151 845L433 870L453 847L374
376Q358 279 358 223T376 142T438 117Q536 117 619 200L701 748L567 771L577 845L864 870L883 847L807 371Q784 221 784 170Q784 131 793 116T827 96L893 84ZM591 1229L769 1044L720 1007L556 1117H546L405 1006L367 1036L536 1216L591 1229Z" />
<glyph unicode="&#xfc;" glyph-name="udieresis" horiz-adv-x="906" d="M893 84L875 15Q806 -15 735 -15Q675 -15 645 13T615 99Q615 116 617 131H607Q576 75 502 28T344 -20Q190 -20 190 164Q190 205 199 265L271 748L141 771L151 845L433 870L453 847L374 376Q358
279 358 223T376 142T438 117Q536 117 619 200L701 748L567 771L577 845L864 870L883 847L807 371Q784 221 784 170Q784 131 793 116T827 96L893 84ZM773 1113Q773 1078 747 1055T685 1032T626 1055T601 1113T626 1169T685 1191Q721 1191 747 1169T773 1113ZM503
1113Q503 1078 478 1055T417 1032T358 1055T333 1113T358 1169T417 1191Q453 1191 478 1169T503 1113Z" />
<glyph unicode="&#xfd;" glyph-name="yacute" horiz-adv-x="832" d="M467 225L748 771L625 804L645 875H979L959 801L864 769L435 -53Q339 -237 259 -308T74 -380Q9 -380 -23 -350T-56 -268Q-56 -197 15 -141Q83 -196 157 -195Q206 -195 243 -166T326 -50L344
-15L217 773L122 804L139 875H524L506 806L382 766L467 225ZM849 1315L665 998L614 1029L736 1355L849 1315Z" />
<glyph unicode="&#xfe;" glyph-name="thorn" horiz-adv-x="873" d="M398 721H400Q434 786 507 839T646 892Q745 892 814 788T883 533Q883 409 843 303T735 126Q668 57 583 20T408 -18Q343 -18 315 -7L337 108Q351 101 379 95T424 89Q478 89 525 103Q556 112 580
127T629 172Q679 231 698 346Q709 407 709 486Q709 603 671 675T577 748Q521 748 483 730T390 662L251 -263L406 -294L388 -369H-44L-24 -294L97 -261L297 1145L163 1168L173 1244L447 1269L469 1246L414 847L386 723H398V721Z" />
<glyph unicode="&#xff;" glyph-name="ydieresis" horiz-adv-x="832" d="M467 225L748 771L625 804L645 875H979L959 801L864 769L435 -53Q339 -237 259 -308T74 -380Q9 -380 -23 -350T-56 -268Q-56 -197 15 -141Q83 -196 157 -195Q206 -195 243 -166T326 -50L344
-15L217 773L122 804L139 875H524L506 806L382 766L467 225ZM811 1113Q811 1078 785 1055T723 1032T664 1055T639 1113T664 1169T723 1191Q759 1191 785 1169T811 1113ZM541 1113Q541 1078 516 1055T455 1032T396 1055T371 1113T396 1169T455 1191Q491 1191 516
1169T541 1113Z" />
<glyph unicode="&#x2013;" glyph-name="endash" horiz-adv-x="815" d="M183 514L795 521L778 417L166 410L183 514Z" />
<glyph unicode="&#x2014;" glyph-name="emdash" horiz-adv-x="1326" d="M184 514L1305 521L1289 417L167 410L184 514Z" />
<glyph unicode="&#x2018;" glyph-name="quoteleft" horiz-adv-x="441" d="M573 1218Q480 1194 422 1141T363 1034Q363 989 389 963T464 936Q469 936 494 943Q501 912 500 888Q500 834 453 794T358 754Q299 754 259 791Q209 832 209 941Q209 1009 256 1084Q312
1174 421 1233Q486 1268 562 1287L573 1218Z" />
<glyph unicode="&#x2019;" glyph-name="quoteright" horiz-adv-x="448" d="M201 821Q294 845 352 898T411 1004Q411 1049 385 1075T310 1102Q305 1102 280 1095Q273 1126 274 1150Q274 1204 321 1244T417 1284Q475 1284 517 1248Q565 1205 565 1097Q565 1028 519
955Q463 864 354 805Q289 771 213 751L201 821Z" />
<glyph unicode="&#x201a;" glyph-name="quotesinglbase" horiz-adv-x="447" d="M25 -245Q118 -221 176 -168T235 -61Q235 -16 209 10T134 36Q129 36 104 30Q97 61 98 84Q98 138 145 178T240 218Q298 218 340 183Q389 140 389 31Q389 -38 343 -111Q287 -202 178
-261Q113 -295 36 -314L25 -245Z" />
<glyph unicode="&#x201c;" glyph-name="quotedblleft" horiz-adv-x="756" d="M574 1221Q481 1197 423 1144T364 1037Q364 992 390 966T465 940Q470 940 495 946Q502 915 501 892Q501 838 454 798T359 758Q301 758 260 794Q210 835 210 945Q210 1013 256 1088Q312
1178 422 1237Q487 1272 562 1290L574 1221ZM890 1221Q797 1197 739 1144T680 1037Q680 992 706 966T781 940Q786 940 811 946Q818 915 817 892Q817 838 770 798T675 758Q617 758 576 794Q526 835 526 945Q526 1013 572 1088Q628 1178 738 1237Q803 1272 878 1290L890
1221Z" />
<glyph unicode="&#x201d;" glyph-name="quotedblright" horiz-adv-x="763" d="M518 825Q611 849 669 902T728 1009Q728 1054 702 1080T627 1107Q622 1107 597 1100Q590 1131 591 1155Q591 1209 638 1249T733 1289Q791 1289 833 1253Q882 1210 882 1102Q882 1033
836 959Q780 868 671 810Q606 776 529 756L518 825ZM200 825Q293 849 351 902T410 1009Q410 1054 384 1080T309 1107Q304 1107 280 1100Q273 1131 273 1155Q273 1209 320 1249T415 1289Q473 1289 515 1253Q564 1210 564 1102Q564 1033 519 959Q463 868 353 810Q288
776 212 756L200 825Z" />
<glyph unicode="&#x201e;" glyph-name="quotedblbase" horiz-adv-x="765" d="M342 -255Q435 -231 494 -178T553 -71Q553 -26 527 0T452 26Q447 26 422 20Q415 51 415 74Q415 128 462 168T557 208Q615 208 658 173Q707 130 706 22Q706 -47 661 -121Q605 -212 495
-270Q430 -304 354 -324L342 -255ZM25 -255Q118 -231 176 -178T235 -71Q235 -26 209 0T134 26Q129 26 104 20Q97 51 98 74Q98 128 145 168T240 208Q298 208 340 173Q389 130 389 22Q389 -47 343 -121Q287 -212 178 -270Q113 -304 36 -324L25 -255Z" />
<glyph unicode="&#x2022;" glyph-name="bullet" horiz-adv-x="520" d="M376 754Q443 754 484 709T526 597Q526 508 469 451T326 394Q267 394 219 442T170 548Q170 636 230 695T376 754Z" />
<glyph unicode="&#x2039;" glyph-name="guilsinglleft" horiz-adv-x="404" d="M96 470L419 822L455 763L242 462L359 141L296 78L94 450L96 470Z" />
<glyph unicode="&#x203a;" glyph-name="guilsinglright" horiz-adv-x="404" d="M458 470L453 450L132 78L89 141L309 462L192 763L245 822L458 470Z" />
</font>
</defs>
</svg>
