<?xml version="1.0" standalone="no"?>
<!DOCTYPE svg PUBLIC "-//W3C//DTD SVG 1.1//EN" "http://www.w3.org/Graphics/SVG/1.1/DTD/svg11.dtd">
<svg xmlns="http://www.w3.org/2000/svg">
<defs >
<font id="Neuton" horiz-adv-x="765" ><font-face
    font-family="Neuton"
    units-per-em="2048"
    panose-1="2 0 3 3 0 0 0 0 0 0"
    ascent="2106"
    descent="-485"
    alphabetic="0" />
<glyph unicode=" " glyph-name="space" horiz-adv-x="365" />
<glyph unicode="!" glyph-name="exclam" horiz-adv-x="447" d="M162 1254Q162 1272 195 1282T262 1293Q321 1293 321 1254Q321 983 269 361L202 376Q162 1018 162 1254ZM195 -35T171 -2T146 77T172 154T236 184T302 154T329 76T304 -3T237 -35Z" />
<glyph unicode="&quot;" glyph-name="quotedbl" horiz-adv-x="437" d="M289 1303L436 1291L400 899L326 891L289 1303ZM103 1303L248 1291L212 899L139 891L103 1303Z" />
<glyph unicode="#" glyph-name="numbersign" horiz-adv-x="914" d="M593 -19L499 -26L552 326H327L275 -19L182 -26L235 326H-30L-3 427H250L293 712H41L69 813H308L359 1150L452 1160L400 813H625L676 1150L769 1159L717 813H979L954 712H702L660 427H905L879
326H645L593 -19ZM567 427L610 712H385L342 427H567Z" />
<glyph unicode="$" glyph-name="dollar" horiz-adv-x="860" d="M80 119L102 395L177 384L210 181Q238 132 295 99T422 58V564Q422 564 346 610Q253 669 220 705T163 776Q116 844 116 956T197 1153T398 1262L387 1395L524 1411L511 1269Q669 1258 764 1165L737
869L664 878L638 1096Q620 1130 576 1159T482 1197V721Q496 712 531 692Q708 589 755 531T820 429T837 331Q837 200 748 107T516 -15L527 -164L382 -179L392 -25Q295 -21 212 19T80 119ZM426 756V1199Q350 1193 301 1141T252 1007T297 868T426 756ZM484 527V59Q570
69 630 124T690 280T564 473Q532 497 484 527Z" />
<glyph unicode="%" glyph-name="percent" horiz-adv-x="1738" d="M787 368Q781 323 781 269T793 157T833 58T898 16T963 58Q1012 134 1012 256T980 462T894 546Q811 546 787 368ZM797 -36T725 51T652 270T726 496T900 591T1069 500T1138 280T1063 57T892 -36ZM164
-26L540 588L856 1143L479 1150Q506 1119 524 1034T542 899Q542 773 465 679T293 584T127 671T56 891T130 1118T298 1213Q322 1213 334 1209V1153Q314 1168 290 1168T243 1143T202 1055T184 896T214 719T297 637Q337 637 364 678Q414 753 414 918T368 1196L895
1211L1025 1207L1023 1191L657 591L310 -40L164 -26Z" />
<glyph unicode="&amp;" glyph-name="ampersand" horiz-adv-x="1282" d="M331 1025Q331 908 483 752Q564 810 604 864T645 999T602 1140T487 1200T373 1148T331 1025ZM308 564T257 495T206 328T265 159T424 86Q585 86 703 286L405 626L395 627Q308 564 257 495ZM353
687Q211 834 211 963T299 1182T511 1272T707 1206T780 1016Q780 930 718 854T538 700V693L781 417L964 720L807 757L813 812H1238L1230 757L1061 723L842 356Q1053 107 1186 64L1225 52L1215 -2Q1164 -20 1109 -20Q985 -20 857 122L762 227Q634 42 500 -1Q441 -20
372 -20Q230 -20 143 63T56 273T134 497T353 687Z" />
<glyph unicode="&apos;" glyph-name="quotesingle" horiz-adv-x="333" d="M111 1303L257 1291L221 899L148 891L111 1303Z" />
<glyph unicode="(" glyph-name="parenleft" horiz-adv-x="474" d="M423 1201Q261 990 216 732Q194 606 194 456Q194 51 429 -330L381 -375Q297 -300 248 -224Q149 -71 99 89T49 450Q49 970 386 1256L423 1201Z" />
<glyph unicode=")" glyph-name="parenright" horiz-adv-x="474" d="M54 1201L91 1256Q428 970 428 450Q428 85 249 -193Q180 -300 96 -375L48 -330Q283 51 283 456Q283 757 199 950Q135 1095 54 1201Z" />
<glyph unicode="*" glyph-name="asterisk" horiz-adv-x="593" d="M351 1291L474 1280L449 981L739 1106L766 990L475 923L687 686L582 623L426 882L265 604L172 685L370 912L60 978L108 1092L384 974L351 1291Z" />
<glyph unicode="+" glyph-name="plus" horiz-adv-x="680" d="M87 417L99 503H308V742L396 730L397 503H617L606 417H397L399 173L308 186V417H87Z" />
<glyph unicode="," glyph-name="comma" horiz-adv-x="397" d="M54 -240Q234 -181 234 -50Q234 3 202 38T122 74Q106 74 93 71Q85 95 85 127T117 189T202 218T303 164T352 19T312 -135Q239 -250 72 -298L54 -240Z" />
<glyph unicode="-" glyph-name="hyphen" horiz-adv-x="573" d="M81 409L92 489L500 507L489 426L81 409Z" />
<glyph unicode="." glyph-name="period" horiz-adv-x="391" d="M159 -32T134 -1T109 80T133 157T199 186T266 157T292 79T267 -1T201 -32Z" />
<glyph unicode="/" glyph-name="slash" horiz-adv-x="610" d="M35 -361L498 1238L605 1244L139 -355L35 -361Z" />
<glyph unicode="0" glyph-name="zero" horiz-adv-x="984" d="M511 1125Q273 1125 273 587T515 48Q633 48 687 180T741 587Q741 1125 511 1125ZM105 884T224 1043T521 1203T804 1045T910 587Q910 221 738 62Q641 -27 513 -27Q336 -27 221 114T105 570Z" />
<glyph unicode="1" glyph-name="one" horiz-adv-x="889" d="M120 1L124 61L398 103V1060H139L144 1121L530 1185H557V98L825 70L816 1H120Z" />
<glyph unicode="2" glyph-name="two" horiz-adv-x="959" d="M70 74L308 278Q489 433 579 560T669 826T618 1046T455 1128Q380 1128 327 1097T249 1021L208 780L151 788L141 1057Q184 1115 288 1162T501 1209Q659 1209 751 1120T843 860Q843 776 820 722Q777 618
736 568L684 502Q663 475 621 436L554 373Q529 350 478 308L241 118H740L835 361L890 353L843 0H76L70 74Z" />
<glyph unicode="3" glyph-name="three" horiz-adv-x="959" d="M88 90L133 353L200 342L210 138Q233 98 287 67T405 36Q520 36 590 105T661 290T566 479T325 555L319 605L364 626Q456 669 505 715T572 790Q614 855 614 933T567 1074T426 1137T263 1057L220 833L156
844L149 1092Q195 1136 284 1173T492 1211T696 1142T781 959Q781 797 606 689Q560 661 512 643V633Q651 613 739 537T827 350T765 152T602 16T393 -33T201 3T88 90Z" />
<glyph unicode="4" glyph-name="four" horiz-adv-x="972" d="M186 462H548V948L186 462ZM38 415L655 1191L704 1176Q695 998 695 683V462H950L934 357H695V89L901 64L890 0H298L305 57L552 95V361H57L38 415Z" />
<glyph unicode="5" glyph-name="five" horiz-adv-x="959" d="M75 88L103 369L170 355L188 155Q267 58 385 58T566 126T629 308Q629 456 506 540T165 639L280 1171L729 1198L708 1049L323 1032L279 771Q650 748 748 516Q776 449 776 368Q776 211 655 98T358 -16T75 88Z" />
<glyph unicode="6" glyph-name="six" horiz-adv-x="940" d="M283 407Q283 251 345 148T499 44Q712 44 712 327Q712 450 652 534T484 619Q420 619 366 595T290 540Q283 492 283 407ZM120 422Q120 673 286 902T694 1214L723 1164Q373 1008 293 609H302Q410 709 555
709T788 612T875 356T762 88T484 -21Q213 -21 140 254Q120 331 120 422Z" />
<glyph unicode="7" glyph-name="seven" horiz-adv-x="919" d="M83 829L111 1182H874V1130L441 -33L282 -16L756 1047H205L137 820L83 829Z" />
<glyph unicode="8" glyph-name="eight" horiz-adv-x="938" d="M392 1141T343 1088T293 958T351 812T547 656Q674 740 674 890Q674 995 615 1068T474 1141ZM341 506T304 452T267 295T343 120T510 47T655 96T710 229T638 386T410 557Q341 506 304 452ZM127 281Q127
454 357 590V597Q173 722 173 897Q173 1023 266 1112T500 1202T719 1124T798 938T743 749T604 625L601 619Q727 534 783 462T840 291Q840 152 733 63T470 -27T221 59T127 281Z" />
<glyph unicode="9" glyph-name="nine" horiz-adv-x="937" d="M473 1144Q264 1144 264 862Q264 729 322 647T488 565Q551 565 603 590T679 651Q688 702 688 793Q688 945 626 1044T473 1144ZM266 472T186 568T106 824T219 1096T488 1209Q705 1209 797 1019Q850 909
850 742T776 409T560 125T236 -27L217 31Q483 109 595 316Q655 427 676 576H666Q557 472 412 472Z" />
<glyph unicode=":" glyph-name="colon" horiz-adv-x="410" d="M160 332Q120 362 120 417T144 499T208 527H210Q249 527 273 499T298 423T274 345T216 315T160 332Z" />
<glyph unicode=";" glyph-name="semicolon" horiz-adv-x="397" d="M69 -243Q249 -187 249 -60Q249 -9 217 25T137 59Q122 59 108 56Q100 78 100 110T132 169T217 197T318 146T367 -3Q367 -162 206 -250Q155 -279 87 -298L69 -243ZM200 629T175 660T150 741T174
818T240 847T307 818T333 740T308 660T242 629Z" />
<glyph unicode="&lt;" glyph-name="less" horiz-adv-x="697" d="M664 -25L622 -82L-13 427L-12 456L609 974L644 914L173 437L664 -25Z" />
<glyph unicode="=" glyph-name="equal" horiz-adv-x="800" d="M90 569L101 655H716L705 569H90ZM87 330L98 415H713L702 330H87Z" />
<glyph unicode="&gt;" glyph-name="greater" horiz-adv-x="697" d="M67 -25L558 437L87 914L122 974L743 456L744 427L109 -82L67 -25Z" />
<glyph unicode="?" glyph-name="question" horiz-adv-x="619" d="M241 -35T216 -2T191 77T217 154T282 184T347 154T374 76T349 -3T283 -35ZM99 1073Q40 1100 40 1169Q40 1207 95 1247T238 1287Q366 1287 466 1170T567 893Q567 801 516 751T409 668T328 615Q268
570 268 514T303 371L245 354Q214 389 189 449T164 567T196 671T273 743L364 796Q473 857 473 939T418 1084T291 1147Q169 1147 99 1073Z" />
<glyph unicode="@" glyph-name="at" horiz-adv-x="1362" d="M512 369Q512 160 596 160Q634 160 685 188T764 248L818 703Q776 714 716 714Q628 714 570 612T512 369ZM88 519T173 681T421 944T789 1045Q929 1045 1046 987T1234 823T1304 599T1269 388T1172 224T1022
111T833 69Q756 69 762 187H753Q720 138 663 99T542 60T433 129T389 313Q389 533 513 661T770 790Q846 790 922 773L940 752L898 385L886 296Q877 230 879 191T910 152Q1027 152 1111 264T1196 525T1134 772T972 921T734 972T471 889T278 664T210 355Q210 125 348
-12T729 -149Q830 -149 937 -109T1088 -31L1117 -82Q1016 -149 960 -173Q838 -227 719 -227T512 -206Q330 -164 209 -29T88 312Z" />
<glyph unicode="A" glyph-name="A" horiz-adv-x="1324" d="M453 534H826L646 1060L453 534ZM35 0L43 58L188 101L626 1246L728 1268L1130 95L1265 64L1257 0H795L805 58L974 101L850 455H425L294 95L479 63L469 0H35Z" />
<glyph unicode="B" glyph-name="B" horiz-adv-x="1135" d="M407 685H691Q756 719 797 779T838 922Q838 1045 756 1118T507 1192Q439 1192 407 1186V685ZM407 75H639Q858 75 920 248Q936 294 936 345Q936 449 867 533T646 618H407V75ZM82 0L92 58L260 96V1129L89
1155L98 1211Q167 1222 217 1229L318 1242Q440 1257 566 1257Q769 1257 876 1174T983 967Q983 875 931 800T777 679V672Q922 664 1004 577T1087 380Q1087 180 919 78Q789 0 554 0H82Z" />
<glyph unicode="C" glyph-name="C" horiz-adv-x="1113" d="M194 218T151 336T108 572T130 782T200 962T316 1119T487 1228T711 1270Q932 1270 1062 1171L1031 836L963 846L927 1086Q843 1195 670 1195T384 1043T271 637T397 234T727 84Q827 84 920 132T1084 252L1113
195Q1050 111 927 43T673 -25T443 18T269 139Z" />
<glyph unicode="D" glyph-name="D" horiz-adv-x="1344" d="M409 79H571Q831 79 979 223T1127 611T983 1018T557 1181Q450 1181 409 1176V79ZM81 0L92 58L263 101V1128L90 1154L100 1210Q411 1259 579 1259T870 1225Q1095 1162 1192 1009T1290 646T1170 270T818
36Q693 0 544 0H81Z" />
<glyph unicode="E" glyph-name="E" horiz-adv-x="1107" d="M84 1185L93 1244H1044L1013 925L946 934L916 1173H413V668H728L768 797L840 808L807 419L741 408L716 594H413V75H942L1028 324L1090 313L1060 0H90L96 58L265 96V1151L84 1185Z" />
<glyph unicode="F" glyph-name="F" horiz-adv-x="1123" d="M81 1185L89 1244H1039L1002 923L934 933L906 1173H409V652H720L761 782L832 792L803 402L734 391L710 579H409L408 96L649 68L637 0H86L91 58L260 96V1151L81 1185Z" />
<glyph unicode="G" glyph-name="G" horiz-adv-x="1357" d="M735 1262Q991 1262 1138 1162L1110 841L1044 852L1011 1066Q971 1112 887 1147T693 1182Q508 1182 390 1037T272 640Q272 454 348 310Q480 61 768 61Q898 61 984 119L985 463L746 495L756 556H1274L1264
499L1135 467V79Q1038 21 926 -2T659 -26Q407 -26 258 145T108 591Q108 773 189 926T415 1171T735 1262Z" />
<glyph unicode="H" glyph-name="H" horiz-adv-x="1446" d="M83 1187L90 1244H591L583 1187L414 1156V672H1087V1154L904 1187L913 1244H1413L1404 1187L1237 1156V90L1419 63L1411 0H912L922 58L1087 96V592L414 591V90L600 63L588 0H91L97 58L265 96V1154L83 1187Z" />
<glyph unicode="I" glyph-name="I" horiz-adv-x="674" d="M86 1187L94 1244H595L586 1187L414 1156V90L601 63L591 0H94L101 58L263 96V1154L86 1187Z" />
<glyph unicode="J" glyph-name="J" horiz-adv-x="614" d="M19 -259Q144 -146 204 -36T264 209V1154L82 1187L90 1244H593L584 1187L414 1156L412 372Q410 145 368 17T198 -220Q144 -267 57 -325L19 -259Z" />
<glyph unicode="K" glyph-name="K" horiz-adv-x="1225" d="M454 623Q554 728 604 790L893 1151L728 1187L734 1244H1184L1177 1187L1012 1152L601 649L846 358Q974 206 1040 147T1191 68L1237 58L1226 2Q1160 -21 1106 -21Q999 -21 915 50T733 246L456 604L454
623ZM83 1187L93 1244H593L586 1187L415 1152V95L602 63L592 0H92L100 58L264 101V1149L83 1187Z" />
<glyph unicode="L" glyph-name="L" horiz-adv-x="1088" d="M94 0L102 58L269 96V1148L89 1186L98 1244H600L593 1186L418 1152V75H905L1010 341L1074 331L1040 0H94Z" />
<glyph unicode="M" glyph-name="M" horiz-adv-x="1681" d="M51 0L59 54L227 92L304 1151L120 1188L129 1244H489L564 1053L851 268L1185 1092L1252 1244H1612L1605 1188L1434 1154L1488 86L1669 60L1663 0H1164L1172 54L1341 92L1284 1087L861 55L772 41L396 1059L325
86L508 60L498 0H51Z" />
<glyph unicode="N" glyph-name="N" horiz-adv-x="1402" d="M63 1188L73 1244H400L1067 225V1154L882 1187L891 1244H1341L1330 1187L1164 1156V-3L1060 -24L347 1047V90L531 63L521 0H73L79 58L246 96V1147L63 1188Z" />
<glyph unicode="O" glyph-name="O" horiz-adv-x="1331" d="M278 655Q278 551 305 441T383 244T518 108T698 58T864 88Q990 144 1051 279T1113 579T1066 883T919 1109T681 1197Q435 1197 334 974Q278 848 278 655ZM246 148T179 295T111 627T185 960T401 1191T730
1274Q859 1274 964 1223T1137 1084Q1279 899 1279 624Q1279 418 1175 248Q1007 -27 640 -27Q499 -27 373 60Z" />
<glyph unicode="P" glyph-name="P" horiz-adv-x="1120" d="M85 0L93 58L256 96V1129L90 1155L98 1211Q107 1212 146 1218T198 1227Q256 1236 304 1241L358 1246Q451 1256 536 1256T692 1244Q846 1219 939 1135T1032 893Q1032 776 965 682T790 538T558 488Q518
488 484 491L469 553L522 555Q697 562 781 644T866 863T779 1096T513 1192L407 1186V94L642 65L631 0H85Z" />
<glyph unicode="Q" glyph-name="Q" horiz-adv-x="1344" d="M582 88Q664 51 760 47Q881 74 966 154Q1129 309 1129 568Q1129 738 1076 879T920 1107T684 1193Q488 1193 378 1051T268 693T349 318T582 88ZM251 144T181 290T111 621T188 955T408 1189T737 1274Q865
1274 970 1224T1144 1085Q1286 902 1286 629Q1286 319 1071 124Q962 25 816 -9Q879 -149 974 -209T1252 -294Q1249 -338 1242 -355Q1179 -385 1078 -385Q944 -385 849 -283T733 -21Q699 -27 661 -27Q504 -27 378 58Z" />
<glyph unicode="R" glyph-name="R" horiz-adv-x="1195" d="M423 628H636Q728 661 790 736T853 925T771 1114T544 1189L423 1184V628ZM105 0L114 58L276 96V1127L110 1153L120 1209Q398 1254 581 1254T888 1180T1011 952Q1011 847 942 757T730 605V604L916 336Q1017
191 1070 139T1193 64L1234 51L1223 -2Q1174 -19 1120 -19Q1018 -19 943 53T798 245L617 554H423V96L623 64L613 0H105Z" />
<glyph unicode="S" glyph-name="S" horiz-adv-x="881" d="M80 119L102 395L177 384L210 181Q241 126 307 92T460 57T618 113T690 276T576 466Q525 503 464 539L342 614Q281 653 230 697Q116 795 116 938Q116 1040 170 1118Q275 1270 464 1270T764 1165L737 869L664
878L638 1096Q617 1136 561 1168T434 1200T308 1148T252 1018T284 888T368 797T482 721L606 646Q669 607 720 564Q837 467 837 322T715 76T413 -25Q309 -25 220 16T80 119Z" />
<glyph unicode="T" glyph-name="T" horiz-adv-x="1134" d="M55 1244H1127L1093 909L1020 920L993 1173H655V94L836 63L824 0H327L333 58L505 96V1173H180L135 912L64 923L55 1244Z" />
<glyph unicode="U" glyph-name="U" horiz-adv-x="1371" d="M61 1187L70 1244H568L561 1187L392 1156V503Q392 73 752 73Q916 73 1005 172T1095 466L1096 1154L912 1187L920 1244H1371L1362 1187L1196 1156L1191 503Q1189 238 1075 106T711 -27Q244 -27 244 465V1154L61
1187Z" />
<glyph unicode="V" glyph-name="V" horiz-adv-x="1258" d="M38 1188L45 1244H527L520 1188L351 1156L681 206L1029 1152L844 1188L850 1244H1272L1267 1188L1137 1156L703 -4L601 -25L185 1152L38 1188Z" />
<glyph unicode="W" glyph-name="W" horiz-adv-x="1873" d="M43 1188L51 1244H505L496 1190L330 1156L594 225L884 1199L995 1214L1261 233L1553 1151L1369 1189L1377 1244H1794L1786 1188L1666 1154L1286 -4L1177 -25L912 971L622 -4L505 -24L174 1153L43 1188Z" />
<glyph unicode="X" glyph-name="X" horiz-adv-x="1195" d="M-2 0L7 56L133 92L524 620L160 1154L23 1189L31 1244H497L490 1189L334 1152L623 727L937 1155L766 1187L775 1244H1177L1173 1188L1047 1159L679 654L1057 84L1193 58L1183 0H718L727 51L889 90L580
550L247 89L413 62L401 0H-2Z" />
<glyph unicode="Y" glyph-name="Y" horiz-adv-x="1113" d="M-9 1188L0 1244H463L455 1188L292 1156L588 605L875 1152L691 1188L697 1244H1114L1108 1188L981 1156L634 509V91L806 63L797 0H314L322 58L484 96V497L130 1152L-9 1188Z" />
<glyph unicode="Z" glyph-name="Z" horiz-adv-x="1051" d="M45 71L819 1170H232L154 903L90 918L99 1244H1002L1004 1188L219 79H837L952 347L1021 336L973 0H52L45 71Z" />
<glyph unicode="[" glyph-name="bracketleft" horiz-adv-x="476" d="M392 -306L384 -375H24L25 1256H383L390 1185L155 1164V-286L392 -306Z" />
<glyph unicode="\" glyph-name="backslash" horiz-adv-x="611" d="M32 1259L140 1254L602 -367L498 -362L32 1259Z" />
<glyph unicode="]" glyph-name="bracketright" horiz-adv-x="476" d="M24 -306L261 -286V1164L26 1185L34 1256H391L392 -375H32L24 -306Z" />
<glyph unicode="^" glyph-name="asciicircum" horiz-adv-x="733" d="M49 826L338 1238L394 1251L688 824L640 792L363 1098H353L91 797L49 826Z" />
<glyph unicode="_" glyph-name="underscore" horiz-adv-x="869" d="M14 -133L26 -47H854L844 -133H14Z" />
<glyph unicode="`" glyph-name="grave" horiz-adv-x="579" d="M150 1661L254 1698L387 1363L336 1332L150 1661Z" />
<glyph unicode="a" glyph-name="a" horiz-adv-x="847" d="M230 207Q230 154 264 113T356 71T467 104T554 186V430Q390 402 310 351T230 207ZM93 169Q93 293 206 376T554 481V529Q554 670 514 743T371 816Q315 816 294 795T263 739T237 601Q127 601 127 685Q127
736 177 784T301 860T443 889Q567 889 624 815T681 581V230Q681 153 699 118T781 73L839 62L830 2Q745 -18 694 -18T607 21T571 116V131H563Q540 76 469 26T304 -25T152 27T93 169Z" />
<glyph unicode="b" glyph-name="b" horiz-adv-x="961" d="M300 126Q364 62 508 62Q609 62 686 154T763 406Q763 677 634 756Q585 785 520 785Q410 785 300 668V126ZM18 1191L27 1245L285 1265L300 1249V837L286 733H298Q434 886 582 886T818 771T905 466Q905 232
763 104T420 -24Q284 -24 171 49V1149L18 1191Z" />
<glyph unicode="c" glyph-name="c" horiz-adv-x="779" d="M289 -30T190 94T91 420T207 755T491 888Q608 888 665 841T722 726Q722 643 627 627Q596 714 553 762T443 810Q351 810 291 722T231 468T309 185T516 69T742 148L763 102Q723 48 637 9T457 -30Q289 -30 190 94Z" />
<glyph unicode="d" glyph-name="d" horiz-adv-x="997" d="M360 810T295 714T230 446T294 176T474 77Q535 77 600 112T700 193V685Q659 744 596 777T469 810Q360 810 295 714ZM92 393Q92 501 128 596T226 754Q355 889 518 889Q567 889 622 875T702 841H710L696
972V1151L544 1194L553 1247L811 1269L826 1252V222Q826 117 868 90Q891 77 925 70L978 58L969 -2Q902 -22 841 -22T745 18T710 124V131H700Q589 -21 411 -21Q272 -21 182 88T92 393Z" />
<glyph unicode="e" glyph-name="e" horiz-adv-x="812" d="M237 507L588 530Q595 550 595 625T553 755T432 809T298 731T237 507ZM762 104Q647 -30 453 -30Q306 -30 200 84T94 420Q94 528 128 618T218 766Q336 886 486 886Q601 886 668 810T736 582Q736 517 719
451L235 445Q239 296 308 187T509 78T743 148L762 104Z" />
<glyph unicode="f" glyph-name="f" horiz-adv-x="651" d="M70 0L82 51L234 87V791H85L97 845L235 867Q255 1084 361 1194T582 1305Q662 1305 711 1274T760 1202Q760 1127 691 1099Q606 1220 514 1220Q452 1220 411 1160T369 981L368 861H626L613 791H368V91L614
61L607 0H70Z" />
<glyph unicode="g" glyph-name="g" horiz-adv-x="865" d="M335 825T294 764T252 603T306 431T433 359T549 411T593 566T545 746T416 825ZM186 -116Q186 -299 462 -299Q567 -299 640 -250T713 -119T669 -10T492 17H280Q251 10 219 -25T186 -116ZM220 35Q124 80
124 162Q124 197 170 243T276 322V327Q227 345 176 416T125 578Q125 702 220 793T430 885T635 822L854 838L870 820L835 725L823 723L682 764L679 753Q693 728 708 679T723 588Q723 506 675 436T554 329T421 291T315 306L282 274Q249 241 249 210Q249 132 419 132H573Q701
132 753 107T824 42T841 -70T778 -219T613 -341T376 -387T146 -330T50 -165Q50 -93 106 -47T220 28V35Z" />
<glyph unicode="h" glyph-name="h" horiz-adv-x="1046" d="M347 733Q491 891 666 891Q763 891 823 821T884 588V86L1026 58L1017 0H606L615 54L752 86L755 561V568Q755 681 706 732T581 783Q455 783 352 670V87L497 58L487 0H55L66 57L220 87V1154L63 1196L72
1250L336 1271L352 1254V839L339 733H347Z" />
<glyph unicode="i" glyph-name="i" horiz-adv-x="555" d="M80 0L92 55L243 87V772L91 814L99 865L358 887L374 871V87L534 57L523 0H80ZM258 1093T236 1122T213 1198T236 1273T297 1301T359 1273T383 1198T360 1122T298 1093Z" />
<glyph unicode="j" glyph-name="j" horiz-adv-x="460" d="M233 1077T208 1109T182 1190T208 1269T275 1299T342 1269T369 1190T343 1109T275 1077ZM4 -315Q160 -197 199 -16Q216 63 216 160V760L65 801L74 855L332 875L349 858V151Q349 -191 89 -356L45 -383L4 -315Z" />
<glyph unicode="k" glyph-name="k" horiz-adv-x="977" d="M382 429V447L668 781L534 818L542 873H935L925 819L775 782L510 473L742 196Q804 124 845 98T942 64L981 59L972 0Q912 -20 865 -20T783 -9T694 51T516 258L382 429ZM59 0L69 55L223 87V1151L67 1192L73
1244L336 1266L352 1249V87L512 57L503 0H59Z" />
<glyph unicode="l" glyph-name="l" horiz-adv-x="540" d="M59 0L69 55L223 87V1156L67 1197L73 1249L335 1270L352 1254V87L513 57L501 0H59Z" />
<glyph unicode="m" glyph-name="m" horiz-adv-x="1592" d="M81 0L90 54L242 86V753L85 793L91 845L360 875L372 861L361 728H369Q423 794 505 841T671 889T813 847T889 723H900Q952 790 1032 837T1201 885Q1327 885 1382 810T1437 597V87L1579 60L1566 2H1169L1175
54L1305 86V573Q1305 672 1260 726T1129 780Q1018 780 905 660V86L1044 58L1036 0H638L646 54L779 86V573Q779 667 733 724T612 781Q466 781 373 666V86L516 58L506 0H81Z" />
<glyph unicode="n" glyph-name="n" horiz-adv-x="1071" d="M79 0L87 52L240 86V755L85 794L92 846L357 876L369 862L359 730H367Q417 792 502 841T686 890T847 817T909 600V86L1050 58L1043 0H630L638 52L778 86V568Q778 676 731 728T611 781T484 756T370 670V86L516
58L506 0H79Z" />
<glyph unicode="o" glyph-name="o" horiz-adv-x="944" d="M360 806T298 714T235 495T266 274T363 116T527 54T686 148T747 392T678 668Q645 730 591 768T469 806Q360 806 298 714ZM309 -27T202 94T94 422T215 760T512 891Q625 891 711 831T843 669T888 439Q888
234 772 104T482 -27Z" />
<glyph unicode="p" glyph-name="p" horiz-adv-x="978" d="M554 781Q455 781 340 662V-286L496 -312L486 -373H52L58 -315L210 -285V754L56 792L64 845L329 873L342 859L333 722H340Q388 788 459 837T620 886Q756 886 838 781T920 463T797 115T482 -20Q440 -20
380 -9L375 87Q434 64 538 64T710 155T778 404Q778 781 554 781Z" />
<glyph unicode="q" glyph-name="q" horiz-adv-x="963" d="M88 407Q88 506 125 596T221 750T358 851T523 889T694 845L788 878H811V-280L972 -306L963 -367H519L527 -308L678 -280V691Q647 739 592 774T464 809Q364 809 296 714T227 447T290 177T465 78Q504 78
558 91T647 127L651 71Q606 28 538 4T405 -21Q264 -21 176 86T88 407Z" />
<glyph unicode="r" glyph-name="r" horiz-adv-x="738" d="M76 0L84 52L239 86V757L79 796L88 848L347 877L363 860L349 615H363Q399 744 464 819T592 895T684 867T714 793T652 704Q601 756 543 756T436 672T369 464V88L599 61L591 0H76Z" />
<glyph unicode="s" glyph-name="s" horiz-adv-x="692" d="M177 264Q224 40 372 40Q445 40 487 74T529 152T506 228T446 286T363 340Q255 403 182 467T108 631T177 810T385 889Q483 889 549 839T615 724Q615 606 510 597L502 636Q459 825 347 825Q286 825 250 791T214
708T238 623Q275 567 384 502L477 445Q586 374 623 306Q647 262 647 212Q647 104 558 35T348 -35T150 18T71 154Q71 199 101 229T177 264Z" />
<glyph unicode="t" glyph-name="t" horiz-adv-x="640" d="M380 -24Q187 -24 189 251L193 771H66V811Q201 872 280 1068H327V840H610L602 768H326L323 310Q323 188 355 143T457 98T594 146L616 163L635 119Q589 53 522 15T380 -24Z" />
<glyph unicode="u" glyph-name="u" horiz-adv-x="1013" d="M705 132Q600 -24 427 -24Q199 -24 199 275V757L54 800L62 853L311 874L327 857V317Q327 86 499 86Q614 86 705 187V754L548 790L554 850L820 874L834 857V223Q834 148 855 115T933 70L987 58L980 -1Q912
-21 851 -21T753 19T717 120V132H705Z" />
<glyph unicode="v" glyph-name="v" horiz-adv-x="921" d="M30 806L37 861H443L438 808L292 771L501 161L713 769L553 806L564 861H923L914 808L805 771L524 -11L434 -26L152 769L30 806Z" />
<glyph unicode="w" glyph-name="w" horiz-adv-x="1237" d="M22 808L29 863H412L405 809L270 777L391 360L428 203L591 798L705 817L843 345L875 193L1036 775L885 808L892 863H1248L1240 809L1132 777L910 -9L825 -25L634 630L462 -9L375 -25L138 775L22 808Z" />
<glyph unicode="x" glyph-name="x" horiz-adv-x="934" d="M17 0L26 52L134 86L400 431L154 783L36 815L43 870H437L427 817L312 785L496 527L693 781L555 815L567 870H916L905 816L801 783L550 459L812 84L926 52L918 0H513L525 51L652 84L456 362L244 86L386
54L377 0H17Z" />
<glyph unicode="y" glyph-name="y" horiz-adv-x="936" d="M113 -379T72 -349T30 -267T75 -176Q144 -229 233 -229Q344 -229 415 -49L438 12L160 772L36 805L45 861H428L422 808L295 775L510 195L740 771L610 806L621 861H938L933 808L832 772L502 -53Q430 -233
359 -306T175 -379Q113 -379 72 -349Z" />
<glyph unicode="z" glyph-name="z" horiz-adv-x="858" d="M96 63L612 788H227L171 583L115 592L125 861H772L774 809L251 78H664L739 275L790 269L760 0H100L96 63Z" />
<glyph unicode="{" glyph-name="braceleft" horiz-adv-x="607" d="M559 -378H456Q325 -378 278 -291T226 -69Q223 -7 222 56Q221 204 200 281Q173 384 83 395L32 402V476L80 484Q193 501 212 656Q221 725 222 806T228 966T251 1110T319 1215T452 1256H554L546
1182L452 1175Q378 1169 368 1036Q363 977 363 905Q363 725 340 620Q308 474 184 443V438Q248 424 287 377T341 264T361 124T366 -25T373 -158Q386 -293 464 -297L551 -303L559 -378Z" />
<glyph unicode="|" glyph-name="bar" horiz-adv-x="448" d="M191 -367V1261L287 1248V-380L191 -367Z" />
<glyph unicode="}" glyph-name="braceright" horiz-adv-x="607" d="M32 -378L40 -303L127 -297Q205 -293 218 -158Q223 -98 224 -25T230 123T249 264T302 376T406 438V443Q282 474 250 620Q226 729 227 853T224 1036Q213 1169 139 1175L45 1182L37 1256H139Q222
1256 272 1216T340 1110T363 966T368 806T378 656Q397 501 510 484L559 476V402L507 395Q395 380 377 224Q369 155 369 74T363 -86T340 -231T270 -337T135 -378H32Z" />
<glyph unicode="~" glyph-name="asciitilde" horiz-adv-x="947" d="M83 417Q88 440 110 485T155 558T216 603T298 613L697 542Q728 535 757 555T800 600L814 624L869 623L861 598Q842 538 806 494Q733 404 647 422L248 493Q219 500 190 478T145 430L130 404L83 417Z" />
<glyph unicode="&#xa0;" glyph-name="uni00A0" horiz-adv-x="305" />
<glyph unicode="&#xa1;" glyph-name="exclamdown" horiz-adv-x="434" d="M180 692T154 722T127 799T152 878T218 910T285 877T310 798T284 722T219 692ZM135 -377Q135 -86 186 524L189 529L253 515V512Q295 -158 295 -375V-377Q289 -396 258 -406T194 -417Q135
-417 135 -377Z" />
<glyph unicode="&#xa2;" glyph-name="cent" horiz-adv-x="803" d="M375 1135L502 1152L480 920H487Q604 920 660 873T717 759Q717 676 622 660Q591 747 549 795T439 843Q349 843 288 743T227 475T305 188T512 69T737 148L758 102Q721 53 646 16T485 -29L514 -250L386
-267L409 -28Q310 -16 236 46Q87 172 87 412Q87 601 177 737T404 909L375 1135Z" />
<glyph unicode="&#xa3;" glyph-name="sterling" horiz-adv-x="1092" d="M82 0L89 58L257 96Q292 221 297 461L298 561L120 552L131 631L301 641L304 786Q316 1251 672 1251Q808 1251 904 1211L873 892L806 902L775 1141Q715 1171 661 1171T574 1159Q504 1133 481
1032T455 702V648L674 661L664 581L453 568V516Q450 215 391 78L890 77L1001 336L1064 322L1030 0H82Z" />
<glyph unicode="&#xa4;" glyph-name="currency" horiz-adv-x="769" d="M310 685T264 633T217 494T264 355T388 301T515 353T564 491T515 631T388 685ZM547 274Q457 218 390 218T240 268L163 179L96 247L180 325Q159 357 143 404T127 488Q127 569 174 638L83 723L151
789L229 701Q263 729 309 749T392 770T477 752T557 710L634 790L693 720L609 646Q653 568 653 511Q653 402 602 334L695 248L626 184L547 274Z" />
<glyph unicode="&#xa5;" glyph-name="yen" horiz-adv-x="1151" d="M90 1188L98 1244H537L529 1188L379 1156L618 638L845 1151L674 1188L680 1244H1074L1067 1188L941 1155L674 578H1004L993 505H655V338H1001L990 265H655V90L829 62L820 0H339L347 56L509 96V265H183L194
338H509V505H186L197 578H490L227 1152L90 1188Z" />
<glyph unicode="&#xa6;" glyph-name="brokenbar" horiz-adv-x="449" d="M193 537V1257L287 1248L285 529L193 537ZM193 -370V419L288 411V-380L193 -370Z" />
<glyph unicode="&#xa7;" glyph-name="section" horiz-adv-x="875" d="M166 1118Q272 1270 461 1270T760 1165L733 869L660 878L634 1096Q613 1136 558 1168T431 1200T304 1148T248 1018T281 888T367 797T484 720L610 644Q672 605 723 561Q838 462 830 318Q349
609 323 626Q221 691 167 764T113 938T166 1118ZM75 -238L96 39L172 29L204 -176Q235 -230 302 -264T455 -299T613 -242T686 -81T570 108Q519 145 457 181L334 256Q273 295 223 338Q110 437 118 576L592 294Q670 248 701 220Q776 153 803 98T831 -25Q831 -180 710
-280T409 -381Q305 -381 215 -341T75 -238Z" />
<glyph unicode="&#xa8;" glyph-name="dieresis" horiz-adv-x="365" d="M100 99T82 121T63 180T82 237T132 258T184 238T205 180T185 121T133 99ZM-167 99T-186 121T-205 180T-186 237T-136 258T-84 238T-64 180T-83 121T-135 99Z" />
<glyph unicode="&#xa9;" glyph-name="copyright" horiz-adv-x="1378" d="M542 264T460 368T377 640T474 919T711 1030Q808 1030 856 991T904 895Q904 826 825 813Q799 885 763 925T661 965T544 892T494 680T559 444T733 347T921 413L938 374Q904 329 833 297T683
264Q542 264 460 368ZM167 644Q167 391 313 227T686 62Q836 62 959 135T1153 337T1224 631T1159 930T971 1143T695 1222T421 1145T234 936T167 644ZM72 633Q72 776 121 901T253 1114T449 1251T687 1301Q877 1301 1021 1216T1241 981T1318 641T1237 301T1008 65T677
-21Q405 -21 239 161T72 633Z" />
<glyph unicode="&#xaa;" glyph-name="ordfeminine" horiz-adv-x="847" d="M275 725Q275 625 366 625Q451 625 514 715V900Q393 881 334 840T275 725ZM143 690Q143 794 234 869T514 950V980Q514 1095 488 1148T382 1202Q339 1202 322 1182Q293 1145 281 1023Q236
1020 204 1043T171 1111Q171 1174 256 1221T438 1268Q637 1268 637 1022V756Q637 692 649 666T711 631L759 622L752 574Q713 543 654 543T561 576T527 651V662H521Q501 617 447 577T316 537T192 578T143 690Z" />
<glyph unicode="&#xab;" glyph-name="guillemotleft" horiz-adv-x="432" d="M23 469L291 821L327 774L151 461L328 128L286 77L25 449L23 469ZM270 469L538 821L574 774L398 461L575 128L533 77L272 449L270 469Z" />
<glyph unicode="&#xac;" glyph-name="logicalnot" horiz-adv-x="931" d="M78 584L90 664H835L836 351L747 332V584H78Z" />
<glyph unicode="&#xad;" glyph-name="uni00AD" horiz-adv-x="573" d="M82 420L90 509L498 570L490 480L82 420Z" />
<glyph unicode="&#xae;" glyph-name="registered" horiz-adv-x="1351" d="M477 1461T363 1350T249 1041T361 723T650 604T949 719T1072 1025T953 1337T656 1459ZM177 1022Q177 1252 312 1386T652 1520Q947 1520 1078 1294Q1144 1181 1144 1030T1075 767T893 599T647
542T408 600T240 769T177 1022ZM584 1284Q579 1284 574 1284V1062H665Q750 1108 750 1181Q750 1285 619 1285H606L584 1284ZM398 774L403 813L478 834V1266L401 1279L406 1317Q532 1338 633 1338T793 1304T853 1209Q853 1091 722 1034L721 1033L805 926Q848 872
870 852T941 814L935 773Q913 765 867 765T785 795T708 899L647 1010H574V835L659 817L654 774H398Z" />
<glyph unicode="&#xaf;" glyph-name="overscore" horiz-adv-x="667" d="M108 1380L119 1456H560L550 1380H108Z" />
<glyph unicode="&#xb0;" glyph-name="degree" horiz-adv-x="424" d="M162 1251T135 1217T108 1124T137 1023T214 981T290 1014T319 1107T289 1208T211 1251ZM123 928T78 974T32 1103T88 1245T227 1304T353 1258T396 1128T339 986T203 928Z" />
<glyph unicode="&#xb1;" glyph-name="plusminus" horiz-adv-x="680" d="M95 482L107 568H316V807L404 795L405 568H625L614 482H405L407 238L316 251V482H95ZM60 26L77 110L688 113L671 29L60 26Z" />
<glyph unicode="&#xb2;" glyph-name="uni00B2" horiz-adv-x="631" d="M405 1038Q405 1194 272 1194Q197 1194 167 1154L143 1014L88 1019L83 1184Q110 1224 179 1249T342 1274T496 1223T558 1085T524 948Q466 864 398 808L320 744Q286 718 226 675L191 652H484L546
802L592 790L572 548H44L46 626L200 750Q308 838 356 903T405 1038Z" />
<glyph unicode="&#xb3;" glyph-name="uni00B3" horiz-adv-x="650" d="M56 598L89 768L148 762L154 634Q192 579 290 579Q343 579 385 620T427 726T361 834T204 878L196 918Q293 956 339 997T386 1089T357 1179T270 1217T186 1190L158 1049L95 1055L91 1210Q117
1241 183 1264T331 1288T473 1245T533 1130T483 1011T355 940V933Q458 921 516 871T574 733T481 579T262 511Q189 511 133 535T56 598Z" />
<glyph unicode="&#xb4;" glyph-name="acute" horiz-adv-x="567" d="M199 1376L327 1706L430 1667L248 1346L199 1376Z" />
<glyph unicode="&#xb6;" glyph-name="paragraph" horiz-adv-x="1291" d="M936 0V1245H1238L1231 1188L1058 1157V89L1244 63L1235 -1L936 0ZM649 1171Q313 1171 313 852Q313 717 399 627T642 537L624 463Q144 463 144 836Q144 1011 280 1128T604 1245H869V0H504L510
58L739 97V1169Q698 1171 649 1171Z" />
<glyph unicode="&#xb7;" glyph-name="middot" horiz-adv-x="402" d="M161 391T136 422T111 502T136 579T203 608T269 580T295 502T270 422T203 391Z" />
<glyph unicode="&#xb8;" glyph-name="cedilla" horiz-adv-x="361" d="M76 -339Q119 -324 149 -298T179 -254T175 -224Q168 -200 152 -182Q152 -182 136 -164Q133 -160 117 -145T99 -128L190 3H257L203 -76Q292 -155 292 -227Q292 -330 92 -390L76 -339Z" />
<glyph unicode="&#xb9;" glyph-name="uni00B9" horiz-adv-x="563" d="M69 548L72 608L230 631V1161H80L84 1222L352 1258H371V628L526 618L521 548H69Z" />
<glyph unicode="&#xba;" glyph-name="ordmasculine" horiz-adv-x="944" d="M351 1198T306 1127T261 964Q261 800 315 702T484 604Q568 604 611 677T655 850T635 1023T564 1147T432 1198ZM308 536T217 633T126 866T175 1092T303 1225T475 1270Q617 1270 703 1168T790
905T692 641T451 536Z" />
<glyph unicode="&#xbb;" glyph-name="guillemotright" horiz-adv-x="432" d="M576 469L574 449L313 77L271 128L448 461L272 774L308 821L576 469ZM329 469L327 449L66 77L24 128L201 461L25 774L61 821L329 469Z" />
<glyph unicode="&#xbc;" glyph-name="onequarter" horiz-adv-x="1737" d="M182 -26L558 588L912 1211L1048 1207L1046 1190L680 591L332 -40L182 -26ZM-15 550L-12 610L146 633V1163H-4L0 1224L268 1260H287V630L442 620L437 550H-15ZM748 274H952V532L748 274ZM642
250L1038 730L1088 721Q1080 626 1080 425V274H1228L1219 188H1080V74L1199 55L1193 0H799L804 50L954 76V192H652L642 250Z" />
<glyph unicode="&#xbd;" glyph-name="onehalf" horiz-adv-x="1737" d="M172 -26L548 588L902 1211L1038 1207L1036 1190L670 591L322 -40L172 -26ZM-15 550L-12 610L146 633V1163H-4L0 1224L268 1260H287V630L442 620L437 550H-15ZM1107 490Q1107 646 974 646Q899
646 869 606L845 467L790 472L785 636Q812 676 881 701T1044 726T1198 675T1260 528T1200 361T1088 250L928 128L893 104H1186L1248 254L1294 242L1274 1H746L748 78L902 202Q1010 290 1058 355T1107 490Z" />
<glyph unicode="&#xbe;" glyph-name="threequarters" horiz-adv-x="1737" d="M748 274H952V532L748 274ZM642 250L1038 730L1088 721Q1080 626 1080 425V274H1228L1219 188H1080V74L1199 55L1193 0H799L804 50L954 76V192H652L642 250ZM189 -26L566 588L919 1211L1056
1207L1053 1190L687 591L340 -40L189 -26ZM-8 595L26 766L85 759L91 632Q128 576 226 576Q279 576 321 617T364 724T297 832T140 876L132 915Q236 956 279 998T322 1090T294 1176T206 1214T122 1188L94 1046L32 1052L28 1208Q54 1239 120 1262T268 1286T410 1242T470
1127T420 1008T292 937V930Q395 918 452 868T510 730T417 576T198 508Q125 508 69 532T-8 595Z" />
<glyph unicode="&#xbf;" glyph-name="questiondown" horiz-adv-x="619" d="M393 935T418 902T443 823T417 746T352 716T287 746T260 824T285 903T351 935ZM535 -173Q594 -200 594 -269Q594 -307 539 -347T396 -387Q268 -387 168 -270T67 7Q67 71 98 119T173 197L260
252Q366 315 366 392Q366 443 331 529L389 546Q420 511 445 451T470 333T438 229T361 157L270 104Q161 43 161 -39T216 -184T343 -247Q465 -247 535 -173Z" />
<glyph unicode="&#xc0;" glyph-name="Agrave" horiz-adv-x="1324" d="M453 534H826L646 1060L453 534ZM35 0L43 58L188 101L626 1246L728 1268L1130 95L1265 64L1257 0H795L805 58L974 101L850 455H425L294 95L479 63L469 0H35ZM482 1701L586 1738L719 1403L668
1372L482 1701Z" />
<glyph unicode="&#xc1;" glyph-name="Aacute" horiz-adv-x="1324" d="M453 534H826L646 1060L453 534ZM35 0L43 58L188 101L626 1246L728 1268L1130 95L1265 64L1257 0H795L805 58L974 101L850 455H425L294 95L479 63L469 0H35ZM638 1402L766 1732L869 1693L687
1372L638 1402Z" />
<glyph unicode="&#xc2;" glyph-name="Acircumflex" horiz-adv-x="1324" d="M453 534H826L646 1060L453 534ZM35 0L43 58L188 101L626 1246L728 1268L1130 95L1265 64L1257 0H795L805 58L974 101L850 455H425L294 95L479 63L469 0H35ZM479 1402L647 1582L702 1596L880
1410L840 1373L667 1495H658L509 1372L479 1402Z" />
<glyph unicode="&#xc3;" glyph-name="Atilde" horiz-adv-x="1324" d="M453 534H826L646 1060L453 534ZM35 0L43 58L188 101L626 1246L728 1268L1130 95L1265 64L1257 0H795L805 58L974 101L850 455H425L294 95L479 63L469 0H35ZM454 1382Q473 1448 495 1475Q543
1534 601 1521L804 1479Q848 1467 880 1533L922 1531Q892 1427 826 1398Q798 1385 767 1392L566 1434Q525 1444 487 1372L454 1382Z" />
<glyph unicode="&#xc4;" glyph-name="Adieresis" horiz-adv-x="1324" d="M453 534H826L646 1060L453 534ZM35 0L43 58L188 101L626 1246L728 1268L1130 95L1265 64L1257 0H795L805 58L974 101L850 455H425L294 95L479 63L469 0H35ZM780 1373T762 1395T743 1454T762
1511T812 1532T864 1512T885 1454T865 1395T813 1373ZM513 1373T494 1395T475 1454T494 1511T544 1532T596 1512T616 1454T597 1395T545 1373Z" />
<glyph unicode="&#xc5;" glyph-name="Aring" horiz-adv-x="1324" d="M453 534H826L646 1060L453 534ZM35 0L43 58L188 101L626 1246L728 1268L1130 95L1265 64L1257 0H795L805 58L974 101L850 455H425L294 95L479 63L469 0H35ZM620 1659T598 1625T575 1542T601
1451T672 1410T740 1440T764 1525T737 1619T665 1659ZM593 1365T551 1410T508 1528T556 1652T675 1703T789 1658T832 1541T785 1418T665 1365Z" />
<glyph unicode="&#xc6;" glyph-name="AE" horiz-adv-x="1686" d="M532 553H842L845 1075L532 553ZM0 2L8 60L147 102L791 1154L567 1187L576 1244H1600L1568 926L1503 936L1472 1173H986V669H1285L1325 801L1397 808L1363 421L1297 409L1272 596H986V75H1500L1586
326L1646 313L1616 0H654L661 58L841 96V472H486L259 96L445 66L435 2H0Z" />
<glyph unicode="&#xc7;" glyph-name="Ccedilla" horiz-adv-x="1113" d="M511 -354Q554 -339 584 -313T614 -269T610 -238Q603 -215 586 -196Q586 -196 572 -179Q568 -175 552 -160T534 -143L617 -24Q396 -9 252 158T108 599Q108 793 206 973T488 1228Q590 1270
711 1270Q932 1270 1062 1171L1031 836L963 846L927 1086Q843 1195 670 1195T384 1043T271 637T397 234T727 84Q827 84 920 132T1084 252L1113 195Q1053 115 937 49T684 -24L638 -91Q727 -170 727 -242Q727 -345 527 -405L511 -354Z" />
<glyph unicode="&#xc8;" glyph-name="Egrave" horiz-adv-x="1107" d="M84 1185L93 1244H1044L1013 925L946 934L916 1173H413V668H728L768 797L840 808L807 419L741 408L716 594H413V75H942L1028 324L1090 313L1060 0H90L96 58L265 96V1151L84 1185ZM423 1701L527
1738L660 1403L609 1372L423 1701Z" />
<glyph unicode="&#xc9;" glyph-name="Eacute" horiz-adv-x="1107" d="M84 1185L93 1244H1044L1013 925L946 934L916 1173H413V668H728L768 797L840 808L807 419L741 408L716 594H413V75H942L1028 324L1090 313L1060 0H90L96 58L265 96V1151L84 1185ZM520 1402L648
1732L751 1693L569 1372L520 1402Z" />
<glyph unicode="&#xca;" glyph-name="Ecircumflex" horiz-adv-x="1107" d="M84 1185L93 1244H1044L1013 925L946 934L916 1173H413V668H728L768 797L840 808L807 419L741 408L716 594H413V75H942L1028 324L1090 313L1060 0H90L96 58L265 96V1151L84 1185ZM392
1402L560 1582L615 1596L793 1410L753 1373L580 1495H571L422 1372L392 1402Z" />
<glyph unicode="&#xcb;" glyph-name="Edieresis" horiz-adv-x="1107" d="M84 1185L93 1244H1044L1013 925L946 934L916 1173H413V668H728L768 797L840 808L807 419L741 408L716 594H413V75H942L1028 324L1090 313L1060 0H90L96 58L265 96V1151L84 1185ZM717 1373T699
1395T680 1454T699 1511T749 1532T801 1512T822 1454T802 1395T750 1373ZM450 1373T431 1395T412 1454T431 1511T481 1532T533 1512T553 1454T534 1395T482 1373Z" />
<glyph unicode="&#xcc;" glyph-name="Igrave" horiz-adv-x="674" d="M86 1187L94 1244H595L586 1187L414 1156V90L601 63L591 0H94L101 58L263 96V1154L86 1187ZM159 1701L263 1738L396 1403L345 1372L159 1701Z" />
<glyph unicode="&#xcd;" glyph-name="Iacute" horiz-adv-x="674" d="M86 1187L94 1244H595L586 1187L414 1156V90L601 63L591 0H94L101 58L263 96V1154L86 1187ZM295 1402L423 1732L526 1693L344 1372L295 1402Z" />
<glyph unicode="&#xce;" glyph-name="Icircumflex" horiz-adv-x="674" d="M86 1187L94 1244H595L586 1187L414 1156V90L601 63L591 0H94L101 58L263 96V1154L86 1187ZM143 1402L311 1582L366 1596L544 1410L504 1373L331 1495H322L173 1372L143 1402Z" />
<glyph unicode="&#xcf;" glyph-name="Idieresis" horiz-adv-x="674" d="M86 1187L94 1244H595L586 1187L414 1156V90L601 63L591 0H94L101 58L263 96V1154L86 1187ZM444 1373T426 1395T407 1454T426 1511T476 1532T528 1512T549 1454T529 1395T477 1373ZM177 1373T158
1395T139 1454T158 1511T208 1532T260 1512T280 1454T261 1395T209 1373Z" />
<glyph unicode="&#xd0;" glyph-name="Eth" horiz-adv-x="1348" d="M409 79H605Q771 79 892 148Q1132 285 1132 599Q1132 855 985 1018T557 1182Q458 1182 409 1176V672L681 692L671 616L409 597V79ZM82 574L92 650L263 662V1129L90 1155L100 1211Q411 1260 580
1260T872 1226Q1096 1165 1196 1011T1297 651T1175 275T823 36Q700 0 553 0H81L92 58L263 101V587L82 574Z" />
<glyph unicode="&#xd1;" glyph-name="Ntilde" horiz-adv-x="1402" d="M63 1188L73 1244H400L1067 225V1154L882 1187L891 1244H1341L1330 1187L1164 1156V-3L1060 -24L347 1047V90L531 63L521 0H73L79 58L246 96V1147L63 1188ZM473 1382Q492 1448 514 1475Q562
1534 620 1521L823 1479Q867 1467 899 1533L941 1531Q911 1427 845 1398Q817 1385 786 1392L585 1434Q544 1444 506 1372L473 1382Z" />
<glyph unicode="&#xd2;" glyph-name="Ograve" horiz-adv-x="1331" d="M278 655Q278 551 305 441T383 244T518 108T698 58T864 88Q990 144 1051 279T1113 579T1066 883T919 1109T681 1197Q435 1197 334 974Q278 848 278 655ZM246 148T179 295T111 627T185 960T401
1191T730 1274Q859 1274 964 1223T1137 1084Q1279 899 1279 624Q1279 418 1175 248Q1007 -27 640 -27Q499 -27 373 60ZM544 1701L648 1738L781 1403L730 1372L544 1701Z" />
<glyph unicode="&#xd3;" glyph-name="Oacute" horiz-adv-x="1331" d="M278 655Q278 551 305 441T383 244T518 108T698 58T864 88Q990 144 1051 279T1113 579T1066 883T919 1109T681 1197Q435 1197 334 974Q278 848 278 655ZM246 148T179 295T111 627T185 960T401
1191T730 1274Q859 1274 964 1223T1137 1084Q1279 899 1279 624Q1279 418 1175 248Q1007 -27 640 -27Q499 -27 373 60ZM681 1402L809 1732L912 1693L730 1372L681 1402Z" />
<glyph unicode="&#xd4;" glyph-name="Ocircumflex" horiz-adv-x="1331" d="M278 655Q278 551 305 441T383 244T518 108T698 58T864 88Q990 144 1051 279T1113 579T1066 883T919 1109T681 1197Q435 1197 334 974Q278 848 278 655ZM246 148T179 295T111 627T185
960T401 1191T730 1274Q859 1274 964 1223T1137 1084Q1279 899 1279 624Q1279 418 1175 248Q1007 -27 640 -27Q499 -27 373 60ZM529 1402L697 1582L752 1596L930 1410L890 1373L717 1495H708L559 1372L529 1402Z" />
<glyph unicode="&#xd5;" glyph-name="Otilde" horiz-adv-x="1331" d="M278 655Q278 551 305 441T383 244T518 108T698 58T864 88Q990 144 1051 279T1113 579T1066 883T919 1109T681 1197Q435 1197 334 974Q278 848 278 655ZM246 148T179 295T111 627T185 960T401
1191T730 1274Q859 1274 964 1223T1137 1084Q1279 899 1279 624Q1279 418 1175 248Q1007 -27 640 -27Q499 -27 373 60ZM496 1382Q515 1448 537 1475Q585 1534 643 1521L846 1479Q890 1467 922 1533L964 1531Q934 1427 868 1398Q840 1385 809 1392L608 1434Q567
1444 529 1372L496 1382Z" />
<glyph unicode="&#xd6;" glyph-name="Odieresis" horiz-adv-x="1331" d="M278 655Q278 551 305 441T383 244T518 108T698 58T864 88Q990 144 1051 279T1113 579T1066 883T919 1109T681 1197Q435 1197 334 974Q278 848 278 655ZM246 148T179 295T111 627T185 960T401
1191T730 1274Q859 1274 964 1223T1137 1084Q1279 899 1279 624Q1279 418 1175 248Q1007 -27 640 -27Q499 -27 373 60ZM830 1373T812 1395T793 1454T812 1511T862 1532T914 1512T935 1454T915 1395T863 1373ZM563 1373T544 1395T525 1454T544 1511T594 1532T646
1512T666 1454T647 1395T595 1373Z" />
<glyph unicode="&#xd7;" glyph-name="multiply" horiz-adv-x="779" d="M65 302L235 462L66 625L137 681L295 514L464 686L520 615L352 458L525 292L455 236L291 407L122 232L65 302Z" />
<glyph unicode="&#xd8;" glyph-name="Oslash" horiz-adv-x="1336" d="M280 148Q118 333 118 620Q118 812 192 960T408 1191T736 1274T1057 1170L1105 1233L1226 1220L1128 1102Q1284 922 1284 624Q1284 418 1184 254Q1012 -27 666 -27Q487 -27 352 80L292 -5L176
8L280 148ZM1022 991L422 199Q536 58 715 58Q957 58 1062 288Q1119 412 1119 574Q1119 821 1022 991ZM984 1048Q869 1197 687 1197Q443 1197 340 974Q283 849 283 678Q283 424 384 255L984 1048Z" />
<glyph unicode="&#xd9;" glyph-name="Ugrave" horiz-adv-x="1371" d="M61 1187L70 1244H568L561 1187L392 1156V503Q392 73 752 73Q916 73 1005 172T1095 466L1096 1154L912 1187L920 1244H1371L1362 1187L1196 1156L1191 503Q1189 238 1075 106T711 -27Q244 -27
244 465V1154L61 1187ZM535 1701L639 1738L772 1403L721 1372L535 1701Z" />
<glyph unicode="&#xda;" glyph-name="Uacute" horiz-adv-x="1371" d="M61 1187L70 1244H568L561 1187L392 1156V503Q392 73 752 73Q916 73 1005 172T1095 466L1096 1154L912 1187L920 1244H1371L1362 1187L1196 1156L1191 503Q1189 238 1075 106T711 -27Q244 -27
244 465V1154L61 1187ZM672 1402L800 1732L903 1693L721 1372L672 1402Z" />
<glyph unicode="&#xdb;" glyph-name="Ucircumflex" horiz-adv-x="1371" d="M61 1187L70 1244H568L561 1187L392 1156V503Q392 73 752 73Q916 73 1005 172T1095 466L1096 1154L912 1187L920 1244H1371L1362 1187L1196 1156L1191 503Q1189 238 1075 106T711 -27Q244
-27 244 465V1154L61 1187ZM519 1402L687 1582L742 1596L920 1410L880 1373L707 1495H698L549 1372L519 1402Z" />
<glyph unicode="&#xdc;" glyph-name="Udieresis" horiz-adv-x="1371" d="M61 1187L70 1244H568L561 1187L392 1156V503Q392 73 752 73Q916 73 1005 172T1095 466L1096 1154L912 1187L920 1244H1371L1362 1187L1196 1156L1191 503Q1189 238 1075 106T711 -27Q244
-27 244 465V1154L61 1187ZM820 1373T802 1395T783 1454T802 1511T852 1532T904 1512T925 1454T905 1395T853 1373ZM553 1373T534 1395T515 1454T534 1511T584 1532T636 1512T656 1454T637 1395T585 1373Z" />
<glyph unicode="&#xdd;" glyph-name="Yacute" horiz-adv-x="1113" d="M-9 1188L0 1244H463L455 1188L292 1156L588 605L875 1152L691 1188L697 1244H1114L1108 1188L981 1156L634 509V91L806 63L797 0H314L322 58L484 96V497L130 1152L-9 1188ZM529 1402L657 1732L760
1693L578 1372L529 1402Z" />
<glyph unicode="&#xde;" glyph-name="Thorn" horiz-adv-x="889" d="M471 322L524 323Q698 327 783 409T868 630T778 861T516 953L409 946V94L644 64L633 0H87L94 57L259 96V1154L81 1187L89 1244H590L582 1187L409 1156V1021Q471 1024 558 1024Q750 1024 891 941T1033
660Q1033 542 969 448T799 304T569 254Q533 254 485 259Q471 301 471 322Z" />
<glyph unicode="&#xdf;" glyph-name="germandbls" horiz-adv-x="1130" d="M70 0L82 52L233 88V804H86L97 853L235 877Q250 1129 410 1244Q493 1304 604 1304T793 1235T870 1064T794 877Q762 842 730 810Q653 733 653 682Q653 590 805 504L931 431Q994 393 1038
338T1083 214Q1083 106 995 37T786 -33T587 21T507 158Q507 208 537 236T613 269Q654 41 817 41Q883 41 924 73T966 152Q966 230 858 292L758 353Q704 387 658 421T581 508T550 616Q550 714 618 796L676 862Q744 941 744 1020T684 1159T541 1219T413 1149T368 945V0H70Z"
/>
<glyph unicode="&#xe0;" glyph-name="agrave" horiz-adv-x="847" d="M230 207Q230 154 264 113T356 71T467 104T554 186V430Q390 402 310 351T230 207ZM93 169Q93 293 206 376T554 481V529Q554 670 514 743T371 816Q315 816 294 795T263 739T237 601Q127 601 127
685Q127 736 177 784T301 860T443 889Q567 889 624 815T681 581V230Q681 153 699 118T781 73L839 62L830 2Q745 -18 694 -18T607 21T571 116V131H563Q540 76 469 26T304 -25T152 27T93 169ZM258 1319L362 1356L495 1021L444 990L258 1319Z" />
<glyph unicode="&#xe1;" glyph-name="aacute" horiz-adv-x="847" d="M230 207Q230 154 264 113T356 71T467 104T554 186V430Q390 402 310 351T230 207ZM93 169Q93 293 206 376T554 481V529Q554 670 514 743T371 816Q315 816 294 795T263 739T237 601Q127 601 127
685Q127 736 177 784T301 860T443 889Q567 889 624 815T681 581V230Q681 153 699 118T781 73L839 62L830 2Q745 -18 694 -18T607 21T571 116V131H563Q540 76 469 26T304 -25T152 27T93 169ZM395 1020L523 1350L626 1311L444 990L395 1020Z" />
<glyph unicode="&#xe2;" glyph-name="acircumflex" horiz-adv-x="847" d="M230 207Q230 154 264 113T356 71T467 104T554 186V430Q390 402 310 351T230 207ZM93 169Q93 293 206 376T554 481V529Q554 670 514 743T371 816Q315 816 294 795T263 739T237 601Q127
601 127 685Q127 736 177 784T301 860T443 889Q567 889 624 815T681 581V230Q681 153 699 118T781 73L839 62L830 2Q745 -18 694 -18T607 21T571 116V131H563Q540 76 469 26T304 -25T152 27T93 169ZM243 1020L411 1200L466 1214L644 1028L604 991L431 1113H422L273
990L243 1020Z" />
<glyph unicode="&#xe3;" glyph-name="atilde" horiz-adv-x="847" d="M230 207Q230 154 264 113T356 71T467 104T554 186V430Q390 402 310 351T230 207ZM93 169Q93 293 206 376T554 481V529Q554 670 514 743T371 816Q315 816 294 795T263 739T237 601Q127 601 127
685Q127 736 177 784T301 860T443 889Q567 889 624 815T681 581V230Q681 153 699 118T781 73L839 62L830 2Q745 -18 694 -18T607 21T571 116V131H563Q540 76 469 26T304 -25T152 27T93 169ZM210 1000Q229 1066 251 1093Q299 1152 357 1139L560 1097Q604 1085 636
1151L678 1149Q648 1045 582 1016Q554 1003 523 1010L322 1052Q281 1062 243 990L210 1000Z" />
<glyph unicode="&#xe4;" glyph-name="adieresis" horiz-adv-x="847" d="M230 207Q230 154 264 113T356 71T467 104T554 186V430Q390 402 310 351T230 207ZM93 169Q93 293 206 376T554 481V529Q554 670 514 743T371 816Q315 816 294 795T263 739T237 601Q127 601
127 685Q127 736 177 784T301 860T443 889Q567 889 624 815T681 581V230Q681 153 699 118T781 73L839 62L830 2Q745 -18 694 -18T607 21T571 116V131H563Q540 76 469 26T304 -25T152 27T93 169ZM543 990T525 1012T506 1071T525 1128T575 1149T627 1129T648 1071T628
1012T576 990ZM276 990T257 1012T238 1071T257 1128T307 1149T359 1129T379 1071T360 1012T308 990Z" />
<glyph unicode="&#xe5;" glyph-name="aring" horiz-adv-x="847" d="M230 207Q230 154 264 113T356 71T467 104T554 186V430Q390 402 310 351T230 207ZM93 169Q93 293 206 376T554 481V529Q554 670 514 743T371 816Q315 816 294 795T263 739T237 601Q127 601 127
685Q127 736 177 784T301 860T443 889Q567 889 624 815T681 581V230Q681 153 699 118T781 73L839 62L830 2Q745 -18 694 -18T607 21T571 116V131H563Q540 76 469 26T304 -25T152 27T93 169ZM342 1284T320 1250T297 1166T323 1076T394 1035T462 1065T486 1150T459
1244T387 1284ZM315 990T273 1035T230 1153T278 1277T397 1328T511 1283T554 1166T507 1043T387 990Z" />
<glyph unicode="&#xe6;" glyph-name="ae" horiz-adv-x="1248" d="M678 492L1028 529Q1038 561 1038 630T994 754T873 809T739 724T678 492ZM228 200Q228 138 261 100T361 62T490 118T554 255V416Q381 390 305 342T228 200ZM1204 104Q1089 -30 895 -30Q809 -30
714 26T592 172Q568 94 484 34T305 -26T151 24T92 163Q92 285 198 362T554 476V539Q554 678 516 745T389 813T275 758T238 609Q130 609 130 693Q130 769 231 828T443 888Q610 888 651 748Q757 886 928 886Q1042 886 1110 809T1179 578Q1179 518 1161 448L678 428Q682
217 804 122Q869 70 971 70T1185 146L1204 104Z" />
<glyph unicode="&#xe7;" glyph-name="ccedilla" horiz-adv-x="779" d="M346 -359Q389 -344 419 -318T449 -274T445 -244Q438 -220 422 -202Q422 -202 406 -184Q403 -180 387 -165T369 -148L451 -30Q286 -28 189 96T91 421T207 755T491 888Q608 888 665 841T722
726Q722 643 627 627Q596 714 553 762T443 810Q351 810 291 722T231 468T309 185T516 69T742 148L763 102Q731 58 665 23T522 -25L473 -96Q562 -175 562 -247Q562 -350 362 -410L346 -359Z" />
<glyph unicode="&#xe8;" glyph-name="egrave" horiz-adv-x="812" d="M237 507L588 530Q595 550 595 625T553 755T432 809T298 731T237 507ZM762 104Q647 -30 453 -30Q306 -30 200 84T94 420Q94 528 128 618T218 766Q336 886 486 886Q601 886 668 810T736 582Q736
517 719 451L235 445Q239 296 308 187T509 78T743 148L762 104ZM284 1319L388 1356L521 1021L470 990L284 1319Z" />
<glyph unicode="&#xe9;" glyph-name="eacute" horiz-adv-x="812" d="M237 507L588 530Q595 550 595 625T553 755T432 809T298 731T237 507ZM762 104Q647 -30 453 -30Q306 -30 200 84T94 420Q94 528 128 618T218 766Q336 886 486 886Q601 886 668 810T736 582Q736
517 719 451L235 445Q239 296 308 187T509 78T743 148L762 104ZM421 1020L549 1350L652 1311L470 990L421 1020Z" />
<glyph unicode="&#xea;" glyph-name="ecircumflex" horiz-adv-x="812" d="M237 507L588 530Q595 550 595 625T553 755T432 809T298 731T237 507ZM762 104Q647 -30 453 -30Q306 -30 200 84T94 420Q94 528 128 618T218 766Q336 886 486 886Q601 886 668 810T736
582Q736 517 719 451L235 445Q239 296 308 187T509 78T743 148L762 104ZM285 1020L453 1200L508 1214L686 1028L646 991L473 1113H464L315 990L285 1020Z" />
<glyph unicode="&#xeb;" glyph-name="edieresis" horiz-adv-x="812" d="M237 507L588 530Q595 550 595 625T553 755T432 809T298 731T237 507ZM762 104Q647 -30 453 -30Q306 -30 200 84T94 420Q94 528 128 618T218 766Q336 886 486 886Q601 886 668 810T736 582Q736
517 719 451L235 445Q239 296 308 187T509 78T743 148L762 104ZM586 990T568 1012T549 1071T568 1128T618 1149T670 1129T691 1071T671 1012T619 990ZM319 990T300 1012T281 1071T300 1128T350 1149T402 1129T422 1071T403 1012T351 990Z" />
<glyph unicode="&#xec;" glyph-name="igrave" horiz-adv-x="555" d="M80 0L92 55L243 87V772L91 814L99 865L358 887L374 871V87L534 57L523 0H80ZM122 1319L226 1356L359 1021L308 990L122 1319Z" />
<glyph unicode="&#xed;" glyph-name="iacute" horiz-adv-x="555" d="M80 0L92 55L243 87V772L91 814L99 865L358 887L374 871V87L534 57L523 0H80ZM259 1020L387 1350L490 1311L308 990L259 1020Z" />
<glyph unicode="&#xee;" glyph-name="icircumflex" horiz-adv-x="555" d="M80 0L92 55L243 87V772L91 814L99 865L358 887L374 871V87L534 57L523 0H80ZM107 1020L275 1200L330 1214L508 1028L468 991L295 1113H286L137 990L107 1020Z" />
<glyph unicode="&#xef;" glyph-name="idieresis" horiz-adv-x="555" d="M80 0L92 55L243 87V772L91 814L99 865L358 887L374 871V87L534 57L523 0H80ZM408 990T390 1012T371 1071T390 1128T440 1149T492 1129T513 1071T493 1012T441 990ZM141 990T122 1012T103
1071T122 1128T172 1149T224 1129T244 1071T225 1012T173 990Z" />
<glyph unicode="&#xf0;" glyph-name="eth" horiz-adv-x="931" d="M247 287T320 169T506 50Q581 50 630 100Q721 193 721 407T639 747T456 875H451Q380 874 332 821Q246 724 246 506ZM107 451Q107 672 208 810T469 949Q530 949 587 913T667 820L674 821Q643 936
541 1086L309 1040L320 1103L507 1141Q438 1233 361 1303H453Q530 1255 611 1164L767 1197L758 1133L655 1112Q858 843 858 465Q858 239 753 106T483 -27Q266 -27 165 178Q107 296 107 451Z" />
<glyph unicode="&#xf1;" glyph-name="ntilde" horiz-adv-x="1071" d="M79 0L87 52L240 86V755L85 794L92 846L357 876L369 862L359 730H367Q417 792 502 841T686 890T847 817T909 600V86L1050 58L1043 0H630L638 52L778 86V568Q778 676 731 728T611 781T484 756T370
670V86L516 58L506 0H79ZM331 1000Q350 1066 372 1093Q420 1152 478 1139L681 1097Q725 1085 757 1151L799 1149Q769 1045 703 1016Q675 1003 644 1010L443 1052Q402 1062 364 990L331 1000Z" />
<glyph unicode="&#xf2;" glyph-name="ograve" horiz-adv-x="944" d="M360 806T298 714T235 495T266 274T363 116T527 54T686 148T747 392T678 668Q645 730 591 768T469 806Q360 806 298 714ZM309 -27T202 94T94 422T215 760T512 891Q625 891 711 831T843 669T888
439Q888 234 772 104T482 -27ZM327 1319L431 1356L564 1021L513 990L327 1319Z" />
<glyph unicode="&#xf3;" glyph-name="oacute" horiz-adv-x="944" d="M360 806T298 714T235 495T266 274T363 116T527 54T686 148T747 392T678 668Q645 730 591 768T469 806Q360 806 298 714ZM309 -27T202 94T94 422T215 760T512 891Q625 891 711 831T843 669T888
439Q888 234 772 104T482 -27ZM464 1020L592 1350L695 1311L513 990L464 1020Z" />
<glyph unicode="&#xf4;" glyph-name="ocircumflex" horiz-adv-x="944" d="M360 806T298 714T235 495T266 274T363 116T527 54T686 148T747 392T678 668Q645 730 591 768T469 806Q360 806 298 714ZM309 -27T202 94T94 422T215 760T512 891Q625 891 711 831T843
669T888 439Q888 234 772 104T482 -27ZM312 1020L480 1200L535 1214L713 1028L673 991L500 1113H491L342 990L312 1020Z" />
<glyph unicode="&#xf5;" glyph-name="otilde" horiz-adv-x="944" d="M360 806T298 714T235 495T266 274T363 116T527 54T686 148T747 392T678 668Q645 730 591 768T469 806Q360 806 298 714ZM309 -27T202 94T94 422T215 760T512 891Q625 891 711 831T843 669T888
439Q888 234 772 104T482 -27ZM279 1000Q298 1066 320 1093Q368 1152 426 1139L629 1097Q673 1085 705 1151L747 1149Q717 1045 651 1016Q623 1003 592 1010L391 1052Q350 1062 312 990L279 1000Z" />
<glyph unicode="&#xf6;" glyph-name="odieresis" horiz-adv-x="944" d="M360 806T298 714T235 495T266 274T363 116T527 54T686 148T747 392T678 668Q645 730 591 768T469 806Q360 806 298 714ZM309 -27T202 94T94 422T215 760T512 891Q625 891 711 831T843 669T888
439Q888 234 772 104T482 -27ZM612 990T594 1012T575 1071T594 1128T644 1149T696 1129T717 1071T697 1012T645 990ZM345 990T326 1012T307 1071T326 1128T376 1149T428 1129T448 1071T429 1012T377 990Z" />
<glyph unicode="&#xf7;" glyph-name="divide" horiz-adv-x="958" d="M433 676T408 708T383 789T407 866T473 894T540 866T567 788T542 708T475 676ZM433 112T408 144T383 225T407 302T473 330T540 301T567 224T542 144T475 112ZM68 465L81 550H893L882 465H68Z" />
<glyph unicode="&#xf8;" glyph-name="oslash" horiz-adv-x="944" d="M88 417Q88 642 211 772T507 903Q643 903 739 816L783 873L918 880L803 741Q883 618 883 429T766 106T493 -27T235 58L193 6L56 0L170 129Q88 245 88 417ZM692 638L309 176Q386 54 517 54Q620
54 680 151T741 386T692 638ZM663 695Q586 819 471 819T293 724T231 486T281 230L663 695Z" />
<glyph unicode="&#xf9;" glyph-name="ugrave" horiz-adv-x="1013" d="M705 132Q600 -24 427 -24Q199 -24 199 275V757L54 800L62 853L311 874L327 857V317Q327 86 499 86Q614 86 705 187V754L548 790L554 850L820 874L834 857V223Q834 148 855 115T933 70L987
58L980 -1Q912 -21 851 -21T753 19T717 120V132H705ZM331 1319L435 1356L568 1021L517 990L331 1319Z" />
<glyph unicode="&#xfa;" glyph-name="uacute" horiz-adv-x="1013" d="M705 132Q600 -24 427 -24Q199 -24 199 275V757L54 800L62 853L311 874L327 857V317Q327 86 499 86Q614 86 705 187V754L548 790L554 850L820 874L834 857V223Q834 148 855 115T933 70L987
58L980 -1Q912 -21 851 -21T753 19T717 120V132H705ZM444 1020L572 1350L675 1311L493 990L444 1020Z" />
<glyph unicode="&#xfb;" glyph-name="ucircumflex" horiz-adv-x="1013" d="M705 132Q600 -24 427 -24Q199 -24 199 275V757L54 800L62 853L311 874L327 857V317Q327 86 499 86Q614 86 705 187V754L548 790L554 850L820 874L834 857V223Q834 148 855 115T933 70L987
58L980 -1Q912 -21 851 -21T753 19T717 120V132H705ZM300 1020L468 1200L523 1214L701 1028L661 991L488 1113H479L330 990L300 1020Z" />
<glyph unicode="&#xfc;" glyph-name="udieresis" horiz-adv-x="1013" d="M705 132Q600 -24 427 -24Q199 -24 199 275V757L54 800L62 853L311 874L327 857V317Q327 86 499 86Q614 86 705 187V754L548 790L554 850L820 874L834 857V223Q834 148 855 115T933 70L987
58L980 -1Q912 -21 851 -21T753 19T717 120V132H705ZM601 990T583 1012T564 1071T583 1128T633 1149T685 1129T706 1071T686 1012T634 990ZM334 990T315 1012T296 1071T315 1128T365 1149T417 1129T437 1071T418 1012T366 990Z" />
<glyph unicode="&#xfd;" glyph-name="yacute" horiz-adv-x="936" d="M113 -379T72 -349T30 -267T75 -176Q144 -229 233 -229Q344 -229 415 -49L438 12L160 772L36 805L45 861H428L422 808L295 775L510 195L740 771L610 806L621 861H938L933 808L832 772L502 -53Q430
-233 359 -306T175 -379Q113 -379 72 -349ZM443 1020L571 1350L674 1311L492 990L443 1020Z" />
<glyph unicode="&#xfe;" glyph-name="thorn" horiz-adv-x="961" d="M39 -370L45 -311L197 -282L194 1154L44 1196L52 1250L313 1270L329 1254V849L317 740H326Q454 898 595 898T820 786T905 465T786 120T483 -17Q425 -17 377 -4L373 82Q424 66 501 66Q627 66 693
162T760 425T705 692T537 792Q475 792 425 761T326 678V-283L482 -309L472 -370H39Z" />
<glyph unicode="&#xff;" glyph-name="ydieresis" horiz-adv-x="936" d="M113 -379T72 -349T30 -267T75 -176Q144 -229 233 -229Q344 -229 415 -49L438 12L160 772L36 805L45 861H428L422 808L295 775L510 195L740 771L610 806L621 861H938L933 808L832 772L502
-53Q430 -233 359 -306T175 -379Q113 -379 72 -349ZM591 990T573 1012T554 1071T573 1128T623 1149T675 1129T696 1071T676 1012T624 990ZM324 990T305 1012T286 1071T305 1128T355 1149T407 1129T427 1071T408 1012T356 990Z" />
<glyph unicode="&#x2013;" glyph-name="endash" horiz-adv-x="792" d="M86 420L99 503L710 509L697 426L86 420Z" />
<glyph unicode="&#x2014;" glyph-name="emdash" horiz-adv-x="1301" d="M86 420L100 503L1220 509L1206 426L86 420Z" />
<glyph unicode="&#x2018;" glyph-name="quoteleft" horiz-adv-x="397" d="M353 1225Q173 1166 173 1035Q173 982 205 947T285 911Q300 911 314 914Q322 890 322 873Q322 824 290 796T205 767T104 821T55 966T94 1120Q168 1235 335 1283L353 1225Z" />
<glyph unicode="&#x2019;" glyph-name="quoteright" horiz-adv-x="397" d="M54 824Q234 883 234 1014Q234 1067 202 1102T122 1138Q106 1138 93 1135Q85 1159 85 1191T117 1253T202 1282T303 1228T352 1083T312 929Q239 814 72 766L54 824Z" />
<glyph unicode="&#x201a;" glyph-name="quotesinglbase" horiz-adv-x="397" d="M54 -240Q234 -181 234 -50Q234 3 202 38T122 74Q106 74 93 71Q85 95 85 127T117 189T202 218T303 164T352 19T312 -135Q239 -250 72 -298L54 -240Z" />
<glyph unicode="&#x201c;" glyph-name="quotedblleft" horiz-adv-x="397" d="M353 1225Q173 1166 173 1035Q173 982 205 947T285 911Q300 911 314 914Q322 890 322 873Q322 824 290 796T205 767T104 821T55 966T94 1120Q168 1235 335 1283L353 1225ZM669 1225Q489
1166 489 1035Q489 982 521 947T601 911Q616 911 630 914Q638 890 638 873Q638 824 606 796T521 767T420 821T371 966T410 1120Q484 1235 651 1283L669 1225Z" />
<glyph unicode="&#x201d;" glyph-name="quotedblright" horiz-adv-x="397" d="M54 824Q234 883 234 1014Q234 1067 202 1102T122 1138Q106 1138 93 1135Q85 1159 85 1191T117 1253T202 1282T303 1228T352 1083T312 929Q239 814 72 766L54 824ZM401 824Q581 883
581 1014Q581 1067 549 1102T469 1138Q454 1138 440 1135Q432 1159 432 1191T464 1253T549 1282T650 1228T699 1083T660 929Q586 814 419 766L401 824Z" />
<glyph unicode="&#x201e;" glyph-name="quotedblbase" horiz-adv-x="397" d="M54 -240Q234 -181 234 -50Q234 3 202 38T122 74Q106 74 93 71Q85 95 85 127T117 189T202 218T303 164T352 19T312 -135Q239 -250 72 -298L54 -240ZM378 -240Q558 -181 558 -50Q558
3 526 38T446 74Q430 74 417 71Q409 95 409 127T441 189T526 218T627 164T676 19T636 -135Q563 -250 396 -298L378 -240Z" />
<glyph unicode="&#x2022;" glyph-name="bullet" horiz-adv-x="1174" d="M193 414T161 459T128 575T160 687T246 728T334 686T368 573T336 458T248 414Z" />
<glyph unicode="&#x2039;" glyph-name="guilsinglleft" horiz-adv-x="432" d="M51 469L319 821L355 774L179 461L356 128L314 77L53 449L51 469Z" />
<glyph unicode="&#x203a;" glyph-name="guilsinglright" horiz-adv-x="432" d="M356 469L354 449L93 77L51 128L228 461L52 774L88 821L356 469Z" />
</font>
</defs>
</svg>
