<?xml version="1.0" standalone="no"?>
<!DOCTYPE svg PUBLIC "-//W3C//DTD SVG 1.1//EN" "http://www.w3.org/Graphics/SVG/1.1/DTD/svg11.dtd">
<svg xmlns="http://www.w3.org/2000/svg">
<defs >
<font id="AsapCondensed" horiz-adv-x="455" ><font-face
    font-family="Asap Condensed"
    units-per-em="1000"
    panose-1="2 15 5 6 3 2 2 13 2 3"
    ascent="934"
    descent="-212"
    alphabetic="0" />
<glyph unicode=" " glyph-name="space" horiz-adv-x="137" />
<glyph unicode="!" glyph-name="exclam" horiz-adv-x="246" d="M88 202T82 207T76 224L124 680Q126 702 164 702H187Q225 702 222 680L146 224Q144 213 137 208T113 202H105Q88 202 82 207ZM40 -2T43 20L50 86Q52 108 90 108H108Q146 108 144 86L137 20Q134 -2
96 -2H78Q40 -2 43 20Z" />
<glyph unicode="&quot;" glyph-name="quotedbl" horiz-adv-x="309" d="M90 472T90 484L89 680Q91 702 131 702H141Q184 702 179 680L135 484Q132 472 112 472H111Q90 472 90 484ZM219 472T219 484L218 680Q220 702 260 702H270Q313 702 308 680L264 484Q261 472
241 472H240Q219 472 219 484Z" />
<glyph unicode="#" glyph-name="numbersign" horiz-adv-x="514" d="M57 -2T63 19L106 196H38Q28 196 24 203T21 226L23 243Q26 273 46 273H126L162 420H92Q82 420 78 427T75 450L77 467Q80 497 100 497H180L221 665Q223 676 232 681T262 686H269Q301 686 296 666L254
497H354L394 665Q396 676 405 681T435 686H444Q476 686 471 666L430 497H495Q505 497 509 490T512 467L510 450Q507 420 487 420H410L374 273H444Q454 273 458 266T461 243L459 226Q456 196 436 196H355L312 19Q310 8 301 3T272 -2H264Q233 -2 238 20L280 196H180L137
19Q135 8 126 3T97 -2H90Q57 -2 63 19ZM300 273L336 420H236L200 273H300Z" />
<glyph unicode="$" glyph-name="dollar" horiz-adv-x="460" d="M189 -68T186 -64T182 -48L185 -5Q134 -4 97 5T28 39Q24 43 22 47T20 61Q20 78 26 96T43 115Q47 115 55 110Q110 73 193 73L219 317Q153 356 115 401T77 513Q77 596 127 650T262 710L265 735Q267
746 271 750T287 755H289Q305 755 305 735L303 710Q339 708 373 701T427 681Q433 677 433 670Q433 658 423 633T404 607Q401 607 397 609T390 612Q337 634 294 634L269 393Q333 357 369 314T405 204Q405 116 358 61T227 -3L222 -48Q221 -68 200 -68H199Q189 -68
186 -64ZM254 630Q215 622 190 597T164 525Q164 492 180 466T230 417L254 630ZM273 89T294 116T316 188Q316 249 258 292L235 79Q273 89 294 116Z" />
<glyph unicode="%" glyph-name="percent" horiz-adv-x="686" d="M76 381T76 520Q76 599 111 652T220 706Q330 706 330 567Q330 488 296 435T188 381Q76 381 76 520ZM129 -2T129 4Q129 7 136 19L522 695Q525 700 530 701T545 703H547Q560 703 565 702T570 697Q570
693 566 686L178 6Q175 1 170 0T153 -2H150Q129 -2 129 4ZM232 437T249 474T266 565Q266 605 255 628T215 651Q178 651 160 613T142 521Q142 482 153 460T194 437Q232 437 249 474ZM374 -5T374 134Q374 213 408 266T516 320Q628 320 628 180Q628 101 593 48T484
-5Q374 -5 374 134ZM528 51T546 88T564 177Q564 265 511 265Q474 265 457 227T439 137Q439 51 491 51Q528 51 546 88Z" />
<glyph unicode="&amp;" glyph-name="ampersand" horiz-adv-x="520" d="M116 -6T70 37T24 172Q24 248 55 307T143 387L144 391Q114 408 96 441T78 520Q78 607 125 656T260 706Q290 706 311 699T331 674Q331 668 322 647T305 625Q302 625 290 629T261 634Q214 634
189 602T164 520Q164 473 182 441T250 408H342L362 509Q364 521 373 526T400 531H406Q424 531 430 525T435 504L424 408H485Q497 408 502 401T505 378L504 366Q501 336 482 336H416L395 128Q394 122 394 111Q394 84 405 75T437 66Q453 66 464 68T479 71Q485 71
485 62Q485 37 479 23Q473 9 457 2T420 -6Q392 -6 365 4T325 39Q290 18 259 6T187 -6Q116 -6 70 37ZM227 66T251 75T311 102Q311 123 332 336H239Q169 336 141 298T112 180Q112 119 138 93T204 66Q227 66 251 75Z" />
<glyph unicode="&apos;" glyph-name="quotesingle" horiz-adv-x="164" d="M82 472T82 484L81 680Q83 702 123 702H133Q176 702 171 680L127 484Q124 472 104 472H103Q82 472 82 484Z" />
<glyph unicode="(" glyph-name="parenleft" horiz-adv-x="249" d="M144 -212T133 -201Q75 -139 44 -39T12 183Q12 234 18 286Q34 438 92 567T236 773Q246 783 258 783Q267 783 276 776T285 760Q285 747 274 736Q203 663 159 545T99 286Q92 216 92 168Q92 65 113
-21T178 -164Q187 -174 185 -184Q184 -192 175 -202T154 -212Q144 -212 133 -201Z" />
<glyph unicode=")" glyph-name="parenright" horiz-adv-x="249" d="M-16 -212T-24 -203T-32 -184Q-30 -175 -22 -167Q48 -94 94 25T155 286Q161 345 161 401Q161 506 140 592T74 736Q66 749 67 757Q68 766 78 774T100 783Q110 783 120 773Q178 710 209 609T241
385Q241 343 236 286Q220 134 162 5T17 -201Q6 -212 -6 -212Q-16 -212 -24 -203Z" />
<glyph unicode="*" glyph-name="asterisk" horiz-adv-x="299" d="M87 436T80 442T74 455Q76 461 81 468L147 554L70 591Q64 594 61 597T57 604Q57 615 64 622T78 630Q83 630 89 627L163 593L173 689Q174 709 195 709Q205 709 209 705T213 689L203 593L282 627Q289
630 295 630Q301 630 305 625T310 611Q310 603 307 599T295 591L209 554L258 468Q262 461 261 455Q260 448 252 442T236 436Q227 436 222 445L176 526L111 445Q104 436 95 436Q87 436 80 442Z" />
<glyph unicode="+" glyph-name="plus" horiz-adv-x="449" d="M177 -2T171 3T166 20L184 197H50Q28 197 31 223L32 236Q33 253 38 258T56 264H191L210 443Q211 454 217 458T242 463H249Q265 463 271 458T276 441L258 264H393Q402 264 407 259T411 240L410 225Q409
210 402 204T385 197H251L233 19Q230 -2 201 -2H194Q177 -2 171 3Z" />
<glyph unicode="," glyph-name="comma" horiz-adv-x="188" d="M-9 -116T-17 -113T-25 -101Q-24 -95 -16 -77Q2 -38 13 -3T29 76Q31 91 41 99T70 108H80Q98 108 107 101T115 80Q109 24 88 -20T42 -90T1 -116Q-9 -116 -17 -113Z" />
<glyph unicode="-" glyph-name="hyphen" horiz-adv-x="254" d="M27 229T30 257L31 271Q32 288 38 294T57 301H206Q228 301 225 273L224 259Q222 229 198 229H50Q27 229 30 257Z" />
<glyph unicode="." glyph-name="period" horiz-adv-x="188" d="M19 -2T22 20L29 86Q31 108 69 108H87Q125 108 123 86L116 20Q113 -2 75 -2H57Q19 -2 22 20Z" />
<glyph unicode="/" glyph-name="slash" horiz-adv-x="348" d="M-10 -76T-15 -74T-20 -63Q-19 -54 3 -7L314 686Q318 696 326 699T348 703H356Q370 703 375 701T379 691Q378 687 363 654L43 -60Q39 -69 32 -72T9 -76H5Q-10 -76 -15 -74Z" />
<glyph unicode="0" glyph-name="zero" horiz-adv-x="459" d="M125 -6T82 58T39 264Q39 370 63 471T141 639T277 706Q353 706 396 642T440 437Q440 332 416 231T337 62T200 -6Q125 -6 82 58ZM260 66T292 130T339 282T353 449Q353 634 270 634Q219 634 187 570T140
417T126 249Q126 66 208 66Q260 66 292 130Z" />
<glyph unicode="1" glyph-name="one" horiz-adv-x="459" d="M30 0T30 20Q30 26 31 30L32 42Q35 72 55 72H188L245 611L100 588Q90 587 85 598T80 626L81 638Q82 646 86 650T101 657L307 702Q319 702 328 696T336 681L272 72H385Q395 72 399 65T402 42L401 30Q399
14 394 7T378 0H48Q30 0 30 20Z" />
<glyph unicode="2" glyph-name="two" horiz-adv-x="459" d="M19 0T14 11T9 35L10 44Q12 57 16 61L286 395Q326 445 343 477T361 548Q361 588 334 611T259 634Q220 634 192 623T140 595Q137 593 130 589T118 584Q110 584 99 602T90 632Q93 647 119 664T186 694T270
706Q350 706 399 667T448 559Q448 514 430 472T382 390T288 272L125 71H381Q391 71 395 64T398 41L397 30Q394 0 374 0H26Q19 0 14 11Z" />
<glyph unicode="3" glyph-name="three" horiz-adv-x="459" d="M131 -6T92 2T28 24T4 50Q4 63 17 82T39 101Q42 101 62 93Q87 81 112 74T171 66Q242 66 283 109T324 225Q324 285 290 310T194 336H156Q144 336 140 343T137 366L138 377Q140 393 145 400T163 407H197Q236
407 268 426T319 478T338 545Q338 582 315 608T235 634Q203 634 180 627T134 608Q120 601 115 601Q107 601 97 620T87 652Q87 673 142 689T247 706Q330 706 376 667T423 556Q423 435 304 387L303 383Q348 370 380 329T412 222Q412 157 382 105T298 24T176 -6Q131
-6 92 2Z" />
<glyph unicode="4" glyph-name="four" horiz-adv-x="459" d="M250 -2T252 20L267 167H20Q13 167 7 181T0 210Q0 215 1 218Q2 225 5 229L321 689Q330 702 356 702H376Q406 702 404 680L358 239H414Q424 239 428 232T430 209L429 197Q426 167 406 167H350L335 20Q333
-2 302 -2H279Q250 -2 252 20ZM275 239L296 439Q303 503 317 561L314 563L94 239H275Z" />
<glyph unicode="5" glyph-name="five" horiz-adv-x="459" d="M121 -6T84 3T27 25T7 52Q7 63 18 81T37 100Q41 100 59 93Q119 67 176 67Q246 67 282 110T319 232Q319 290 282 320T172 350H97Q83 350 77 355T71 371L72 380L120 670Q124 700 155 700H403Q413 700
417 693T420 670L419 658Q416 628 396 628H197L162 422H206Q288 422 347 381T406 243Q406 124 344 59T167 -6Q121 -6 84 3Z" />
<glyph unicode="6" glyph-name="six" horiz-adv-x="459" d="M119 -5T77 47T35 193Q35 342 103 457T261 637T400 702Q410 702 417 692T427 668T428 649Q425 641 419 638Q319 595 253 528T153 372Q205 405 270 405Q336 405 377 359T419 235Q419 169 392 114T314
27T201 -5Q119 -5 77 47ZM267 67T300 113T333 224Q333 279 306 306T236 333Q184 333 131 301Q126 284 123 254T119 197Q119 126 146 97T212 67Q267 67 300 113Z" />
<glyph unicode="7" glyph-name="seven" horiz-adv-x="459" d="M82 -2T73 1T64 15Q64 18 70 30L379 628H101Q91 628 87 635T84 658L85 670Q88 700 108 700H458Q466 700 472 686T479 657Q479 646 475 638L157 14Q150 -2 115 -2H103Q82 -2 73 1Z" />
<glyph unicode="8" glyph-name="eight" horiz-adv-x="459" d="M127 -6T79 38T31 166Q31 236 61 290T154 374Q88 425 88 509Q88 565 111 610T176 680T274 706Q342 706 387 669T433 558Q433 497 405 450T322 376Q366 349 390 315T415 220Q415 156 389 105T316 24T205
-6Q127 -6 79 38ZM348 460T348 546Q348 590 325 612T265 634Q223 634 199 603T174 524Q174 482 196 457T261 409Q348 460 348 546ZM246 66T272 86T313 139T328 209Q328 246 313 269T277 306T212 342Q164 313 141 274T118 179Q118 123 144 95T213 66Q246 66 272
86Z" />
<glyph unicode="9" glyph-name="nine" horiz-adv-x="459" d="M68 -4T62 15T55 49Q55 56 64 60Q163 102 229 170T329 326Q277 293 211 293Q145 293 104 342T62 473Q62 537 88 589T163 672T275 703Q359 703 402 648T446 490Q446 364 378 251T221 67T82 -4Q68 -4
62 15ZM297 365T350 398Q362 455 362 490Q362 568 335 599T265 631Q210 631 180 588T149 484Q149 424 176 395T246 365Q297 365 350 398Z" />
<glyph unicode=":" glyph-name="colon" horiz-adv-x="188" d="M63 415T65 437L72 503Q75 525 113 525H131Q169 525 166 503L159 437Q157 415 119 415H101Q63 415 65 437ZM19 -2T22 20L29 86Q31 108 69 108H87Q125 108 123 86L116 20Q113 -2 75 -2H57Q19 -2 22 20Z" />
<glyph unicode=";" glyph-name="semicolon" horiz-adv-x="188" d="M57 415T59 437L66 503Q69 525 107 525H125Q163 525 160 503L153 437Q151 415 113 415H95Q57 415 59 437ZM-43 -116T-51 -113T-58 -101Q-57 -95 -49 -77Q-31 -38 -20 -3T-4 76Q-2 91 8 99T37 108H47Q65
108 74 101T82 80Q76 24 55 -20T9 -90T-32 -116Q-43 -116 -51 -113Z" />
<glyph unicode="&lt;" glyph-name="less" horiz-adv-x="448" d="M365 7T359 10L44 184Q25 195 28 219L29 236Q32 260 53 271L403 445Q411 448 416 448Q423 448 426 441T428 421L426 407Q423 382 402 371L103 227L372 83Q391 73 388 47L387 33Q384 7 370 7Q365 7 359 10Z" />
<glyph unicode="=" glyph-name="equal" horiz-adv-x="449" d="M36 268T39 296L40 310Q41 327 47 333T66 340H400Q410 340 415 335T419 314L418 298Q417 268 391 268H59Q36 268 39 296ZM19 106T22 134L23 148Q24 165 30 171T49 178H383Q393 178 398 173T402 152L401
136Q400 106 374 106H42Q19 106 22 134Z" />
<glyph unicode="&gt;" glyph-name="greater" horiz-adv-x="448" d="M11 8T11 32Q11 55 17 66T37 85L331 229L68 371Q58 376 55 383T52 402Q52 427 56 436T68 446Q76 446 90 438L394 270Q414 259 411 235L409 218Q407 205 402 197T385 183L51 17Q35 8 24 8Q11 8 11 32Z" />
<glyph unicode="?" glyph-name="question" horiz-adv-x="391" d="M103 202T105 225Q109 259 134 302T204 389Q255 439 279 472T303 548Q303 632 204 632Q161 632 111 606Q107 604 100 601T89 598Q82 598 72 618T63 649Q65 673 115 689T221 706Q303 706 350 665T398
560Q398 521 382 488T345 430T284 363Q237 316 214 287T183 222Q180 211 173 207T148 202H133Q103 202 105 225ZM68 -2T71 20L78 86Q80 108 120 108H137Q177 108 175 86L168 20Q165 -2 125 -2H108Q68 -2 71 20Z" />
<glyph unicode="@" glyph-name="at" horiz-adv-x="792" d="M252 -126T189 -80T90 48T55 237Q55 366 106 473T245 643T442 705Q527 705 591 665T691 550T727 375Q727 286 703 213T635 97T535 54Q498 54 476 73T451 131Q409 54 337 54Q309 54 282 70T236 127T217
236Q217 314 239 375T301 470T395 505Q425 505 448 492T486 461Q495 488 500 495T520 502H526Q548 502 548 481L539 375Q521 170 521 146Q521 122 532 115T555 107Q585 107 612 145T656 246T673 378Q673 463 644 527T562 626T439 661Q348 661 273 605T153 451T109
236Q109 142 137 70T218 -42T338 -82Q370 -82 393 -76T445 -58Q467 -49 472 -49Q479 -49 479 -58Q479 -66 476 -78Q472 -98 423 -112T334 -126Q252 -126 189 -80ZM383 115T409 140T454 225Q457 279 462 337T473 413Q441 443 403 443Q341 443 316 386T290 241Q290
174 308 145T358 115Q383 115 409 140Z" />
<glyph unicode="A" glyph-name="A" horiz-adv-x="505" d="M-15 -2T-13 15Q-13 19 -12 22T-10 28L240 683Q247 702 282 702H311Q346 702 349 683L464 28Q466 18 466 15Q465 7 455 3T427 -2H410Q380 -2 379 14L353 178H135L76 14Q69 -2 38 -2H22Q-15 -2 -13 15ZM340
250L296 533Q292 560 290 594H285Q270 547 265 533L161 250H340Z" />
<glyph unicode="B" glyph-name="B" horiz-adv-x="539" d="M70 0T64 7T60 30L128 670Q130 686 137 693T159 700H312Q410 700 456 660T503 549Q503 481 473 434T396 371V367Q429 355 461 322T493 216Q493 106 436 53T258 0H85Q70 0 64 7ZM293 398Q353 398 381 432T409
537Q409 582 385 603T305 624H213L189 398H293ZM284 76Q345 76 373 113T402 212Q402 267 374 294T286 322H181L155 76H284Z" />
<glyph unicode="C" glyph-name="C" horiz-adv-x="459" d="M166 -6T110 59T54 261Q54 475 132 590T357 706Q409 706 457 687Q471 681 471 666Q471 656 466 639T453 612T434 607Q397 628 349 628Q253 628 200 534T147 269Q147 169 182 121T290 72Q318 72 340 78T387
97Q390 99 396 99Q407 99 413 85T419 54Q419 41 413 32T391 15Q373 7 343 1T282 -6Q166 -6 110 59Z" />
<glyph unicode="D" glyph-name="D" horiz-adv-x="577" d="M70 0T64 7T60 30L128 670Q130 686 137 693T158 700H316Q427 700 486 635T545 424Q545 0 252 0H84Q70 0 64 7ZM258 76Q366 76 409 171T452 415Q452 524 415 574T306 624H214L156 76H258Z" />
<glyph unicode="E" glyph-name="E" horiz-adv-x="457" d="M65 0T59 7T55 30L123 670Q125 686 132 693T153 700H441Q460 700 457 670L455 654Q452 624 433 624H208L184 396H386Q405 396 402 366L400 350Q397 320 378 320H176L150 76H375Q385 76 389 69T391 46L389
30Q387 14 382 7T367 0H79Q65 0 59 7Z" />
<glyph unicode="F" glyph-name="F" horiz-adv-x="423" d="M52 -2T54 20L123 670Q125 686 132 693T153 700H413Q432 700 429 670L427 654Q424 624 405 624H208L182 376H362Q379 376 379 356Q379 350 378 346L376 330Q374 314 369 307T354 300H174L144 20Q141 -2
104 -2H90Q52 -2 54 20Z" />
<glyph unicode="G" glyph-name="G" horiz-adv-x="552" d="M172 -6T113 63T54 270Q54 471 126 588T358 706Q394 706 430 697T489 673T512 645Q512 633 496 610T470 586Q467 586 450 597T409 618T351 627Q244 627 196 529T148 277Q148 181 180 126T286 70Q339 70
376 83L399 306H314Q297 306 297 326Q297 332 298 336L299 352Q302 382 322 382H470Q497 382 494 352L464 66Q460 28 404 11T275 -6Q172 -6 113 63Z" />
<glyph unicode="H" glyph-name="H" horiz-adv-x="601" d="M52 -2T54 20L124 680Q126 702 164 702H179Q216 702 214 680L184 397H447L477 680Q479 702 517 702H531Q569 702 567 680L497 20Q495 -2 457 -2H443Q405 -2 407 20L439 321H176L144 20Q142 -2 105 -2H90Q52
-2 54 20Z" />
<glyph unicode="I" glyph-name="I" horiz-adv-x="262" d="M59 -2T61 20L131 680Q133 702 171 702H186Q223 702 221 680L151 20Q149 -2 112 -2H97Q59 -2 61 20Z" />
<glyph unicode="J" glyph-name="J" horiz-adv-x="355" d="M30 -6T2 2T-25 26Q-23 40 -14 60T4 81Q10 81 26 77T60 72Q110 72 135 101T168 195L219 680Q221 702 259 702H273Q312 702 310 680L260 205Q250 106 202 50T62 -6Q30 -6 2 2Z" />
<glyph unicode="K" glyph-name="K" horiz-adv-x="510" d="M52 -2T54 20L124 680Q126 702 164 702H177Q216 702 214 680L182 374H185L420 688Q431 702 468 702H485Q502 702 510 699T519 689Q517 680 508 669L270 352L469 28Q475 18 474 12Q473 4 464 1T433 -2H422Q402
-2 391 0T375 11L180 333H177L144 20Q142 -2 103 -2H90Q52 -2 54 20Z" />
<glyph unicode="L" glyph-name="L" horiz-adv-x="408" d="M65 0T59 7T55 30L124 680Q126 702 164 702H178Q216 702 214 680L150 76H358Q368 76 372 69T375 46L373 30Q370 0 350 0H79Q65 0 59 7Z" />
<glyph unicode="M" glyph-name="M" horiz-adv-x="689" d="M45 -2T47 20L116 680Q118 702 156 702H175Q204 702 211 684L332 388Q349 348 351 317Q362 358 380 385L563 684Q575 702 603 702H626Q664 702 662 680L593 20Q591 -2 552 -2H540Q503 -2 505 20L553 478Q557
511 565 549L561 551Q545 518 524 482L383 252Q376 239 360 239H326Q311 239 305 252L212 482Q204 501 189 551L185 549Q187 508 183 478L135 20Q133 -2 94 -2H82Q45 -2 47 20Z" />
<glyph unicode="N" glyph-name="N" horiz-adv-x="590" d="M45 -2T48 20L117 680Q119 702 157 702H181Q196 702 205 698T218 682L401 225Q414 190 421 162L426 164Q424 176 424 200Q424 220 425 230L473 680Q475 702 513 702H525Q563 702 561 680L492 20Q489 -2
451 -2H433Q405 -2 399 13L208 485Q197 513 189 548L184 546Q186 534 186 510Q186 490 185 480L136 20Q134 -2 95 -2H83Q45 -2 48 20Z" />
<glyph unicode="O" glyph-name="O" horiz-adv-x="599" d="M168 -6T112 79T55 311Q55 417 84 506T176 651T335 706Q441 706 502 632T564 396Q564 291 536 200T446 52T286 -6Q168 -6 112 79ZM389 70T431 169T473 398Q473 630 332 630Q235 630 192 535T148 308Q148
70 290 70Q389 70 431 169Z" />
<glyph unicode="P" glyph-name="P" horiz-adv-x="482" d="M51 -2T54 20L123 670Q124 686 131 693T153 700H298Q388 700 434 655T481 521Q481 419 428 359T284 298H174L144 20Q142 -2 104 -2H90Q51 -2 54 20ZM287 374Q337 374 363 411T389 519Q389 574 365 599T286
624H208L182 374H287Z" />
<glyph unicode="Q" glyph-name="Q" horiz-adv-x="599" d="M487 -169T363 -96T205 0Q153 35 122 71T73 164T55 311Q55 417 84 506T176 651T335 706Q441 706 502 632T564 396Q564 292 538 208T462 70T348 1V-2L542 -86Q553 -92 552 -102Q549 -116 530 -142T496 -169Q487
-169 363 -96ZM389 70T431 169T473 398Q473 630 332 630Q235 630 192 535T148 308Q148 70 290 70Q389 70 431 169Z" />
<glyph unicode="R" glyph-name="R" horiz-adv-x="513" d="M53 -2T55 20L124 670Q126 686 133 693T154 700H298Q388 700 434 655T481 521Q481 455 451 407T369 344L368 340Q388 331 400 304T424 225L466 28L468 14Q468 -2 427 -2H410Q396 -2 386 2T375 14L327 250Q320
282 305 295T259 308H176L145 20Q142 -2 105 -2H91Q53 -2 55 20ZM284 384Q336 384 362 418T389 519Q389 574 365 599T286 624H208L183 384H284Z" />
<glyph unicode="S" glyph-name="S" horiz-adv-x="437" d="M144 -5T102 6T32 36Q21 44 17 50T12 69Q12 85 18 98T33 111Q39 111 50 106T64 100Q130 73 176 73Q234 73 270 101T306 188Q306 230 283 258T217 312Q148 353 108 398T67 509Q67 569 92 614T162 685T269
711Q310 711 352 703T417 681Q423 677 423 670Q423 658 413 633T394 607Q391 607 387 609T380 612Q331 634 282 634Q231 634 193 609T154 525Q154 484 180 454T257 394Q321 358 358 315T395 207Q395 108 340 52T184 -5Q144 -5 102 6Z" />
<glyph unicode="T" glyph-name="T" horiz-adv-x="454" d="M155 -2T157 20L221 624H77Q60 624 60 644Q60 650 61 654L63 670Q65 686 70 693T85 700H461Q479 700 479 680Q479 674 478 670L476 654Q474 638 469 631T453 624H311L247 20Q245 -2 207 -2H193Q155 -2 157 20Z" />
<glyph unicode="U" glyph-name="U" horiz-adv-x="583" d="M165 -6T113 39T60 167Q60 185 61 195L112 680Q114 702 152 702H166Q204 702 202 680L151 192Q150 187 150 177Q150 129 183 100T272 70Q337 70 374 100T418 192L469 680Q471 702 509 702H523Q561 702
559 680L508 195Q498 100 435 47T264 -6Q165 -6 113 39Z" />
<glyph unicode="V" glyph-name="V" horiz-adv-x="508" d="M179 -2T176 16L64 680Q61 702 106 702H120Q152 702 155 686L228 194Q236 136 238 97H241Q253 145 268 191L444 686Q449 702 483 702H495Q533 702 533 685Q533 683 529 671L285 14Q280 -2 246 -2H210Q179
-2 176 16Z" />
<glyph unicode="W" glyph-name="W" horiz-adv-x="752" d="M151 -2T148 16L69 681Q66 702 110 702H123Q160 702 161 686L200 223Q208 136 206 92H210Q219 140 238 206L382 685Q387 702 419 702H439Q473 702 474 685L519 224Q526 159 526 92H530Q536 121 557 203L683
686Q687 702 724 702H735Q778 702 772 681L571 14Q566 -2 533 -2H503Q470 -2 469 16L427 415Q419 497 419 581H415Q400 490 383 435L251 14Q246 -2 213 -2H183Q151 -2 148 16Z" />
<glyph unicode="X" glyph-name="X" horiz-adv-x="506" d="M13 -2T4 2T-5 15Q-4 20 4 33L217 370L91 666Q85 680 85 687Q85 694 92 698T117 702H138Q153 702 162 699T175 687L271 443L420 688Q425 696 434 699T460 702H474Q516 702 515 685Q514 680 506 667L312
366L453 37Q460 20 460 13Q460 -2 431 -2H406Q390 -2 381 2T367 18L258 291L91 12Q83 -2 50 -2H35Q13 -2 4 2Z" />
<glyph unicode="Y" glyph-name="Y" horiz-adv-x="484" d="M169 -2T172 20L204 317L70 667Q65 679 65 685Q65 694 74 698T105 702H122Q139 702 147 699T159 687L258 404L419 688Q424 696 434 699T460 702H473Q493 701 501 697T509 685Q509 681 501 667L293 314L262
20Q260 -2 222 -2H208Q169 -2 172 20Z" />
<glyph unicode="Z" glyph-name="Z" horiz-adv-x="507" d="M27 0T21 17T15 53Q15 61 18 65L398 624H119Q103 624 103 646Q103 654 104 658L105 666Q107 684 112 692T127 700H493Q499 700 504 682T509 647Q509 638 504 630L129 76H430Q447 76 447 53Q447 46 446
42L445 34Q443 16 438 8T422 0H37Q27 0 21 17Z" />
<glyph unicode="[" glyph-name="bracketleft" horiz-adv-x="239" d="M16 -138T10 -131T6 -108L95 738Q97 754 104 761T125 768H227Q237 768 241 762T243 739V734Q241 718 236 712T221 705H164L82 -76H139Q155 -76 155 -94Q155 -101 154 -105V-109Q152 -125 147
-131T132 -138H30Q16 -138 10 -131Z" />
<glyph unicode="\" glyph-name="backslash" horiz-adv-x="348" d="M254 -76T248 -73T239 -60L67 654Q66 658 62 672T59 691Q60 698 65 700T84 703H92Q106 703 113 700T122 686L289 -7Q300 -54 300 -61Q300 -70 294 -73T273 -76H269Q254 -76 248 -73Z" />
<glyph unicode="]" glyph-name="bracketright" horiz-adv-x="239" d="M12 -138T9 -132T6 -109V-105Q8 -89 13 -83T29 -76H87L169 705H111Q94 705 94 724Q94 730 95 734V739Q96 754 101 761T117 768H220Q234 768 239 761T243 738L154 -108Q153 -124 146 -131T125
-138H22Q12 -138 9 -132Z" />
<glyph unicode="^" glyph-name="asciicircum" horiz-adv-x="360" d="M335 337T335 331Q335 326 327 323T306 320H298Q284 320 278 323T270 336L216 602L105 335Q101 326 95 323T75 320H66Q42 320 42 332Q42 339 49 355L183 664Q188 675 195 679T214 684H234Q246
684 252 680T261 664L331 355Q335 337 335 331Z" />
<glyph unicode="_" glyph-name="underscore" horiz-adv-x="427" d="M-58 -138T-57 -118L-56 -110Q-55 -90 -35 -90H388Q406 -90 405 -110L404 -118Q403 -138 383 -138H-40Q-58 -138 -57 -118Z" />
<glyph unicode="`" glyph-name="grave" horiz-adv-x="146" d="M135 576T126 580T106 600L69 655Q46 690 46 701Q46 710 57 714T91 718Q122 718 134 711T151 689L173 621Q180 600 180 590Q180 583 174 580T157 576Q135 576 126 580Z" />
<glyph unicode="a" glyph-name="a" horiz-adv-x="481" d="M107 -7T76 52T44 203Q44 287 67 361T135 482T244 529Q310 529 352 475Q361 502 369 513T397 525H403Q431 525 428 504L380 123Q379 116 379 105Q379 66 408 66Q420 66 430 68T444 71Q450 71 450 62Q450
52 448 38T442 17Q438 7 421 1T385 -6Q353 -6 328 13T301 83Q255 -7 174 -7Q107 -7 76 52ZM230 66T259 97T309 198L330 367Q333 398 337 417Q321 434 303 445T257 456Q190 456 160 383T129 202Q129 141 145 104T198 66Q230 66 259 97Z" />
<glyph unicode="b" glyph-name="b" horiz-adv-x="482" d="M208 -6T178 14T129 74Q116 29 106 14T79 -2H73Q56 -2 50 3T46 20L121 730Q123 752 161 752H172Q209 752 207 730L180 478Q204 502 229 515T286 529Q355 529 393 473T432 312Q432 228 412 156T349 39T243
-6Q208 -6 178 14ZM292 67T317 138T342 315Q342 385 322 420T258 455Q233 455 213 444T173 410L154 227Q148 165 141 136Q157 103 180 85T230 67Q292 67 317 138Z" />
<glyph unicode="c" glyph-name="c" horiz-adv-x="408" d="M134 -6T88 42T42 198Q42 361 103 445T281 529Q326 529 363 516T401 484Q401 473 387 451T364 429Q362 429 354 433Q351 434 339 441T310 452T275 457Q206 457 170 392T133 201Q133 131 158 99T237 66Q266
66 285 72T322 88Q327 90 330 93T336 96Q345 96 354 78T364 47Q364 35 342 23T287 2T227 -6Q134 -6 88 42Z" />
<glyph unicode="d" glyph-name="d" horiz-adv-x="481" d="M114 -6T79 55T43 222Q43 304 64 374T128 486T235 529Q270 529 294 516T339 478L366 730Q368 752 405 752H416Q454 752 452 730L388 123Q386 107 386 98Q386 83 392 75T414 66Q422 66 431 68T445 71Q451
71 451 62Q451 52 449 37T443 17Q438 7 422 1T386 -6Q356 -6 332 11T303 72Q250 -6 179 -6Q114 -6 79 55ZM229 67T254 85T303 136L332 410Q300 455 250 455Q187 455 159 387T131 222Q131 67 206 67Q229 67 254 85Z" />
<glyph unicode="e" glyph-name="e" horiz-adv-x="454" d="M383 115T383 94Q383 79 380 65T368 42Q347 19 308 7T237 -6Q48 -6 48 194Q48 289 74 364T153 484T286 529Q336 529 367 508T412 456T426 396Q426 307 364 260T202 213Q169 213 135 219V210Q133 131 161
99T244 66Q277 66 300 76T352 103Q369 115 375 115Q383 115 383 94ZM215 457T183 410T140 285H193Q254 285 297 309T340 389Q340 418 323 437T277 457Q215 457 183 410Z" />
<glyph unicode="f" glyph-name="f" horiz-adv-x="286" d="M65 -2T67 20L113 451H84Q74 451 70 458T67 481L68 493Q71 523 91 523H120L131 629Q139 702 177 729T259 756Q285 756 305 748T325 725Q324 714 316 696T298 678Q295 678 286 681T262 684Q242 684 231
672T215 621L204 523H271Q281 523 285 516T288 493L287 481Q284 451 264 451H197L151 20Q149 -2 109 -2H105Q65 -2 67 20Z" />
<glyph unicode="g" glyph-name="g" horiz-adv-x="471" d="M417 525T422 520T428 504L383 82Q372 -27 346 -91T278 -184T175 -212Q118 -212 80 -193T32 -151Q30 -145 30 -137Q30 -122 34 -109T47 -96Q50 -96 68 -108T112 -130T170 -140Q227 -140 256 -93T298 67L300
82Q253 0 175 0Q108 0 76 60T44 214Q44 299 66 371T134 486T246 529Q310 529 352 475Q361 502 369 513T397 525H403Q417 525 422 520ZM331 385T337 417Q321 434 303 445T258 456Q189 456 159 389T129 212Q129 73 200 73Q229 73 260 102T311 198L329 367Q331 385
337 417Z" />
<glyph unicode="h" glyph-name="h" horiz-adv-x="485" d="M355 -6T329 15T303 90Q303 104 304 112L329 365Q331 385 331 393Q331 427 318 441T273 456Q236 456 207 433T167 386L129 20Q126 -2 88 -2H78Q40 -2 43 20L117 730Q120 752 158 752H169Q206 752 203 730L175
462Q199 493 232 511T304 529Q354 529 385 497T417 400Q417 383 416 373L389 108Q388 103 388 94Q388 79 393 73T411 66Q423 66 432 68T445 71Q451 71 451 62Q451 52 449 38T443 17Q439 7 422 1T386 -6Q355 -6 329 15Z" />
<glyph unicode="i" glyph-name="i" horiz-adv-x="254" d="M113 -6T87 15T61 90Q61 104 62 112L102 503Q103 515 113 520T144 525H148Q169 525 178 519T186 499L147 108Q146 103 146 94Q146 79 151 73T169 66Q181 66 190 68T203 71Q209 71 209 62Q209 51 207 37T201
17Q197 7 180 1T144 -6Q113 -6 87 15ZM366 595T368 617L374 677Q376 699 421 699Q444 699 453 694T462 677L456 617Q454 595 410 595Q366 595 368 617Z" />
<glyph unicode="j" glyph-name="j" horiz-adv-x="249" d="M-65 -212T-63 -182Q-62 -171 -54 -153T-37 -135Q-33 -135 -25 -137T-1 -140Q37 -140 44 -72L104 503Q107 525 147 525H151Q191 525 188 503L127 -80Q119 -154 83 -183T4 -212Q-65 -212 -63 -182ZM368
595T370 617L376 677Q378 699 423 699Q446 699 455 694T464 677L458 617Q456 595 412 595Q368 595 370 617Z" />
<glyph unicode="k" glyph-name="k" horiz-adv-x="452" d="M65 -2T68 20L142 730Q145 752 183 752H194Q231 752 228 730L181 283H186L355 511Q366 525 400 525H421Q437 525 445 522T452 512Q452 504 442 491L274 265L403 28Q408 18 408 12Q407 4 398 1T367 -2H342Q326
-2 321 0T310 11L186 258H180L154 20Q151 -2 114 -2H103Q65 -2 68 20Z" />
<glyph unicode="l" glyph-name="l" horiz-adv-x="270" d="M120 -6T92 15T63 93Q63 107 64 115L129 730Q131 752 171 752H175Q215 752 213 730L148 113Q147 107 147 98Q147 78 155 72T178 66Q190 66 200 68T216 71Q222 71 222 62Q222 52 220 38T214 17Q210 7 193
1T157 -6Q120 -6 92 15Z" />
<glyph unicode="m" glyph-name="m" horiz-adv-x="720" d="M686 71T686 62Q686 52 684 38T678 17Q674 7 657 1T621 -6Q590 -6 564 15T538 90Q538 104 539 112L563 359Q564 367 564 381Q564 456 509 456Q480 456 455 435T416 386L376 20Q374 -2 337 -2H326Q288 -2
290 20L326 359Q327 367 327 380Q327 456 267 456Q234 456 207 432T171 386L132 20Q130 -2 92 -2H81Q43 -2 46 22L67 221Q78 320 83 371T88 453Q88 473 88 482T87 498Q87 510 109 516T147 522Q162 522 166 505T171 461V452Q196 487 230 508T303 529Q341 529 369
511T409 452Q436 488 471 508T544 529Q592 529 622 497T652 399Q652 389 650 367L624 108L623 96Q623 66 648 66Q657 66 666 68T680 71Q686 71 686 62Z" />
<glyph unicode="n" glyph-name="n" horiz-adv-x="482" d="M451 71T451 62Q451 52 449 38T443 17Q439 8 422 1T386 -6Q355 -6 329 15T303 91Q303 105 304 113L329 365Q330 372 330 385Q330 456 270 456Q244 456 219 437T175 386L136 20Q134 -2 96 -2H85Q48 -2 51
22L87 367Q92 420 92 453Q92 472 91 483T91 499Q92 511 114 516T151 522Q165 522 169 509T174 473Q174 457 173 450Q199 487 234 508T306 529Q360 529 389 495T419 401Q419 393 417 373L389 108L388 96Q388 66 413 66Q422 66 431 68T445 71Q451 71 451 62Z" />
<glyph unicode="o" glyph-name="o" horiz-adv-x="477" d="M137 -6T91 50T44 216Q44 349 96 439T254 529Q341 529 387 472T433 302Q433 169 383 82T225 -6Q137 -6 91 50ZM295 66T320 136T346 306Q346 457 248 457Q183 457 158 386T132 215Q132 66 230 66Q295 66 320 136Z" />
<glyph unicode="p" glyph-name="p" horiz-adv-x="484" d="M368 529T402 470T436 305Q436 222 414 151T348 37T240 -6Q206 -6 183 7T140 45L116 -186Q114 -208 75 -208H65Q27 -208 30 -186L88 373Q93 421 93 458Q93 475 92 485T92 501Q94 512 115 517T151 522Q176
522 176 474Q176 459 175 451Q201 490 235 509T305 529Q368 529 402 470ZM290 68T319 137T348 304Q348 456 277 456Q251 456 225 438T176 387L147 113Q177 68 225 68Q290 68 319 137Z" />
<glyph unicode="q" glyph-name="q" horiz-adv-x="481" d="M437 525T435 503L363 -186Q360 -208 322 -208H311Q274 -208 277 -186L301 45Q276 20 251 7T190 -6Q125 -6 87 48T49 200Q49 285 71 360T136 482T238 529Q273 529 301 510T349 454Q357 495 366 510T392
525H404Q437 525 435 503ZM327 302Q330 334 339 381Q322 417 299 436T251 456Q194 456 166 379T138 198Q138 68 218 68Q270 68 307 113L327 302Z" />
<glyph unicode="r" glyph-name="r" horiz-adv-x="337" d="M56 -2T58 20L96 373Q100 413 100 446Q100 471 99 484T97 499Q97 511 116 516T153 522Q167 522 172 507T178 475T181 454Q237 529 294 529Q318 529 330 520T342 494Q342 479 334 458T316 436Q311 436 299
441T268 447Q242 447 216 425T181 386L142 20Q140 -2 100 -2H96Q56 -2 58 20Z" />
<glyph unicode="s" glyph-name="s" horiz-adv-x="353" d="M101 -9T72 1T25 25T7 52Q7 60 20 79T42 98Q45 98 61 89T96 72T140 65Q181 65 203 87T225 143Q225 175 207 194T150 238Q107 266 81 299T54 381Q54 450 100 490T219 530Q258 530 291 517T323 487Q322 476
310 458T288 440Q284 440 263 449T215 458Q175 458 156 440T137 393Q137 364 154 346T203 307Q251 277 279 244T307 154Q307 78 261 35T137 -9Q101 -9 72 1Z" />
<glyph unicode="t" glyph-name="t" horiz-adv-x="298" d="M139 -6T108 18T77 102Q77 117 78 126L110 451H71Q61 451 57 457T54 478L55 493Q56 523 79 523H119L140 628Q144 650 170 650H189Q215 650 212 623L201 523H261Q273 523 278 516T281 493L280 481Q277 451
257 451H194L161 128Q160 122 160 111Q160 84 171 75T203 66Q219 66 230 68T245 71Q251 71 251 62Q251 37 245 23Q240 9 224 2T186 -6Q139 -6 108 18Z" />
<glyph unicode="u" glyph-name="u" horiz-adv-x="482" d="M449 71T449 62Q448 53 446 37T441 17Q437 7 420 1T384 -6Q355 -6 332 11T302 67Q276 32 241 13T168 -7Q112 -7 82 25T52 114Q52 130 53 138L92 502Q95 524 132 524H142Q180 524 178 502L141 151Q140 145
140 134Q140 66 203 66Q231 66 257 85T303 136L342 502Q344 524 382 524H392Q430 524 428 502L387 108L386 96Q386 66 411 66Q420 66 429 68T443 71Q449 71 449 62Z" />
<glyph unicode="v" glyph-name="v" horiz-adv-x="412" d="M126 -2T123 16L49 505Q46 525 91 525H104Q135 525 138 509L175 237Q186 157 188 88H194Q207 148 233 226L330 509Q335 525 369 525H381Q420 525 415 508L411 494L238 14Q233 -2 200 -2H158Q126 -2 123 16Z" />
<glyph unicode="w" glyph-name="w" horiz-adv-x="616" d="M100 -2T97 16L41 506Q39 525 78 525H93Q127 525 128 509L155 190Q158 146 160 94H165Q184 168 191 191L290 508Q294 525 327 525H346Q362 525 370 521T380 508L414 191Q416 159 416 149L419 95H424Q427
107 431 126Q435 139 439 155T448 190L542 509Q547 525 575 525H590Q609 525 618 520T627 508Q627 503 623 491L466 14Q462 -2 428 -2H394Q361 -2 360 14L326 309Q324 359 324 388H320L302 309L205 14Q200 -2 167 -2H132Q100 -2 97 16Z" />
<glyph unicode="x" glyph-name="x" horiz-adv-x="404" d="M12 0T6 2T0 11Q0 19 9 33L159 269L50 489Q45 501 46 508Q47 517 55 521T84 525H94Q110 525 118 523T131 511L193 370Q206 340 209 332L228 367L310 510Q315 519 325 522T352 525H364Q403 525 401 508Q400
505 392 490L250 265L363 34Q370 20 370 14Q370 0 345 0H321Q303 0 296 1T284 12L214 169Q207 184 199 204Q189 184 182 172L93 13Q88 5 81 3T64 0H27Q12 0 6 2Z" />
<glyph unicode="y" glyph-name="y" horiz-adv-x="399" d="M408 525T406 508Q404 500 400 490L133 -187Q123 -208 90 -208H69Q37 -208 39 -192Q39 -191 45 -175L132 34L42 490Q39 504 40 508Q42 525 81 525H95Q126 525 129 509L171 228Q179 174 182 148H188Q195
168 199 184L214 228L319 509Q324 525 358 525H370Q408 525 406 508Z" />
<glyph unicode="z" glyph-name="z" horiz-adv-x="405" d="M28 0T22 16T16 46Q16 56 23 66L286 451H92Q73 451 76 481L77 493Q79 509 84 516T99 523H377Q384 523 389 506T394 475Q394 466 388 456L125 72H335Q354 72 351 42L350 30Q348 14 343 7T328 0H37Q28 0 22 16Z" />
<glyph unicode="{" glyph-name="braceleft" horiz-adv-x="249" d="M105 -138T84 -117T63 -46Q63 -31 64 -22L83 156Q86 180 86 199Q86 228 78 246T50 274Q38 280 33 287T29 308L30 322Q31 335 38 342T59 356Q88 369 99 396T116 474L135 652Q142 715 170 741T225
768H270Q281 768 284 762T287 739V735Q286 719 281 713T264 706H247Q227 706 218 691T206 645L187 458Q181 400 154 366T100 314Q117 305 137 275T158 193Q158 179 157 172L137 -14Q136 -22 136 -36Q136 -56 142 -66T165 -76H182Q199 -76 199 -95Q199 -101 198
-105V-109Q197 -125 192 -131T175 -138H130Q105 -138 84 -117Z" />
<glyph unicode="|" glyph-name="bar" horiz-adv-x="200" d="M183 770T180 748L89 -118Q87 -140 63 -140H53Q29 -140 31 -118L122 748Q125 770 148 770H158Q183 770 180 748Z" />
<glyph unicode="}" glyph-name="braceright" horiz-adv-x="249" d="M-15 -138T-18 -132T-21 -109V-105Q-19 -89 -14 -83T3 -76H19Q39 -76 47 -61T59 -14L79 172Q83 214 100 245T136 292T167 314Q146 329 127 358T108 436Q108 450 109 458L128 645Q129 654 129
668Q129 688 123 697T101 706H85Q74 706 71 712T68 735V739Q69 755 74 761T91 768H135Q159 768 180 747T202 676Q202 660 201 652L182 474Q180 444 180 432Q180 402 188 384T216 356Q228 350 233 343T237 322L236 308Q235 295 228 288T207 274Q178 261 166 234T149
156L130 -22Q123 -86 96 -112T40 -138H-4Q-15 -138 -18 -132Z" />
<glyph unicode="~" glyph-name="asciitilde" horiz-adv-x="438" d="M65 226T57 231T48 240Q48 251 56 267Q86 324 146 324Q166 324 183 319T223 302Q247 292 262 287T295 282Q319 282 331 291T353 314T367 328Q373 328 383 322T393 311V308Q393 302 385 287Q368
256 346 242T292 227Q265 227 243 233T195 252Q181 258 167 263T140 268Q120 268 108 260T86 239T72 226Q65 226 57 231Z" />
<glyph unicode="&#xa0;" glyph-name="uni00A0" horiz-adv-x="137" />
<glyph unicode="&#xa1;" glyph-name="exclamdown" horiz-adv-x="246" d="M105 415T107 437L114 503Q117 525 155 525H173Q211 525 208 503L201 437Q199 415 161 415H143Q105 415 107 437ZM26 -179T29 -157L106 299Q108 310 115 315T138 321H147Q163 321 169 316T175
299L127 -157Q125 -179 87 -179H64Q26 -179 29 -157Z" />
<glyph unicode="&#xa2;" glyph-name="cent" horiz-adv-x="420" d="M349 522T375 510T401 484Q401 473 387 451T364 429Q362 429 354 433Q351 435 338 442T305 454L264 68Q293 71 322 88Q327 90 330 93T336 96Q345 96 354 78T364 47Q364 32 330 17T256 -4L251 -53Q250
-71 223 -71H218Q193 -71 194 -53L199 -5Q120 2 81 50T42 198Q42 352 96 435T255 528L260 571Q262 589 287 589H292Q319 589 317 571L312 527Q349 522 375 510ZM133 141T150 109T207 69L248 454Q192 441 163 377T133 201Q133 141 150 109Z" />
<glyph unicode="&#xa3;" glyph-name="sterling" horiz-adv-x="470" d="M15 0T15 20Q15 26 16 30L18 46Q19 53 26 59T48 72Q77 87 94 105T116 159L134 339H83Q59 339 62 367L63 380Q64 398 70 404T88 411H142L151 498Q172 706 344 706Q383 706 413 699T441 674Q441
667 433 646T414 625Q409 625 391 629T352 634Q298 634 270 603T235 503L226 411H341Q352 411 357 405T361 383L360 369Q359 352 353 346T336 339H218L209 249Q195 107 128 72H371Q381 72 385 65T388 42L387 30Q384 0 364 0H33Q15 0 15 20Z" />
<glyph unicode="&#xa4;" glyph-name="currency" horiz-adv-x="470" d="M68 143T63 152L62 154Q61 156 58 160T55 169Q55 181 69 193L102 223Q85 257 85 300Q85 368 123 422L96 450Q86 462 88 472Q90 481 96 488L100 493Q107 501 117 501Q127 501 138 489L160 464Q207
500 259 500Q312 500 350 465L378 490Q390 500 399 500Q408 500 417 491L419 489Q426 482 426 475Q426 462 413 450L381 421Q397 384 397 344Q397 278 360 222L386 193Q396 181 395 172Q394 167 391 161T383 153L381 152Q378 150 373 147T363 143Q354 143 343 154L320
179Q275 145 222 145Q170 145 131 179L103 153Q92 143 81 143Q68 143 63 152ZM272 206T303 242T335 342Q335 387 312 413T253 439Q209 439 178 402T146 303Q146 257 169 232T228 206Q272 206 303 242Z" />
<glyph unicode="&#xa5;" glyph-name="yen" horiz-adv-x="490" d="M514 681T506 667L338 382H434Q452 382 452 361L451 352L450 343Q447 315 426 315H299L298 314L288 219H416Q434 219 434 198L433 189L432 180Q429 152 408 152H281L267 20Q265 -2 227 -2H213Q174
-2 177 20L191 152H65Q46 152 46 173L47 182L48 191Q51 219 73 219H198L209 315H83Q64 315 64 336L65 345L66 354Q69 382 91 382H184L75 667Q70 679 70 685Q70 694 79 698T110 702H127Q144 702 152 699T164 687L263 404L424 688Q429 696 439 699T465 702H478Q498
701 506 697T514 685Q514 681 506 667Z" />
<glyph unicode="&#xa6;" glyph-name="brokenbar" horiz-adv-x="200" d="M169 770T174 765T179 748Q179 736 167 616T145 425Q142 403 119 403H109Q96 403 92 408T87 425Q87 435 95 501Q114 653 121 748Q123 770 147 770H157Q169 770 174 765ZM112 226T117 221T122
204Q122 192 110 72T88 -118Q85 -140 62 -140H52Q39 -140 35 -135T30 -118Q30 -116 39 -37Q60 147 64 204Q66 226 90 226H100Q112 226 117 221Z" />
<glyph unicode="&#xa7;" glyph-name="section" horiz-adv-x="355" d="M109 -6T82 2T38 22T21 46Q21 57 36 78T59 100Q62 100 75 91T104 75T143 68Q177 68 197 86T218 133Q218 159 200 174T128 218Q41 265 41 342Q41 383 62 417T113 469Q75 505 75 556Q75 598 95
632T152 685T234 705Q274 705 307 693T341 664Q341 653 327 631T305 609Q303 609 282 621T232 633Q199 633 180 616T160 572Q160 545 176 530T213 505T239 492Q282 469 307 438T333 359Q333 321 315 289T264 235Q302 197 302 146Q302 103 281 69T223 14T139 -6Q109
-6 82 2ZM220 282T235 302T250 351Q250 380 234 394T181 428Q155 420 141 400T126 351Q126 322 143 307T194 276Q220 282 235 302Z" />
<glyph unicode="&#xa8;" glyph-name="dieresis" horiz-adv-x="229" d="M56 597T46 602T38 619L44 675Q46 687 56 692T90 697Q135 697 132 675L126 619Q124 608 114 603T80 597Q56 597 46 602ZM175 597T178 619L184 675Q186 686 196 691T230 697Q275 697 272 675L266
619Q264 608 254 603T220 597Q175 597 178 619Z" />
<glyph unicode="&#xa9;" glyph-name="copyright" horiz-adv-x="592" d="M226 -5T161 37T57 161T19 354Q19 465 57 545T160 668T306 710Q387 710 452 668T555 546T593 354Q593 243 555 162T452 38T306 -5Q226 -5 161 37ZM372 43T426 79T511 186T543 354Q543 452
512 521T426 626T306 662Q240 662 186 627T101 522T69 354Q69 257 100 187T186 80T306 43Q372 43 426 79ZM241 137T204 189T167 349Q167 562 320 562Q353 562 382 550T412 525Q412 517 405 504T391 490Q390 490 372 503T320 517Q269 517 245 477T220 349Q220 263
244 223T318 182Q341 182 357 189T384 204T397 212Q404 212 411 200T418 180Q418 172 403 162T365 144T318 137Q241 137 204 189Z" />
<glyph unicode="&#xaa;" glyph-name="ordfeminine" horiz-adv-x="281" d="M96 440T78 470T59 545Q59 611 88 659T170 708Q191 708 206 700T229 681Q234 695 238 700T251 706H259Q274 706 272 696L248 505L247 496Q247 477 262 477Q269 477 273 478T280 479Q283
479 283 474Q283 462 279 452Q277 447 269 444T250 441Q233 441 220 451T208 485Q181 440 135 440Q96 440 78 470ZM166 486T181 500T208 546L218 622L220 645Q214 652 202 657T175 663Q140 663 124 630T108 547Q108 486 149 486Q166 486 181 500Z" />
<glyph unicode="&#xab;" glyph-name="guillemotleft" horiz-adv-x="471" d="M164 62T156 74L56 230Q48 242 48 253Q48 260 52 266T67 286L210 447Q216 455 225 455Q236 455 247 445T258 424Q258 416 246 402L117 253L203 106Q210 94 210 86Q210 78 198 70T173
62Q164 62 156 74ZM336 62T328 74L228 230Q220 242 220 253Q220 260 224 266T239 286L382 447Q388 455 397 455Q408 455 419 445T430 424Q430 416 418 402L289 253L375 106Q382 94 382 86Q382 78 370 70T345 62Q336 62 328 74Z" />
<glyph unicode="&#xac;" glyph-name="logicalnot" horiz-adv-x="449" d="M340 77T333 83T328 101L344 265H53Q31 265 34 293L35 306Q37 323 42 330T60 338H397Q413 338 419 331T424 306L402 99Q400 77 368 77H358Q340 77 333 83Z" />
<glyph unicode="&#xad;" glyph-name="uni00AD" horiz-adv-x="254" d="M27 229T30 257L31 271Q32 288 38 294T57 301H206Q228 301 225 273L224 259Q222 229 198 229H50Q27 229 30 257Z" />
<glyph unicode="&#xae;" glyph-name="registered" horiz-adv-x="592" d="M226 -5T161 37T57 161T19 354Q19 465 57 545T160 668T306 710Q387 710 452 668T555 546T593 354Q593 243 555 162T452 38T306 -5Q226 -5 161 37ZM372 43T426 79T511 186T543 354Q543 452
512 521T426 626T306 662Q240 662 186 627T101 522T69 354Q69 257 100 187T186 80T306 43Q372 43 426 79ZM207 145T207 158V541Q207 559 223 559H305Q362 559 390 535T418 455Q418 418 404 393T364 355V353Q376 347 385 329T404 279L440 163Q442 159 442 154Q442
145 420 145H410Q402 145 396 147T389 154L354 270Q344 304 331 316T292 328H259V158Q259 145 237 145H229Q207 145 207 158ZM313 373Q334 373 349 394T364 445Q364 480 350 497T310 514H258V373H313Z" />
<glyph unicode="&#xaf;" glyph-name="overscore" horiz-adv-x="237" d="M37 612T40 642L41 652Q44 682 63 682H262Q273 682 276 675T278 652L277 642Q274 612 255 612H56Q37 612 40 642Z" />
<glyph unicode="&#xb0;" glyph-name="degree" horiz-adv-x="276" d="M116 441T90 472T64 555Q64 621 95 663T183 706Q226 706 252 675T278 589Q278 527 247 484T159 441Q116 441 90 472ZM198 486T213 515T229 587Q229 622 216 641T177 661Q142 661 127 631T111
559Q111 524 124 505T163 486Q198 486 213 515Z" />
<glyph unicode="&#xb1;" glyph-name="plusminus" horiz-adv-x="449" d="M192 128T186 133T181 150L199 327H64Q42 327 45 353L46 366Q47 383 52 388T70 394H206L225 573Q226 584 232 588T257 593H264Q280 593 286 588T292 571L273 394H407Q416 394 421 389T425
370L424 355Q423 340 416 334T399 327H266L247 148Q246 128 215 128H208Q192 128 186 133ZM9 0T12 26L13 39Q14 56 19 61T37 67H372Q381 67 386 62T390 43L389 28Q388 13 381 7T364 0H31Q9 0 12 26Z" />
<glyph unicode="&#xb2;" glyph-name="uni00B2" horiz-adv-x="280" d="M45 350T43 355T40 368Q40 380 45 387L199 578Q229 615 238 630T247 664Q247 688 230 701T184 715Q162 715 146 709T118 694T102 685Q98 685 92 695T86 713Q86 729 121 743T190 757Q236 757
264 734T292 672Q292 649 284 630T262 591T231 551L102 391H258Q264 391 266 388T267 374L266 367Q264 358 262 354T252 350H49Q45 350 43 355Z" />
<glyph unicode="&#xb3;" glyph-name="uni00B3" horiz-adv-x="280" d="M96 344T67 354T37 376Q37 383 46 394T60 406Q63 406 83 397T132 387Q173 387 198 411T223 478Q223 542 147 542H124Q119 542 117 546T114 560V566Q114 583 128 583H149Q187 583 209 609T231
664Q231 684 217 699T169 715Q141 715 123 706T101 696Q97 696 91 707T85 725Q85 738 116 747T176 757Q224 757 252 734T281 669Q281 628 260 603T211 569V567Q237 559 255 537T274 477Q274 418 235 381T135 344Q96 344 67 354Z" />
<glyph unicode="&#xb4;" glyph-name="acute" horiz-adv-x="146" d="M34 576T34 588Q34 595 48 621L86 692Q93 705 106 711T151 718Q173 718 182 715T192 704Q192 699 187 692T174 676L160 660L110 600Q97 584 87 580T55 576Q34 576 34 588Z" />
<glyph unicode="&#xb5;" glyph-name="uni00B5" horiz-adv-x="453" d="M440 71T441 69T442 62Q442 52 438 27Q436 13 417 5T376 -3Q347 -3 324 12T294 68Q233 -6 163 -6Q134 -6 111 11Q114 -24 114 -59Q114 -122 105 -186Q102 -208 66 -208H55Q16 -208 19 -186L91
503Q94 525 132 525H143Q180 525 177 503L142 164Q141 156 141 142Q141 106 156 87T202 67Q227 67 251 85T296 137L334 503Q337 525 375 525H385Q422 525 420 503L379 110Q375 66 401 66Q414 66 423 68T436 71Q440 71 441 69Z" />
<glyph unicode="&#xb6;" glyph-name="paragraph" horiz-adv-x="466" d="M162 -173T165 -151L204 224Q159 231 124 262T68 341T48 446Q48 513 75 571T153 664T269 700H486Q507 700 504 676L502 662Q500 649 495 644T480 638H450L367 -151Q364 -173 340 -173H326Q303
-173 305 -151L388 638H310L227 -151Q224 -173 200 -173H186Q162 -173 165 -151Z" />
<glyph unicode="&#xb7;" glyph-name="middot" horiz-adv-x="214" d="M94 309T81 322T68 356Q68 380 82 396T121 412Q141 412 154 399T167 365Q167 338 152 324T114 309Q94 309 81 322Z" />
<glyph unicode="&#xb8;" glyph-name="cedilla" horiz-adv-x="190" d="M149 -68T149 -120Q149 -161 121 -185T45 -210Q10 -210 -18 -201T-46 -173Q-46 -164 -41 -157T-25 -149Q-17 -149 -2 -154Q25 -163 45 -163Q65 -163 77 -153T90 -124Q90 -111 83 -106T59 -94Q47
-90 42 -87T37 -77Q37 -69 66 0H110L87 -56Q149 -68 149 -120Z" />
<glyph unicode="&#xb9;" glyph-name="uni00B9" horiz-adv-x="280" d="M152 348T146 351T141 362L177 705L113 692H111Q106 692 104 698T102 713Q102 722 104 726T113 732L215 757H218Q223 757 227 754T231 746L191 362Q190 348 168 348H160Q152 348 146 351Z" />
<glyph unicode="&#xba;" glyph-name="ordmasculine" horiz-adv-x="292" d="M121 441T95 470T69 554Q69 629 100 667T190 706Q238 706 263 677T288 591Q288 517 258 479T170 441Q121 441 95 470ZM238 486T238 589Q238 661 184 661Q119 661 119 556Q119 522 132
504T173 486Q238 486 238 589Z" />
<glyph unicode="&#xbb;" glyph-name="guillemotright" horiz-adv-x="471" d="M134 453T142 441L242 285Q250 273 250 262Q250 255 246 249T231 229L88 68Q82 60 73 60Q62 60 51 70T40 91Q40 99 52 113L181 262L95 409Q88 421 88 429Q88 437 100 445T125 453Q134
453 142 441ZM306 453T314 441L414 285Q422 273 422 262Q422 255 418 249T403 229L260 68Q254 60 245 60Q234 60 223 70T212 91Q212 99 224 113L353 262L267 409Q260 421 260 429Q260 437 272 445T297 453Q306 453 314 441Z" />
<glyph unicode="&#xbc;" glyph-name="onequarter" horiz-adv-x="675" d="M368 288T362 291T357 302L393 645L329 632H327Q322 632 320 638T318 653Q318 662 320 666T329 672L431 697H434Q439 697 443 694T447 686L407 302Q406 288 384 288H376Q368 288 362 291ZM535
-2T536 11L545 96H402Q398 96 395 104T391 121Q391 128 395 133L576 397Q581 405 597 405H608Q616 405 620 402T624 392L598 137H630Q636 137 637 134T639 120V113Q639 96 625 96H593L584 11Q583 -2 565 -2H552Q535 -2 536 11ZM550 137L562 253Q566 294 574 323L571
324L445 137H550ZM105 -2T105 4Q105 7 112 19L498 695Q501 700 506 701T521 703H523Q536 703 541 702T546 697Q546 693 542 686L154 6Q151 1 146 0T129 -2H126Q105 -2 105 4Z" />
<glyph unicode="&#xbd;" glyph-name="onehalf" horiz-adv-x="675" d="M368 288T362 291T357 302L393 645L329 632H327Q322 632 320 638T318 653Q318 662 320 666T329 672L431 697H434Q439 697 443 694T447 686L407 302Q406 288 384 288H376Q368 288 362 291ZM391
0T389 5T386 18Q386 30 391 37L545 228Q575 265 584 280T593 314Q593 338 576 351T530 365Q508 365 492 359T464 344T448 335Q444 335 438 345T432 363Q432 379 467 393T536 407Q582 407 610 384T638 322Q638 299 630 280T608 241T577 201L448 41H604Q610 41 612
38T613 24L612 17Q610 8 608 4T598 0H395Q391 0 389 5ZM90 -2T90 4Q90 7 97 19L483 695Q486 700 491 701T506 703H508Q521 703 526 702T531 697Q531 693 527 686L139 6Q136 1 131 0T114 -2H111Q90 -2 90 4Z" />
<glyph unicode="&#xbe;" glyph-name="threequarters" horiz-adv-x="675" d="M336 284T307 294T277 316Q277 323 286 334T300 346Q303 346 323 337T372 327Q413 327 438 351T463 418Q463 482 387 482H364Q359 482 357 486T354 500V506Q354 523 368 523H389Q427
523 449 549T471 604Q471 624 457 639T409 655Q381 655 363 646T341 636Q337 636 331 647T325 665Q325 678 356 687T416 697Q464 697 492 674T521 609Q521 568 500 543T451 509V507Q477 499 495 477T514 417Q514 358 475 321T375 284Q336 284 307 294ZM535 -2T536
11L545 96H402Q398 96 395 104T391 121Q391 128 395 133L576 397Q581 405 597 405H608Q616 405 620 402T624 392L598 137H630Q636 137 637 134T639 120V113Q639 96 625 96H593L584 11Q583 -2 565 -2H552Q535 -2 536 11ZM550 137L562 253Q566 294 574 323L571 324L445
137H550ZM144 -2T144 4Q144 7 151 19L537 695Q540 700 545 701T560 703H562Q575 703 580 702T585 697Q585 693 581 686L193 6Q190 1 185 0T168 -2H165Q144 -2 144 4Z" />
<glyph unicode="&#xbf;" glyph-name="questiondown" horiz-adv-x="391" d="M322 525T319 503L312 437Q310 415 270 415H253Q213 415 215 437L222 503Q225 525 265 525H282Q322 525 319 503ZM287 321T285 298Q281 264 256 221T186 134Q135 84 111 51T87 -25Q87
-109 186 -109Q229 -109 279 -83Q283 -81 290 -78T301 -75Q308 -75 318 -95T327 -126Q325 -150 275 -166T169 -183Q87 -183 40 -142T-8 -37Q-8 2 8 35T45 93T106 160Q153 207 176 236T207 301Q210 312 217 316T242 321H257Q287 321 285 298Z" />
<glyph unicode="&#xc0;" glyph-name="Agrave" horiz-adv-x="505" d="M-15 -2T-13 15Q-13 19 -12 22T-10 28L240 683Q247 702 282 702H311Q346 702 349 683L464 28Q466 18 466 15Q465 7 455 3T427 -2H410Q380 -2 379 14L353 178H135L76 14Q69 -2 38 -2H22Q-15 -2
-13 15ZM340 250L296 533Q292 560 290 594H285Q270 547 265 533L161 250H340ZM306 752T297 754T282 765L241 819Q236 825 231 833T226 847Q226 864 270 864Q294 864 305 859T322 841L348 782Q353 771 353 765Q353 758 347 755T324 752Q306 752 297 754Z" />
<glyph unicode="&#xc1;" glyph-name="Aacute" horiz-adv-x="505" d="M-15 -2T-13 15Q-13 19 -12 22T-10 28L240 683Q247 702 282 702H311Q346 702 349 683L464 28Q466 18 466 15Q465 7 455 3T427 -2H410Q380 -2 379 14L353 178H135L76 14Q69 -2 38 -2H22Q-15 -2
-13 15ZM340 250L296 533Q292 560 290 594H285Q270 547 265 533L161 250H340ZM250 752T250 762Q250 767 254 773T259 782L297 841Q306 854 318 859T355 864Q395 864 395 850Q395 840 374 819L321 765Q313 757 305 755T277 752Q250 752 250 762Z" />
<glyph unicode="&#xc2;" glyph-name="Acircumflex" horiz-adv-x="505" d="M-15 -2T-13 15Q-13 19 -12 22T-10 28L240 683Q247 702 282 702H311Q346 702 349 683L464 28Q466 18 466 15Q465 7 455 3T427 -2H410Q380 -2 379 14L353 178H135L76 14Q69 -2 38 -2H22Q-15
-2 -13 15ZM340 250L296 533Q292 560 290 594H285Q270 547 265 533L161 250H340ZM189 742T189 752Q189 760 206 784L239 831Q249 845 261 849T302 854H328Q352 854 365 850T385 831L407 786Q419 762 419 754Q419 742 390 742Q373 742 366 745T354 753L309 799L257
755Q250 749 242 746T215 742Q189 742 189 752Z" />
<glyph unicode="&#xc3;" glyph-name="Atilde" horiz-adv-x="505" d="M-15 -2T-13 15Q-13 19 -12 22T-10 28L240 683Q247 702 282 702H311Q346 702 349 683L464 28Q466 18 466 15Q465 7 455 3T427 -2H410Q380 -2 379 14L353 178H135L76 14Q69 -2 38 -2H22Q-15 -2
-13 15ZM340 250L296 533Q292 560 290 594H285Q270 547 265 533L161 250H340ZM346 758T330 763T291 780Q288 781 278 786T259 793T243 796Q222 796 205 772Q203 770 198 764T186 758Q179 758 168 764T157 776Q157 781 162 791Q195 858 252 858Q273 858 288 853T323
837Q326 836 336 831T355 824T373 821Q386 821 395 827T415 845Q428 860 436 860Q441 860 452 853T464 841Q464 836 458 824Q425 758 366 758Q346 758 330 763Z" />
<glyph unicode="&#xc4;" glyph-name="Adieresis" horiz-adv-x="505" d="M-15 -2T-13 15Q-13 19 -12 22T-10 28L240 683Q247 702 282 702H311Q346 702 349 683L464 28Q466 18 466 15Q465 7 455 3T427 -2H410Q380 -2 379 14L353 178H135L76 14Q69 -2 38 -2H22Q-15
-2 -13 15ZM340 250L296 533Q292 560 290 594H285Q270 547 265 533L161 250H340ZM204 758T197 764T190 780L196 836Q197 846 205 852T240 858Q265 858 273 852T280 836L274 780Q273 771 265 765T230 758Q204 758 197 764ZM337 758T340 780L346 836Q348 845 355
851T390 858Q433 858 430 836L424 780Q422 771 415 765T380 758Q337 758 340 780Z" />
<glyph unicode="&#xc5;" glyph-name="Aring" horiz-adv-x="505" d="M-15 -2T-13 15Q-13 19 -12 22T-10 28L240 683Q247 702 282 702H311Q346 702 349 683L464 28Q466 18 466 15Q465 7 455 3T427 -2H410Q380 -2 379 14L353 178H135L76 14Q69 -2 38 -2H22Q-15 -2
-13 15ZM340 250L296 533Q292 560 290 594H285Q270 547 265 533L161 250H340ZM272 747T250 768T228 822Q228 861 254 888T320 916Q354 916 376 894T398 840Q398 801 372 774T305 747Q272 747 250 768ZM326 792T338 805T351 836Q351 851 342 861T317 871Q300 871
288 858T275 827Q275 812 284 802T308 792Q326 792 338 805Z" />
<glyph unicode="&#xc6;" glyph-name="AE" horiz-adv-x="746" d="M-27 -2T-25 15Q-22 26 -19 31L304 673Q312 687 320 693T342 700H684Q703 700 700 670L698 654Q695 624 676 624H420L431 396H649Q668 396 665 366L663 350Q660 320 641 320H435L448 76H640Q656
76 656 57Q656 50 655 46L654 30Q652 14 647 7T632 0H389Q363 0 363 29L356 178H140L60 14Q53 -2 25 -2H11Q-27 -2 -25 15ZM351 253L339 526L343 584H341L316 526L180 253H351Z" />
<glyph unicode="&#xc7;" glyph-name="Ccedilla" horiz-adv-x="459" d="M471 681T471 666Q471 656 466 639T453 612T434 607Q397 628 349 628Q253 628 200 534T147 269Q147 169 182 121T290 72Q318 72 340 78T387 97Q390 99 396 99Q407 99 413 85T419 54Q419 41
413 32T391 15Q373 7 344 1T283 -6L262 -56Q324 -68 324 -120Q324 -161 296 -185T220 -210Q185 -210 157 -201T129 -173Q129 -164 134 -157T150 -149Q158 -149 173 -154Q200 -163 220 -163Q240 -163 252 -153T265 -124Q265 -111 258 -106T234 -94Q222 -90 217 -87T212
-77Q212 -70 239 -4Q145 7 100 72T54 261Q54 475 132 590T357 706Q409 706 457 687Q471 681 471 666Z" />
<glyph unicode="&#xc8;" glyph-name="Egrave" horiz-adv-x="457" d="M65 0T59 7T55 30L123 670Q125 686 132 693T153 700H441Q460 700 457 670L455 654Q452 624 433 624H208L184 396H386Q405 396 402 366L400 350Q397 320 378 320H176L150 76H375Q385 76 389 69T391
46L389 30Q387 14 382 7T367 0H79Q65 0 59 7ZM297 752T288 754T273 765L232 819Q227 825 222 833T217 847Q217 864 261 864Q285 864 296 859T313 841L339 782Q344 771 344 765Q344 758 338 755T315 752Q297 752 288 754Z" />
<glyph unicode="&#xc9;" glyph-name="Eacute" horiz-adv-x="457" d="M65 0T59 7T55 30L123 670Q125 686 132 693T153 700H441Q460 700 457 670L455 654Q452 624 433 624H208L184 396H386Q405 396 402 366L400 350Q397 320 378 320H176L150 76H375Q385 76 389 69T391
46L389 30Q387 14 382 7T367 0H79Q65 0 59 7ZM241 752T241 762Q241 767 245 773T250 782L288 841Q297 854 309 859T346 864Q386 864 386 850Q386 840 365 819L312 765Q304 757 296 755T268 752Q241 752 241 762Z" />
<glyph unicode="&#xca;" glyph-name="Ecircumflex" horiz-adv-x="457" d="M65 0T59 7T55 30L123 670Q125 686 132 693T153 700H441Q460 700 457 670L455 654Q452 624 433 624H208L184 396H386Q405 396 402 366L400 350Q397 320 378 320H176L150 76H375Q385 76
389 69T391 46L389 30Q387 14 382 7T367 0H79Q65 0 59 7ZM180 742T180 752Q180 760 197 784L230 831Q240 845 252 849T293 854H319Q343 854 356 850T376 831L398 786Q410 762 410 754Q410 742 381 742Q364 742 357 745T345 753L300 799L248 755Q241 749 233 746T206
742Q180 742 180 752Z" />
<glyph unicode="&#xcb;" glyph-name="Edieresis" horiz-adv-x="457" d="M65 0T59 7T55 30L123 670Q125 686 132 693T153 700H441Q460 700 457 670L455 654Q452 624 433 624H208L184 396H386Q405 396 402 366L400 350Q397 320 378 320H176L150 76H375Q385 76 389
69T391 46L389 30Q387 14 382 7T367 0H79Q65 0 59 7ZM195 758T188 764T181 780L187 836Q188 846 196 852T231 858Q256 858 264 852T271 836L265 780Q264 771 256 765T221 758Q195 758 188 764ZM328 758T331 780L337 836Q339 845 346 851T381 858Q424 858 421 836L415
780Q413 771 406 765T371 758Q328 758 331 780Z" />
<glyph unicode="&#xcc;" glyph-name="Igrave" horiz-adv-x="262" d="M59 -2T61 20L131 680Q133 702 171 702H186Q223 702 221 680L151 20Q149 -2 112 -2H97Q59 -2 61 20ZM184 752T175 754T160 765L119 819Q114 825 109 833T104 847Q104 864 148 864Q172 864 183
859T200 841L226 782Q231 771 231 765Q231 758 225 755T202 752Q184 752 175 754Z" />
<glyph unicode="&#xcd;" glyph-name="Iacute" horiz-adv-x="262" d="M59 -2T61 20L131 680Q133 702 171 702H186Q223 702 221 680L151 20Q149 -2 112 -2H97Q59 -2 61 20ZM128 752T128 762Q128 767 132 773T137 782L175 841Q184 854 196 859T233 864Q273 864 273
850Q273 840 252 819L199 765Q191 757 183 755T155 752Q128 752 128 762Z" />
<glyph unicode="&#xce;" glyph-name="Icircumflex" horiz-adv-x="262" d="M59 -2T61 20L131 680Q133 702 171 702H186Q223 702 221 680L151 20Q149 -2 112 -2H97Q59 -2 61 20ZM67 742T67 752Q67 760 84 784L117 831Q127 845 139 849T180 854H206Q230 854 243 850T263
831L285 786Q297 762 297 754Q297 742 268 742Q251 742 244 745T232 753L187 799L135 755Q128 749 120 746T93 742Q67 742 67 752Z" />
<glyph unicode="&#xcf;" glyph-name="Idieresis" horiz-adv-x="262" d="M59 -2T61 20L131 680Q133 702 171 702H186Q223 702 221 680L151 20Q149 -2 112 -2H97Q59 -2 61 20ZM82 758T75 764T68 780L74 836Q75 846 83 852T118 858Q143 858 151 852T158 836L152 780Q151
771 143 765T108 758Q82 758 75 764ZM215 758T218 780L224 836Q226 845 233 851T268 858Q311 858 308 836L302 780Q300 771 293 765T258 758Q215 758 218 780Z" />
<glyph unicode="&#xd0;" glyph-name="Eth" horiz-adv-x="577" d="M427 700T486 635T545 424Q545 0 252 0H84Q70 0 64 7T60 30L91 320H39Q17 320 20 349L22 367Q23 383 29 389T48 396H99L128 670Q130 686 137 693T158 700H316Q427 700 486 635ZM366 76T409 171T452
415Q452 524 415 574T306 624H214L190 396H296Q308 396 313 389T316 364L315 352Q312 320 292 320H182L156 76H258Q366 76 409 171Z" />
<glyph unicode="&#xd1;" glyph-name="Ntilde" horiz-adv-x="590" d="M45 -2T48 20L117 680Q119 702 157 702H181Q196 702 205 698T218 682L401 225Q414 190 421 162L426 164Q424 176 424 200Q424 220 425 230L473 680Q475 702 513 702H525Q563 702 561 680L492
20Q489 -2 451 -2H433Q405 -2 399 13L208 485Q197 513 189 548L184 546Q186 534 186 510Q186 490 185 480L136 20Q134 -2 95 -2H83Q45 -2 48 20ZM384 758T368 763T329 780Q326 781 316 786T297 793T281 796Q260 796 243 772Q241 770 236 764T224 758Q217 758 206
764T195 776Q195 781 200 791Q233 858 290 858Q311 858 326 853T361 837Q364 836 374 831T393 824T411 821Q424 821 433 827T453 845Q466 860 474 860Q479 860 490 853T502 841Q502 836 496 824Q463 758 404 758Q384 758 368 763Z" />
<glyph unicode="&#xd2;" glyph-name="Ograve" horiz-adv-x="599" d="M168 -6T112 79T55 311Q55 417 84 506T176 651T335 706Q441 706 502 632T564 396Q564 291 536 200T446 52T286 -6Q168 -6 112 79ZM389 70T431 169T473 398Q473 630 332 630Q235 630 192 535T148
308Q148 70 290 70Q389 70 431 169ZM341 752T332 754T317 765L276 819Q271 825 266 833T261 847Q261 864 305 864Q329 864 340 859T357 841L383 782Q388 771 388 765Q388 758 382 755T359 752Q341 752 332 754Z" />
<glyph unicode="&#xd3;" glyph-name="Oacute" horiz-adv-x="599" d="M168 -6T112 79T55 311Q55 417 84 506T176 651T335 706Q441 706 502 632T564 396Q564 291 536 200T446 52T286 -6Q168 -6 112 79ZM389 70T431 169T473 398Q473 630 332 630Q235 630 192 535T148
308Q148 70 290 70Q389 70 431 169ZM285 752T285 762Q285 767 289 773T294 782L332 841Q341 854 353 859T390 864Q430 864 430 850Q430 840 409 819L356 765Q348 757 340 755T312 752Q285 752 285 762Z" />
<glyph unicode="&#xd4;" glyph-name="Ocircumflex" horiz-adv-x="599" d="M168 -6T112 79T55 311Q55 417 84 506T176 651T335 706Q441 706 502 632T564 396Q564 291 536 200T446 52T286 -6Q168 -6 112 79ZM389 70T431 169T473 398Q473 630 332 630Q235 630 192
535T148 308Q148 70 290 70Q389 70 431 169ZM224 742T224 752Q224 760 241 784L274 831Q284 845 296 849T337 854H363Q387 854 400 850T420 831L442 786Q454 762 454 754Q454 742 425 742Q408 742 401 745T389 753L344 799L292 755Q285 749 277 746T250 742Q224
742 224 752Z" />
<glyph unicode="&#xd5;" glyph-name="Otilde" horiz-adv-x="599" d="M168 -6T112 79T55 311Q55 417 84 506T176 651T335 706Q441 706 502 632T564 396Q564 291 536 200T446 52T286 -6Q168 -6 112 79ZM389 70T431 169T473 398Q473 630 332 630Q235 630 192 535T148
308Q148 70 290 70Q389 70 431 169ZM381 758T365 763T326 780Q323 781 313 786T294 793T278 796Q257 796 240 772Q238 770 233 764T221 758Q214 758 203 764T192 776Q192 781 197 791Q230 858 287 858Q308 858 323 853T358 837Q361 836 371 831T390 824T408 821Q421
821 430 827T450 845Q463 860 471 860Q476 860 487 853T499 841Q499 836 493 824Q460 758 401 758Q381 758 365 763Z" />
<glyph unicode="&#xd6;" glyph-name="Odieresis" horiz-adv-x="599" d="M168 -6T112 79T55 311Q55 417 84 506T176 651T335 706Q441 706 502 632T564 396Q564 291 536 200T446 52T286 -6Q168 -6 112 79ZM389 70T431 169T473 398Q473 630 332 630Q235 630 192 535T148
308Q148 70 290 70Q389 70 431 169ZM239 758T232 764T225 780L231 836Q232 846 240 852T275 858Q300 858 308 852T315 836L309 780Q308 771 300 765T265 758Q239 758 232 764ZM372 758T375 780L381 836Q383 845 390 851T425 858Q468 858 465 836L459 780Q457 771
450 765T415 758Q372 758 375 780Z" />
<glyph unicode="&#xd7;" glyph-name="multiply" horiz-adv-x="448" d="M42 1T28 14T13 36Q13 40 17 46T29 61L172 227L65 391Q58 401 55 407T51 418Q51 424 68 437T94 451Q103 451 111 439L219 274L360 440Q371 452 380 452Q388 452 403 439T418 418Q418 412 406
398L255 221L362 56Q373 40 373 32Q373 25 357 13T331 1Q326 1 322 4T313 15L208 174L70 14Q58 1 50 1Q42 1 28 14Z" />
<glyph unicode="&#xd8;" glyph-name="Oslash" horiz-adv-x="599" d="M564 553T564 396Q564 291 536 200T446 52T286 -6Q197 -6 141 45L109 -6Q102 -18 94 -18Q87 -18 79 -12T71 1Q71 9 76 15L114 76Q55 157 55 311Q55 417 84 506T176 651T335 706Q419 706 474
661L501 705Q507 716 516 716Q524 716 531 711T539 697Q539 692 535 685L502 632Q564 553 564 396ZM148 220T168 164L428 586Q394 630 332 630Q235 630 192 535T148 308Q148 220 168 164ZM389 70T431 169T473 398Q473 493 450 547L188 122Q224 70 290 70Q389 70
431 169Z" />
<glyph unicode="&#xd9;" glyph-name="Ugrave" horiz-adv-x="583" d="M165 -6T113 39T60 167Q60 185 61 195L112 680Q114 702 152 702H166Q204 702 202 680L151 192Q150 187 150 177Q150 129 183 100T272 70Q337 70 374 100T418 192L469 680Q471 702 509 702H523Q561
702 559 680L508 195Q498 100 435 47T264 -6Q165 -6 113 39ZM347 754T338 756T323 767L282 821Q277 827 272 835T267 849Q267 866 311 866Q335 866 346 861T363 843L389 784Q394 773 394 767Q394 760 388 757T365 754Q347 754 338 756Z" />
<glyph unicode="&#xda;" glyph-name="Uacute" horiz-adv-x="583" d="M165 -6T113 39T60 167Q60 185 61 195L112 680Q114 702 152 702H166Q204 702 202 680L151 192Q150 187 150 177Q150 129 183 100T272 70Q337 70 374 100T418 192L469 680Q471 702 509 702H523Q561
702 559 680L508 195Q498 100 435 47T264 -6Q165 -6 113 39ZM291 754T291 764Q291 769 295 775T300 784L338 843Q347 856 359 861T396 866Q436 866 436 852Q436 842 415 821L362 767Q354 759 346 757T318 754Q291 754 291 764Z" />
<glyph unicode="&#xdb;" glyph-name="Ucircumflex" horiz-adv-x="583" d="M165 -6T113 39T60 167Q60 185 61 195L112 680Q114 702 152 702H166Q204 702 202 680L151 192Q150 187 150 177Q150 129 183 100T272 70Q337 70 374 100T418 192L469 680Q471 702 509 702H523Q561
702 559 680L508 195Q498 100 435 47T264 -6Q165 -6 113 39ZM230 744T230 754Q230 762 247 786L280 833Q290 847 302 851T343 856H369Q393 856 406 852T426 833L448 788Q460 764 460 756Q460 744 431 744Q414 744 407 747T395 755L350 801L298 757Q291 751 283
748T256 744Q230 744 230 754Z" />
<glyph unicode="&#xdc;" glyph-name="Udieresis" horiz-adv-x="583" d="M165 -6T113 39T60 167Q60 185 61 195L112 680Q114 702 152 702H166Q204 702 202 680L151 192Q150 187 150 177Q150 129 183 100T272 70Q337 70 374 100T418 192L469 680Q471 702 509 702H523Q561
702 559 680L508 195Q498 100 435 47T264 -6Q165 -6 113 39ZM245 760T238 766T231 782L237 838Q238 848 246 854T281 860Q306 860 314 854T321 838L315 782Q314 773 306 767T271 760Q245 760 238 766ZM378 760T381 782L387 838Q389 847 396 853T431 860Q474 860
471 838L465 782Q463 773 456 767T421 760Q378 760 381 782Z" />
<glyph unicode="&#xdd;" glyph-name="Yacute" horiz-adv-x="484" d="M169 -2T172 20L204 317L70 667Q65 679 65 685Q65 694 74 698T105 702H122Q139 702 147 699T159 687L258 404L419 688Q424 696 434 699T460 702H473Q493 701 501 697T509 685Q509 681 501 667L293
314L262 20Q260 -2 222 -2H208Q169 -2 172 20ZM240 752T240 762Q240 767 244 773T249 782L287 841Q296 854 308 859T345 864Q385 864 385 850Q385 840 364 819L311 765Q303 757 295 755T267 752Q240 752 240 762Z" />
<glyph unicode="&#xde;" glyph-name="Thorn" horiz-adv-x="482" d="M45 -2T48 20L117 680Q119 702 157 702H171Q210 702 207 680L196 579H278Q368 579 414 534T461 400Q461 298 408 238T264 177H154L138 20Q136 -2 97 -2H83Q45 -2 48 20ZM267 253Q317 253 343
290T369 398Q369 453 345 478T266 503H188L162 253H267Z" />
<glyph unicode="&#xdf;" glyph-name="germandbls" horiz-adv-x="480" d="M52 -2T55 20L108 532Q116 610 165 658T295 706Q360 706 402 673T444 568Q444 508 416 458T341 387V384Q386 371 408 332T431 236Q431 170 407 117T337 32T230 0H211Q199 0 194 6T190 26L192
42Q195 72 214 72H235Q264 72 288 91T327 146T342 230Q342 282 319 311T259 340H242Q223 340 226 370L228 382Q231 412 249 412H255Q280 412 303 430T340 480T354 554Q354 634 284 634Q246 634 223 608T194 532L141 20Q138 -2 101 -2H90Q52 -2 55 20Z" />
<glyph unicode="&#xe0;" glyph-name="agrave" horiz-adv-x="481" d="M107 -7T76 52T44 203Q44 287 67 361T135 482T244 529Q310 529 352 475Q361 502 369 513T397 525H403Q431 525 428 504L380 123Q379 116 379 105Q379 66 408 66Q420 66 430 68T444 71Q450 71
450 62Q450 52 448 38T442 17Q438 7 421 1T385 -6Q353 -6 328 13T301 83Q255 -7 174 -7Q107 -7 76 52ZM230 66T259 97T309 198L330 367Q333 398 337 417Q321 434 303 445T257 456Q190 456 160 383T129 202Q129 141 145 104T198 66Q230 66 259 97ZM283 576T274 580T254
600L217 655Q194 690 194 701Q194 710 205 714T239 718Q270 718 282 711T299 689L321 621Q328 600 328 590Q328 583 322 580T305 576Q283 576 274 580Z" />
<glyph unicode="&#xe1;" glyph-name="aacute" horiz-adv-x="481" d="M107 -7T76 52T44 203Q44 287 67 361T135 482T244 529Q310 529 352 475Q361 502 369 513T397 525H403Q431 525 428 504L380 123Q379 116 379 105Q379 66 408 66Q420 66 430 68T444 71Q450 71
450 62Q450 52 448 38T442 17Q438 7 421 1T385 -6Q353 -6 328 13T301 83Q255 -7 174 -7Q107 -7 76 52ZM230 66T259 97T309 198L330 367Q333 398 337 417Q321 434 303 445T257 456Q190 456 160 383T129 202Q129 141 145 104T198 66Q230 66 259 97ZM218 576T218 588Q218
595 232 621L270 692Q277 705 290 711T335 718Q357 718 366 715T376 704Q376 699 371 692T358 676L344 660L294 600Q281 584 271 580T239 576Q218 576 218 588Z" />
<glyph unicode="&#xe2;" glyph-name="acircumflex" horiz-adv-x="481" d="M107 -7T76 52T44 203Q44 287 67 361T135 482T244 529Q310 529 352 475Q361 502 369 513T397 525H403Q431 525 428 504L380 123Q379 116 379 105Q379 66 408 66Q420 66 430 68T444 71Q450
71 450 62Q450 52 448 38T442 17Q438 7 421 1T385 -6Q353 -6 328 13T301 83Q255 -7 174 -7Q107 -7 76 52ZM230 66T259 97T309 198L330 367Q333 398 337 417Q321 434 303 445T257 456Q190 456 160 383T129 202Q129 141 145 104T198 66Q230 66 259 97ZM168 576T168
588Q168 595 182 621L220 692Q227 705 239 711T275 718H306Q329 718 340 712T355 692L377 621Q385 595 385 590Q385 576 357 576Q338 576 331 581T316 600L284 656L239 600Q228 586 220 581T195 576Q168 576 168 588Z" />
<glyph unicode="&#xe3;" glyph-name="atilde" horiz-adv-x="481" d="M107 -7T76 52T44 203Q44 287 67 361T135 482T244 529Q310 529 352 475Q361 502 369 513T397 525H403Q431 525 428 504L380 123Q379 116 379 105Q379 66 408 66Q420 66 430 68T444 71Q450 71
450 62Q450 52 448 38T442 17Q438 7 421 1T385 -6Q353 -6 328 13T301 83Q255 -7 174 -7Q107 -7 76 52ZM230 66T259 97T309 198L330 367Q333 398 337 417Q321 434 303 445T257 456Q190 456 160 383T129 202Q129 141 145 104T198 66Q230 66 259 97ZM153 598T142 603T130
615Q130 620 135 632Q147 660 171 678T222 696Q248 696 292 676Q311 667 323 663T347 659Q360 659 368 665T387 682Q388 683 392 688T399 695T407 697Q413 697 424 691T435 679Q435 672 430 660Q402 600 342 600Q326 600 310 605T271 620Q233 637 216 637Q203 637
195 631T177 612Q176 611 171 605T159 598Q153 598 142 603Z" />
<glyph unicode="&#xe4;" glyph-name="adieresis" horiz-adv-x="481" d="M107 -7T76 52T44 203Q44 287 67 361T135 482T244 529Q310 529 352 475Q361 502 369 513T397 525H403Q431 525 428 504L380 123Q379 116 379 105Q379 66 408 66Q420 66 430 68T444 71Q450
71 450 62Q450 52 448 38T442 17Q438 7 421 1T385 -6Q353 -6 328 13T301 83Q255 -7 174 -7Q107 -7 76 52ZM230 66T259 97T309 198L330 367Q333 398 337 417Q321 434 303 445T257 456Q190 456 160 383T129 202Q129 141 145 104T198 66Q230 66 259 97ZM184 597T174
602T166 619L172 675Q174 687 184 692T218 697Q263 697 260 675L254 619Q252 608 242 603T208 597Q184 597 174 602ZM303 597T306 619L312 675Q314 686 324 691T358 697Q403 697 400 675L394 619Q392 608 382 603T348 597Q303 597 306 619Z" />
<glyph unicode="&#xe5;" glyph-name="aring" horiz-adv-x="481" d="M107 -7T76 52T44 203Q44 287 67 361T135 482T244 529Q310 529 352 475Q361 502 369 513T397 525H403Q431 525 428 504L380 123Q379 116 379 105Q379 66 408 66Q420 66 430 68T444 71Q450 71
450 62Q450 52 448 38T442 17Q438 7 421 1T385 -6Q353 -6 328 13T301 83Q255 -7 174 -7Q107 -7 76 52ZM230 66T259 97T309 198L330 367Q333 398 337 417Q321 434 303 445T257 456Q190 456 160 383T129 202Q129 141 145 104T198 66Q230 66 259 97ZM241 570T222 590T202
645Q202 686 227 712T292 739Q326 739 346 719T366 663Q366 623 341 597T276 570Q241 570 222 590ZM296 617T306 629T317 661Q317 676 309 685T288 694Q272 694 262 681T251 649Q251 634 259 626T280 617Q296 617 306 629Z" />
<glyph unicode="&#xe6;" glyph-name="ae" horiz-adv-x="688" d="M103 -6T61 30T19 123Q19 209 81 250T279 296Q291 362 323 414Q307 436 282 444T231 453Q196 453 176 448T139 433Q121 425 113 425Q104 425 94 443T84 471Q84 484 107 497T165 520T230 529Q332
529 379 479Q411 505 443 517T513 529Q576 529 614 491T653 391Q653 322 620 286T532 238T396 226H358Q356 208 356 199Q356 141 391 104T483 66Q526 66 576 90Q594 98 599 98Q609 98 609 84Q609 83 609 71T604 41Q600 31 581 20T532 2T467 -6Q435 -6 394 7T322
50Q293 24 252 9T170 -6Q103 -6 61 30ZM442 297T485 304T547 331T566 385Q566 414 550 431T500 449Q457 449 419 412T365 298Q442 297 485 304ZM233 69T287 108Q270 144 270 200Q270 217 271 226Q193 226 149 204T105 138Q105 105 125 87T184 69Q233 69 287 108Z"
/>
<glyph unicode="&#xe7;" glyph-name="ccedilla" horiz-adv-x="408" d="M326 529T363 516T401 484Q401 473 387 451T364 429Q362 429 354 433Q351 434 339 441T310 452T275 457Q206 457 170 392T133 201Q133 131 158 99T237 66Q266 66 285 72T322 88Q327 90 330
93T336 96Q345 96 354 78T364 47Q364 35 342 23T287 2T227 -6H225L204 -56Q266 -68 266 -120Q266 -161 238 -185T162 -210Q127 -210 99 -201T71 -173Q71 -164 76 -157T92 -149Q100 -149 115 -154Q142 -163 162 -163Q182 -163 194 -153T207 -124Q207 -111 200 -106T176
-94Q164 -90 159 -87T154 -77Q154 -70 182 -3Q111 8 77 56T42 198Q42 361 103 445T281 529Q326 529 363 516Z" />
<glyph unicode="&#xe8;" glyph-name="egrave" horiz-adv-x="454" d="M383 115T383 94Q383 79 380 65T368 42Q347 19 308 7T237 -6Q48 -6 48 194Q48 289 74 364T153 484T286 529Q336 529 367 508T412 456T426 396Q426 307 364 260T202 213Q169 213 135 219V210Q133
131 161 99T244 66Q277 66 300 76T352 103Q369 115 375 115Q383 115 383 94ZM215 457T183 410T140 285H193Q254 285 297 309T340 389Q340 418 323 437T277 457Q215 457 183 410ZM286 576T277 580T257 600L220 655Q197 690 197 701Q197 710 208 714T242 718Q273
718 285 711T302 689L324 621Q331 600 331 590Q331 583 325 580T308 576Q286 576 277 580Z" />
<glyph unicode="&#xe9;" glyph-name="eacute" horiz-adv-x="454" d="M383 115T383 94Q383 79 380 65T368 42Q347 19 308 7T237 -6Q48 -6 48 194Q48 289 74 364T153 484T286 529Q336 529 367 508T412 456T426 396Q426 307 364 260T202 213Q169 213 135 219V210Q133
131 161 99T244 66Q277 66 300 76T352 103Q369 115 375 115Q383 115 383 94ZM215 457T183 410T140 285H193Q254 285 297 309T340 389Q340 418 323 437T277 457Q215 457 183 410ZM221 576T221 588Q221 595 235 621L273 692Q280 705 293 711T338 718Q360 718 369
715T379 704Q379 699 374 692T361 676L347 660L297 600Q284 584 274 580T242 576Q221 576 221 588Z" />
<glyph unicode="&#xea;" glyph-name="ecircumflex" horiz-adv-x="454" d="M383 115T383 94Q383 79 380 65T368 42Q347 19 308 7T237 -6Q48 -6 48 194Q48 289 74 364T153 484T286 529Q336 529 367 508T412 456T426 396Q426 307 364 260T202 213Q169 213 135 219V210Q133
131 161 99T244 66Q277 66 300 76T352 103Q369 115 375 115Q383 115 383 94ZM215 457T183 410T140 285H193Q254 285 297 309T340 389Q340 418 323 437T277 457Q215 457 183 410ZM171 576T171 588Q171 595 185 621L223 692Q230 705 242 711T278 718H309Q332 718
343 712T358 692L380 621Q388 595 388 590Q388 576 360 576Q341 576 334 581T319 600L287 656L242 600Q231 586 223 581T198 576Q171 576 171 588Z" />
<glyph unicode="&#xeb;" glyph-name="edieresis" horiz-adv-x="454" d="M383 115T383 94Q383 79 380 65T368 42Q347 19 308 7T237 -6Q48 -6 48 194Q48 289 74 364T153 484T286 529Q336 529 367 508T412 456T426 396Q426 307 364 260T202 213Q169 213 135 219V210Q133
131 161 99T244 66Q277 66 300 76T352 103Q369 115 375 115Q383 115 383 94ZM215 457T183 410T140 285H193Q254 285 297 309T340 389Q340 418 323 437T277 457Q215 457 183 410ZM187 597T177 602T169 619L175 675Q177 687 187 692T221 697Q266 697 263 675L257
619Q255 608 245 603T211 597Q187 597 177 602ZM306 597T309 619L315 675Q317 686 327 691T361 697Q406 697 403 675L397 619Q395 608 385 603T351 597Q306 597 309 619Z" />
<glyph unicode="&#xec;" glyph-name="igrave" horiz-adv-x="254" d="M113 -6T87 15T61 90Q61 104 62 112L102 503Q103 515 113 520T144 525H148Q169 525 178 519T186 499L147 108Q146 103 146 94Q146 79 151 73T169 66Q181 66 190 68T203 71Q209 71 209 62Q209
51 207 37T201 17Q197 7 180 1T144 -6Q113 -6 87 15ZM376 576T367 580T347 600L310 655Q287 690 287 701Q287 710 298 714T332 718Q363 718 375 711T392 689L414 621Q421 600 421 590Q421 583 415 580T398 576Q376 576 367 580Z" />
<glyph unicode="&#xed;" glyph-name="iacute" horiz-adv-x="254" d="M113 -6T87 15T61 90Q61 104 62 112L102 503Q103 515 113 520T144 525H148Q169 525 178 519T186 499L147 108Q146 103 146 94Q146 79 151 73T169 66Q181 66 190 68T203 71Q209 71 209 62Q209
51 207 37T201 17Q197 7 180 1T144 -6Q113 -6 87 15ZM91 576T91 588Q91 595 105 621L143 692Q150 705 163 711T208 718Q230 718 239 715T249 704Q249 699 244 692T231 676L217 660L167 600Q154 584 144 580T112 576Q91 576 91 588Z" />
<glyph unicode="&#xee;" glyph-name="icircumflex" horiz-adv-x="254" d="M113 -6T87 15T61 90Q61 104 62 112L102 503Q103 515 113 520T144 525H148Q169 525 178 519T186 499L147 108Q146 103 146 94Q146 79 151 73T169 66Q181 66 190 68T203 71Q209 71 209 62Q209
51 207 37T201 17Q197 7 180 1T144 -6Q113 -6 87 15ZM282 576T282 588Q282 595 296 621L334 692Q341 705 353 711T389 718H420Q443 718 454 712T469 692L491 621Q499 595 499 590Q499 576 471 576Q452 576 445 581T430 600L398 656L353 600Q342 586 334 581T309
576Q282 576 282 588Z" />
<glyph unicode="&#xef;" glyph-name="idieresis" horiz-adv-x="254" d="M113 -6T87 15T61 90Q61 104 62 112L102 503Q103 515 113 520T144 525H148Q169 525 178 519T186 499L147 108Q146 103 146 94Q146 79 151 73T169 66Q181 66 190 68T203 71Q209 71 209 62Q209
51 207 37T201 17Q197 7 180 1T144 -6Q113 -6 87 15ZM302 597T292 602T284 619L290 675Q292 687 302 692T336 697Q381 697 378 675L372 619Q370 608 360 603T326 597Q302 597 292 602ZM421 597T424 619L430 675Q432 686 442 691T476 697Q521 697 518 675L512 619Q510
608 500 603T466 597Q421 597 424 619Z" />
<glyph unicode="&#xf0;" glyph-name="eth" horiz-adv-x="477" d="M441 634T437 631T425 626L365 618Q397 550 415 465T433 298Q433 167 384 81T226 -6Q141 -6 93 52T44 230Q44 305 64 372T128 483T239 526Q265 526 289 519T330 501Q325 542 293 608L197 595Q187
594 180 605T174 627Q175 632 179 635T191 640L271 651L260 669Q258 673 251 684T243 702Q243 706 247 708T260 712Q274 714 287 714Q298 714 302 712T311 704Q328 684 342 660L420 671Q432 673 437 661T442 639Q441 634 437 631ZM293 66T319 133T346 287Q346 376
321 415T250 454Q182 454 157 388T131 234Q131 143 155 105T225 66Q293 66 319 133Z" />
<glyph unicode="&#xf1;" glyph-name="ntilde" horiz-adv-x="482" d="M451 71T451 62Q451 52 449 38T443 17Q439 8 422 1T386 -6Q355 -6 329 15T303 91Q303 105 304 113L329 365Q330 372 330 385Q330 456 270 456Q244 456 219 437T175 386L136 20Q134 -2 96 -2H85Q48
-2 51 22L87 367Q92 420 92 453Q92 472 91 483T91 499Q92 511 114 516T151 522Q165 522 169 509T174 473Q174 457 173 450Q199 487 234 508T306 529Q360 529 389 495T419 401Q419 393 417 373L389 108L388 96Q388 66 413 66Q422 66 431 68T445 71Q451 71 451 62ZM144
598T133 603T121 615Q121 620 126 632Q138 660 162 678T213 696Q239 696 283 676Q302 667 314 663T338 659Q351 659 359 665T378 682Q379 683 383 688T390 695T398 697Q404 697 415 691T426 679Q426 672 421 660Q393 600 333 600Q317 600 301 605T262 620Q224 637
207 637Q194 637 186 631T168 612Q167 611 162 605T150 598Q144 598 133 603Z" />
<glyph unicode="&#xf2;" glyph-name="ograve" horiz-adv-x="477" d="M137 -6T91 50T44 216Q44 349 96 439T254 529Q341 529 387 472T433 302Q433 169 383 82T225 -6Q137 -6 91 50ZM295 66T320 136T346 306Q346 457 248 457Q183 457 158 386T132 215Q132 66 230
66Q295 66 320 136ZM262 576T253 580T233 600L196 655Q173 690 173 701Q173 710 184 714T218 718Q249 718 261 711T278 689L300 621Q307 600 307 590Q307 583 301 580T284 576Q262 576 253 580Z" />
<glyph unicode="&#xf3;" glyph-name="oacute" horiz-adv-x="477" d="M137 -6T91 50T44 216Q44 349 96 439T254 529Q341 529 387 472T433 302Q433 169 383 82T225 -6Q137 -6 91 50ZM295 66T320 136T346 306Q346 457 248 457Q183 457 158 386T132 215Q132 66 230
66Q295 66 320 136ZM197 576T197 588Q197 595 211 621L249 692Q256 705 269 711T314 718Q336 718 345 715T355 704Q355 699 350 692T337 676L323 660L273 600Q260 584 250 580T218 576Q197 576 197 588Z" />
<glyph unicode="&#xf4;" glyph-name="ocircumflex" horiz-adv-x="477" d="M137 -6T91 50T44 216Q44 349 96 439T254 529Q341 529 387 472T433 302Q433 169 383 82T225 -6Q137 -6 91 50ZM295 66T320 136T346 306Q346 457 248 457Q183 457 158 386T132 215Q132 66
230 66Q295 66 320 136ZM147 576T147 588Q147 595 161 621L199 692Q206 705 218 711T254 718H285Q308 718 319 712T334 692L356 621Q364 595 364 590Q364 576 336 576Q317 576 310 581T295 600L263 656L218 600Q207 586 199 581T174 576Q147 576 147 588Z" />
<glyph unicode="&#xf5;" glyph-name="otilde" horiz-adv-x="477" d="M137 -6T91 50T44 216Q44 349 96 439T254 529Q341 529 387 472T433 302Q433 169 383 82T225 -6Q137 -6 91 50ZM295 66T320 136T346 306Q346 457 248 457Q183 457 158 386T132 215Q132 66 230
66Q295 66 320 136ZM132 598T121 603T109 615Q109 620 114 632Q126 660 150 678T201 696Q227 696 271 676Q290 667 302 663T326 659Q339 659 347 665T366 682Q367 683 371 688T378 695T386 697Q392 697 403 691T414 679Q414 672 409 660Q381 600 321 600Q305 600
289 605T250 620Q212 637 195 637Q182 637 174 631T156 612Q155 611 150 605T138 598Q132 598 121 603Z" />
<glyph unicode="&#xf6;" glyph-name="odieresis" horiz-adv-x="477" d="M137 -6T91 50T44 216Q44 349 96 439T254 529Q341 529 387 472T433 302Q433 169 383 82T225 -6Q137 -6 91 50ZM295 66T320 136T346 306Q346 457 248 457Q183 457 158 386T132 215Q132 66
230 66Q295 66 320 136ZM163 597T153 602T145 619L151 675Q153 687 163 692T197 697Q242 697 239 675L233 619Q231 608 221 603T187 597Q163 597 153 602ZM282 597T285 619L291 675Q293 686 303 691T337 697Q382 697 379 675L373 619Q371 608 361 603T327 597Q282
597 285 619Z" />
<glyph unicode="&#xf7;" glyph-name="divide" horiz-adv-x="448" d="M194 368T197 390L202 441Q204 463 242 463H247Q285 463 283 441L278 390Q275 368 237 368H232Q194 368 197 390ZM23 194T26 222L27 236Q28 253 34 259T53 266H396Q406 266 411 261T415 240L414
224Q413 194 387 194H46Q23 194 26 222ZM155 -2T158 20L163 71Q165 93 203 93H208Q246 93 244 71L239 20Q236 -2 198 -2H193Q155 -2 158 20Z" />
<glyph unicode="&#xf8;" glyph-name="oslash" horiz-adv-x="477" d="M433 401T433 302Q433 169 383 82T225 -6Q150 -6 107 33L85 2Q81 -6 72 -6Q65 -6 56 1T46 15Q46 19 52 28L79 67Q44 122 44 216Q44 349 96 439T254 529Q325 529 369 491L389 520Q395 528 402
528Q409 528 418 521T428 507Q428 503 422 494L397 458Q433 401 433 302ZM132 183T137 153L321 420Q296 457 248 457Q183 457 158 386T132 215Q132 183 137 153ZM295 66T320 136T346 306Q346 346 340 374L155 105Q181 66 230 66Q295 66 320 136Z" />
<glyph unicode="&#xf9;" glyph-name="ugrave" horiz-adv-x="482" d="M449 71T449 62Q448 53 446 37T441 17Q437 7 420 1T384 -6Q355 -6 332 11T302 67Q276 32 241 13T168 -7Q112 -7 82 25T52 114Q52 130 53 138L92 502Q95 524 132 524H142Q180 524 178 502L141
151Q140 145 140 134Q140 66 203 66Q231 66 257 85T303 136L342 502Q344 524 382 524H392Q430 524 428 502L387 108L386 96Q386 66 411 66Q420 66 429 68T443 71Q449 71 449 62ZM275 576T266 580T246 600L209 655Q186 690 186 701Q186 710 197 714T231 718Q262
718 274 711T291 689L313 621Q320 600 320 590Q320 583 314 580T297 576Q275 576 266 580Z" />
<glyph unicode="&#xfa;" glyph-name="uacute" horiz-adv-x="482" d="M449 71T449 62Q448 53 446 37T441 17Q437 7 420 1T384 -6Q355 -6 332 11T302 67Q276 32 241 13T168 -7Q112 -7 82 25T52 114Q52 130 53 138L92 502Q95 524 132 524H142Q180 524 178 502L141
151Q140 145 140 134Q140 66 203 66Q231 66 257 85T303 136L342 502Q344 524 382 524H392Q430 524 428 502L387 108L386 96Q386 66 411 66Q420 66 429 68T443 71Q449 71 449 62ZM210 576T210 588Q210 595 224 621L262 692Q269 705 282 711T327 718Q349 718 358
715T368 704Q368 699 363 692T350 676L336 660L286 600Q273 584 263 580T231 576Q210 576 210 588Z" />
<glyph unicode="&#xfb;" glyph-name="ucircumflex" horiz-adv-x="482" d="M449 71T449 62Q448 53 446 37T441 17Q437 7 420 1T384 -6Q355 -6 332 11T302 67Q276 32 241 13T168 -7Q112 -7 82 25T52 114Q52 130 53 138L92 502Q95 524 132 524H142Q180 524 178 502L141
151Q140 145 140 134Q140 66 203 66Q231 66 257 85T303 136L342 502Q344 524 382 524H392Q430 524 428 502L387 108L386 96Q386 66 411 66Q420 66 429 68T443 71Q449 71 449 62ZM160 576T160 588Q160 595 174 621L212 692Q219 705 231 711T267 718H298Q321 718
332 712T347 692L369 621Q377 595 377 590Q377 576 349 576Q330 576 323 581T308 600L276 656L231 600Q220 586 212 581T187 576Q160 576 160 588Z" />
<glyph unicode="&#xfc;" glyph-name="udieresis" horiz-adv-x="482" d="M449 71T449 62Q448 53 446 37T441 17Q437 7 420 1T384 -6Q355 -6 332 11T302 67Q276 32 241 13T168 -7Q112 -7 82 25T52 114Q52 130 53 138L92 502Q95 524 132 524H142Q180 524 178 502L141
151Q140 145 140 134Q140 66 203 66Q231 66 257 85T303 136L342 502Q344 524 382 524H392Q430 524 428 502L387 108L386 96Q386 66 411 66Q420 66 429 68T443 71Q449 71 449 62ZM176 597T166 602T158 619L164 675Q166 687 176 692T210 697Q255 697 252 675L246
619Q244 608 234 603T200 597Q176 597 166 602ZM295 597T298 619L304 675Q306 686 316 691T350 697Q395 697 392 675L386 619Q384 608 374 603T340 597Q295 597 298 619Z" />
<glyph unicode="&#xfd;" glyph-name="yacute" horiz-adv-x="399" d="M408 525T406 508Q404 500 400 490L133 -187Q123 -208 90 -208H69Q37 -208 39 -192Q39 -191 45 -175L132 34L42 490Q39 504 40 508Q42 525 81 525H95Q126 525 129 509L171 228Q179 174 182 148H188Q195
168 199 184L214 228L319 509Q324 525 358 525H370Q408 525 406 508ZM172 576T172 588Q172 595 186 621L224 692Q231 705 244 711T289 718Q311 718 320 715T330 704Q330 699 325 692T312 676L298 660L248 600Q235 584 225 580T193 576Q172 576 172 588Z" />
<glyph unicode="&#xfe;" glyph-name="thorn" horiz-adv-x="483" d="M25 -208T28 -186L124 730Q126 752 167 752H173Q213 752 210 730L182 464Q235 529 302 529Q365 529 400 471T435 312Q435 227 413 155T346 38T239 -6Q204 -6 181 7T138 45L114 -186Q112 -208
75 -208H64Q25 -208 28 -186ZM289 68T318 140T347 313Q347 384 329 420T275 456Q250 456 224 438T174 387L145 113Q175 68 226 68Q289 68 318 140Z" />
<glyph unicode="&#xff;" glyph-name="ydieresis" horiz-adv-x="399" d="M408 525T406 508Q404 500 400 490L133 -187Q123 -208 90 -208H69Q37 -208 39 -192Q39 -191 45 -175L132 34L42 490Q39 504 40 508Q42 525 81 525H95Q126 525 129 509L171 228Q179 174 182
148H188Q195 168 199 184L214 228L319 509Q324 525 358 525H370Q408 525 406 508ZM138 597T128 602T120 619L126 675Q128 687 138 692T172 697Q217 697 214 675L208 619Q206 608 196 603T162 597Q138 597 128 602ZM257 597T260 619L266 675Q268 686 278 691T312
697Q357 697 354 675L348 619Q346 608 336 603T302 597Q257 597 260 619Z" />
<glyph unicode="&#x2013;" glyph-name="endash" horiz-adv-x="443" d="M37 230T40 260L41 270Q44 300 63 300H388Q407 300 404 270L403 260Q400 230 381 230H56Q37 230 40 260Z" />
<glyph unicode="&#x2014;" glyph-name="emdash" horiz-adv-x="886" d="M47 230T50 260L51 270Q54 300 73 300H821Q840 300 837 270L836 260Q833 230 814 230H66Q47 230 50 260Z" />
<glyph unicode="&#x2018;" glyph-name="quoteleft" horiz-adv-x="210" d="M87 515T77 522T69 543Q75 599 97 643T146 713T192 739Q203 739 212 736T220 724Q219 717 208 700Q187 667 175 631T158 547Q156 532 146 524T115 515H106Q87 515 77 522Z" />
<glyph unicode="&#x2019;" glyph-name="quoteright" horiz-adv-x="210" d="M85 530T77 533T69 545Q69 551 80 569Q122 637 130 722Q132 737 143 745T174 754H183Q202 754 212 747T220 726Q214 670 192 626T142 556T96 530Q85 530 77 533Z" />
<glyph unicode="&#x201a;" glyph-name="quotesinglbase" horiz-adv-x="210" d="M17 -116T9 -113T1 -101Q1 -95 12 -77Q54 -9 62 76Q64 91 75 99T106 108H115Q134 108 144 101T152 80Q146 24 124 -20T74 -90T28 -116Q17 -116 9 -113Z" />
<glyph unicode="&#x201c;" glyph-name="quotedblleft" horiz-adv-x="348" d="M231 515T221 522T213 543Q219 599 241 643T290 713T336 739Q347 739 356 736T364 724Q363 717 352 700Q331 667 319 631T302 547Q300 532 290 524T259 515H250Q231 515 221 522ZM90
515T80 522T72 543Q78 599 100 643T149 713T195 739Q206 739 215 736T223 724Q222 717 211 700Q190 667 178 631T161 547Q159 532 149 524T118 515H109Q90 515 80 522Z" />
<glyph unicode="&#x201d;" glyph-name="quotedblright" horiz-adv-x="348" d="M225 530T217 533T209 545Q209 551 220 569Q262 637 270 722Q272 737 283 745T314 754H323Q342 754 352 747T360 726Q354 670 332 626T282 556T236 530Q225 530 217 533ZM340 530T332
533T324 545Q324 551 335 569Q377 637 385 722Q387 737 398 745T429 754H438Q457 754 467 747T475 726Q469 670 447 626T397 556T351 530Q340 530 332 533Z" />
<glyph unicode="&#x201e;" glyph-name="quotedblbase" horiz-adv-x="348" d="M186 -116T178 -113T170 -101Q170 -95 181 -77Q223 -9 231 76Q233 91 244 99T275 108H284Q303 108 313 101T321 80Q315 24 293 -20T243 -90T197 -116Q186 -116 178 -113ZM301 -116T293
-113T285 -101Q285 -95 296 -77Q338 -9 346 76Q348 91 359 99T390 108H399Q418 108 428 101T436 80Q430 24 408 -20T358 -90T312 -116Q301 -116 293 -113Z" />
<glyph unicode="&#x2022;" glyph-name="bullet" horiz-adv-x="298" d="M100 203T70 230T40 311Q40 372 73 411T164 450Q212 450 242 422T272 341Q272 281 239 242T148 203Q100 203 70 230Z" />
<glyph unicode="&#x2039;" glyph-name="guilsinglleft" horiz-adv-x="247" d="M132 64T126 74L40 230Q32 246 32 255Q32 269 46 286L165 442Q174 453 185 453Q195 453 207 444T219 425Q219 415 210 402L105 257L180 109Q185 99 185 90Q185 80 170 70T145 62Q132
64 126 74Z" />
<glyph unicode="&#x203a;" glyph-name="guilsinglright" horiz-adv-x="247" d="M114 451T120 441L206 285Q214 269 214 260Q214 246 200 229L81 73Q72 62 61 62Q51 62 39 71T27 90Q27 100 36 113L141 258L66 406Q61 416 61 425Q61 435 76 445T101 453Q114 451 120 441Z" />
</font>
</defs>
</svg>
